<?xml version="1.0" standalone="no"?>
<!DOCTYPE svg PUBLIC "-//W3C//DTD SVG 20010904//EN"
 "http://www.w3.org/TR/2001/REC-SVG-20010904/DTD/svg10.dtd">
<svg version="1.0" xmlns="http://www.w3.org/2000/svg"
 width="600.000000pt" height="600.000000pt" viewBox="0 0 600.000000 600.000000"
 preserveAspectRatio="xMidYMid meet">
<metadata>
Created by potrace 1.14, written by Peter Selinger 2001-2017
</metadata>
<g transform="translate(0.000000,600.000000) scale(0.100000,-0.100000)"
fill="#000000" stroke="none">
<path d="M0 3000 l0 -3000 3000 0 3000 0 0 3000 0 3000 -3000 0 -3000 0 0
-3000z m4924 2350 c43 -11 100 -32 127 -46 134 -73 248 -209 291 -346 l23 -73
0 -1885 0 -1885 -23 -73 c-43 -137 -157 -273 -291 -346 -27 -14 -84 -35 -127
-46 -76 -20 -117 -20 -1924 -20 -1807 0 -1848 0 -1924 20 -43 11 -100 32 -127
46 -134 73 -248 209 -291 346 l-23 73 0 1885 0 1885 23 73 c58 185 223 342
414 392 71 18 134 19 1924 19 1812 1 1852 1 1928 -19z"/>
<path d="M1092 5039 c-69 -34 -104 -71 -138 -144 l-24 -50 0 -1846 0 -1846 31
-61 c34 -69 71 -104 144 -138 l50 -24 1846 0 1846 0 61 31 c69 34 104 71 138
144 l24 50 0 1845 0 1845 -24 50 c-34 73 -69 110 -138 144 l-61 31 -1847 0
-1847 0 -61 -31z m1550 -1030 c15 -11 35 -33 43 -49 18 -34 20 -102 4 -133 -6
-12 -192 -203 -412 -424 l-402 -403 402 -402 c220 -222 406 -413 412 -425 16
-31 14 -99 -4 -133 -19 -37 -61 -67 -107 -75 -73 -14 -94 4 -585 496 -500 503
-485 484 -468 577 6 32 63 94 468 501 303 303 476 470 502 482 48 23 104 18
147 -12z m863 12 c27 -13 192 -172 502 -482 405 -407 462 -469 468 -501 17
-93 32 -74 -468 -577 -491 -492 -512 -510 -585 -496 -46 8 -88 38 -107 75 -18
34 -20 102 -4 133 6 12 192 203 412 425 l402 402 -402 403 c-220 221 -406 412
-412 424 -6 12 -11 40 -11 63 0 112 104 178 205 131z"/>
</g>
</svg>
