<?xml version="1.0" encoding="utf-8"?>
<!-- Generator: Adobe Illustrator 27.7.0, SVG Export Plug-In . SVG Version: 6.00 Build 0)  -->
<svg version="1.1" id="Capa_1" xmlns="http://www.w3.org/2000/svg" xmlns:xlink="http://www.w3.org/1999/xlink" x="0px" y="0px"
	 viewBox="0 0 1920 1080" style="enable-background:new 0 0 1920 1080;" xml:space="preserve">
<style type="text/css">
	.st0{fill:#FFFFFF;}
</style>
<g>
	<path class="st0" d="M629.03,642.65c-2.94-16.19-4.59-32.66-8.35-48.65c-8.92-37.9-20.9-74.78-40.17-108.92
		c-10.87-19.27-23.29-37.31-40.99-51.01c-20.38-15.78-43.11-20.79-68.24-14.19c-18.66,4.9-32.42,16.88-43.87,31.45
		c-14.19,18.05-24.17,38.62-31.2,60.38c-6.76,20.92-12.89,42.11-17.99,63.49c-4.11,17.21-6.45,34.86-9.22,52.38
		c-2.02,12.76-3.24,25.64-5.21,38.41c-2.19,14.17-4.37,28.3-1.83,42.65c2.5,14.08,8.09,26.57,20.09,35.03
		c9.54,6.73,19.86,8.85,31.27,3.9c10.24-4.45,15.62-13.12,20.46-22.14c9.78-18.21,15.31-37.89,18.73-58.82
		c31.08,15.37,62.01,10.08,93.26-1.13c0.67,14.83,4.31,27.84,9.57,40.35c3.69,8.78,8.53,17.13,16.06,23.13
		c9.86,7.85,21.24,10.08,33.54,6.66c10.51-2.93,19.49-8.01,22.96-19.06c2.03-6.46,3.65-13.3,3.87-20.03
		C632.38,678.53,632.27,660.51,629.03,642.65z M459.34,600.02c-13.57,0.24-18.33-8.33-19.31-19.25
		c-2.07-22.99,10.49-37.51,28.71-48.57c0.47-0.29,1.23-0.09,3.09-0.19c-9.97,11-11.93,22.83-7.92,36.01
		c3.85,12.66,11.57,22.12,22.38,30.24C477.3,598.87,468.33,599.86,459.34,600.02z M550.91,572.37
		c-2.82,13.82-19.36,21.16-32.6,21.54c11.17-9.76,16.44-22.13,16.62-36.71c0.09-7.38,1.07-14.98-3.72-21.54
		c-0.3-0.44-0.6-0.89-0.89-1.33c0.56,0.23,1.13,0.46,1.69,0.7C543.66,540.41,553.38,560.29,550.91,572.37z"/>
	<path class="st0" d="M1118.63,545.77c-4.17,14.69-8.02,29.48-12.6,44.04c-6.22,19.8-13.74,39.13-26.44,55.82
		c-5.38,7.06-11.86,13.2-20.71,16.17s-23.33-1.59-28.89-9.3c-7.52-10.43-10.2-22.44-10.89-34.91c-0.49-8.81-0.96-17.77,0.08-26.47
		c1.6-13.35,3.77-26.74,7.03-39.77c4.47-17.85,10.03-35.5,18.79-51.81c12.75-23.73,32.33-38.41,59.2-42.63
		c22.8-3.58,43.67,1.42,61.67,15.88c15.2,12.21,24.98,28.42,31.19,46.83c0.25,0.75,0.67,1.44,1.03,2.22
		c4.13-4.94,7.89-9.99,12.22-14.5c11.72-12.2,26.13-20.33,42.66-22.91c14.21-2.22,28.64-0.99,40.25,9.5
		c9.28,8.39,14.26,19.42,17.64,31.14c3.94,13.69,6.86,27.6,7.16,41.96c0.18,8.76,1.33,17.56,0.84,26.27
		c-1.47,26.33-5.2,52.25-17.92,75.94c-3.64,6.79-7.77,13.4-15.7,16.01c-10.72,3.53-25.21-2.05-32.32-12.17
		c-7.32-10.42-10.54-22.28-11.77-34.68c-1.11-11.14-1.76-22.36-2.05-33.55c-0.16-6.39,0.81-12.81,1.27-19.21
		c-0.4-0.08-0.81-0.15-1.21-0.23c-0.72,2.86-1.47,5.72-2.17,8.59c-3.89,16-9.42,31.37-19.43,44.6
		c-9.35,12.37-21.4,20.52-37.32,22.66c-18.1,2.44-30.74-6.59-41.21-19.29c-10.95-13.28-15.9-29.43-17.96-46.32
		c-1.47-12.05-2.31-24.2-2.99-36.33c-0.25-4.53,0.77-9.13,1.21-13.69C1119.08,545.68,1118.86,545.73,1118.63,545.77z"/>
	<path class="st0" d="M1558.22,679.03c-1.79-20.05-2.08-40.23-3.22-60.34c-0.41-7.2-1.02-14.43-2.17-21.54
		c-2-12.35-4.25-24.67-6.82-36.91c-5.16-24.58-12.55-48.43-26.3-69.73c-17.09-26.48-40.5-40.3-73.02-35.56
		c-16.16,2.35-29.36,10.26-40.98,21.01c-14.26,13.19-24.9,29.29-32.66,46.88c-8.12,18.42-15.4,37.32-21.42,56.53
		c-5.65,18.01-9.46,36.63-13.53,55.11c-3.12,14.13-5.67,28.41-7.95,42.71c-1.69,10.58-2.42,21.25,0.85,31.81
		c6.85,22.07,27.76,27,45.43,19.67c15.08-6.25,22.65-20.44,28.36-34.96c3.21-8.15,4.72-16.96,7-25.52
		c22,10.55,44.31,15.21,67.73,3.09c0.5,4.29,1.17,8.34,1.42,12.41c0.78,12.8,3.61,25.23,8.46,36.95
		c7.67,18.53,15.03,27.3,36.18,25.48c11.31-0.97,20.78-5.53,25.68-16.7C1558.36,713.28,1559.78,696.53,1558.22,679.03z
		 M1436.46,605.92c-7.18-0.92-14.51-1.23-21.51-2.9c-12.58-3-15.37-13.55-13.73-23.67c2.98-18.39,14.95-29.42,32.25-35.07
		c0.89-0.29,1.96-0.04,2.95-0.04c-11.28,7.31-16.05,16.79-15.7,30.23c0.34,13.26,7.06,22.02,16.3,30.01
		C1436.83,604.95,1436.64,605.43,1436.46,605.92z M1490.79,598.6c-6.04,2.73-12.72,4.05-19.11,6c18.53-19.88,14.78-43.13,0.05-59.77
		c2.42,1.1,4.93,2.02,7.24,3.32c10.04,5.63,18.58,12.75,22.61,24.02C1505.8,583.99,1502.22,593.43,1490.79,598.6z"/>
	<path class="st0" d="M720.97,590.03c0,1.83-0.04,3.53,0.01,5.22c0.4,14.2-0.12,28.36-2.98,42.31
		c-2.42,11.83-5.48,23.37-12.93,33.41c-7.35,9.91-19.8,15.76-31.14,11.74c-5.05-1.79-9.69-6.67-12.92-11.27
		c-6.29-8.97-8.68-19.7-9.89-30.46c-1.44-12.89-3.43-25.93-2.86-38.79c0.96-21.63,0.84-43.61,8.78-64.34
		c6.35-16.59,15.73-30.77,32.74-38.14c12.4-5.38,25.02-4.65,37.78-0.8c20.09,6.06,35.61,18.51,48.34,34.59
		c7.83,9.89,14.77,20.49,21.39,29.75c2.12-13.72,3.9-28.89,6.92-43.81c2.82-13.94,7.41-27.31,17.81-37.95
		c10.72-10.97,33.93-14.77,43.6,6.57c5.75,12.7,9.13,25.97,11.49,39.7c3.58,20.87,3.67,41.9,2.59,62.8
		c-1.02,19.84-1.74,40-8.73,59.01c-6,16.3-16.23,28.88-33.94,32.81c-10.49,2.33-21.3,1.88-31.46-2.42
		c-17.49-7.41-31.93-18.88-44.61-33c-15.38-17.12-27.63-36.23-38.23-56.53C722.64,590.27,722.14,590.3,720.97,590.03z"/>
	<path class="st0" d="M904.97,628.53c-0.33-6.44-1.26-12.91-0.87-19.3c0.96-15.57,1.96-31.17,4.01-46.62
		c1.93-14.51,4.41-29.05,8.21-43.16c2.23-8.3,6.24-16.83,11.68-23.41c10.53-12.73,20.71-12.12,35.46-5.01
		c14.65,7.06,20.21,20.43,23.33,34.83c3.16,14.61,5.28,29.48,7.05,44.33c1.36,11.45,2.36,23.08,1.95,34.57
		c-0.82,22.91-2.46,45.84-9.78,67.86c-7.55,22.68-33,33.21-51.98,26.75c-8.65-2.94-13.55-8.86-16.7-17.16
		C910.74,664.85,906.41,647.04,904.97,628.53z"/>
	<path class="st0" d="M424.96,387.4c-0.65-10.71,3.54-19.44,10.14-26.7c15.39-16.94,34.48-27.58,57.31-30.62
		c5.88-0.78,12.19-0.98,17.91,0.29c14.91,3.3,18.37,18.33,14.12,31.52c-2.44,7.59-7.76,12.5-14.38,16.63
		c-15.48,9.65-31.03,19.18-48.41,24.94c-6.38,2.12-13.36,2.41-20.07,3.55c-9.19,1.56-16.85-8.07-16.61-16.01
		C425,389.67,424.96,388.33,424.96,387.4z"/>
	<path class="st0" d="M976.02,440.8c1.44,14.97-11.62,29.68-29.11,31.6c-12.12,1.33-22.18-1.72-30.74-9
		c-9.75-8.29-13.54-20.47-4.15-33.69c9.59-13.5,35.1-19.8,50.31-12.92C972.62,421.45,976.54,429.58,976.02,440.8z"/>
</g>
</svg>
