<?xml version="1.0" encoding="utf-8"?>
<!-- Generator: Adobe Illustrator 27.7.0, SVG Export Plug-In . SVG Version: 6.00 Build 0)  -->
<svg version="1.1" id="Capa_1" xmlns="http://www.w3.org/2000/svg" xmlns:xlink="http://www.w3.org/1999/xlink" x="0px" y="0px"
	 viewBox="0 0 817.41 817.41" style="enable-background:new 0 0 817.41 817.41;" xml:space="preserve">
<style type="text/css">
	.st0{fill:#FFFFFF;}
</style>
<g>
	<path class="st0" d="M340.44,570.31c8.01,4.02,15.8,8.58,24.09,11.9c9.13,3.65,18.71,6.16,28.1,9.16
		c7.75,4.18,16.17,5.08,24.78,5.04l-0.1,0.2c1.18,0.96,2.35,2.73,3.55,2.74c13.12,0.2,26.25,0.23,39.38,0
		c1.73-0.03,3.42-1.79,5.13-2.75c12-2.75,24.1-5.16,35.96-8.41c5.74-1.57,11.31-4.28,16.49-7.27c5.78-3.34,8.01,0.21,10.43,4.16
		c6.1,9.95,12.11,19.94,18.27,29.85c8.19,13.18,16.5,26.28,24.71,39.44c1.56,2.51,2.15,4.81-1.47,6.36
		c-14.22,6.09-28.21,12.75-42.63,18.3c-10.11,3.89-20.71,6.55-31.22,9.28c-5.03,1.3-10.34,1.48-15.53,2.16
		c-1.55-0.32-3.13-1-4.66-0.88c-6.8,0.52-13.58,1.69-20.38,1.83c-13.92,0.29-27.84,0.04-41.77,0.1c-1.74,0.01-3.48,0.53-5.22,0.81
		c-7.59-1.05-15.2-1.99-22.76-3.2c-3.65-0.58-7.24-1.59-10.83-2.53c-12.8-3.34-25.84-6-38.31-10.31
		c-12.97-4.48-25.75-9.87-37.94-16.17c-10.18-5.26-19.5-12.23-28.97-18.77c-8.88-6.12-17.46-12.67-26.17-19.04
		c-1.76-3.45-1.53-8.69-7.56-8.33c-0.43,0.03-1.05-0.79-1.36-1.34c-5.13-8.84-15.34-13.12-19.98-22.57
		c-1.59-3.24-5.23-5.42-7.72-8.27c-2.17-2.48-3.94-5.31-6.1-7.8c-0.5-0.58-1.85-0.41-2.81-0.59c0.29-1.6,0.01-4.05,0.95-4.66
		c5.65-3.68,11.58-6.94,17.42-10.34c2.8,3.36-0.97,3.29-2.35,4.24c-1.74,1.21-4.05,2.78-1.44,4.34c3.53,2.11,7.68,3.42,11.73,4.3
		c1.57,0.34,3.61-1.39,5.41-2.22c1.84-0.84,3.62-2.33,5.5-2.48c4.72-0.36,9.48-0.12,14.23-0.12c11.31,0,22.65-0.41,33.94,0.12
		c10.9,0.51,22.07-2.69,33.16,1.71c-1.22-1.34-2.44-2.69-3.7-4.07c0.94-3.32,2.44-3.13,4.91-1.11c3.71,3.03,7.73,5.7,11.61,8.52
		c0.42-0.37,0.83-0.74,1.25-1.11c-0.7-1.05-1.36-2.13-2.11-3.15c-0.97-1.33-2-2.61-3.01-3.91l0,0c2.13,0.47,4.26,0.94,6.38,1.42
		l0.21,0.14c2.31,2.12,4.61,4.25,7,6.29C339.06,571.44,339.92,570.67,340.44,570.31z"/>
	<path class="st0" d="M550.91,139.29l0.27-0.08l0.19,0.21c5.67,6.62,13.62,8.31,21.58,10.01c6.18,3.23,12.35,6.46,18.53,9.7
		c1.97,2.09,3.94,4.19,5.91,6.28c1.33,0.67,2.66,1.33,3.99,2l0.01,0.01c-0.51,1.29-1.03,2.57-1.63,4.07
		c-4.66-2.59-8.74-5.26-13.65-2.39c-6.22-4.86-13.21-1.48-19.76-1.53c-43.15-0.29-86.31-0.15-129.47-0.15
		c-38.49,0-76.98,0.05-115.47-0.09c-3.13-0.01-6.25-1.37-9.38-2.1c-0.12-0.53-0.25-1.05-0.37-1.58c-1.07,2.05-2.14,4.1-3.32,6.35
		c-0.81-0.15-1.93-0.36-3.05-0.57c-0.89-1.97-1.61-4.05-2.75-5.87c-0.68-1.07-2.03-1.72-3.08-2.55c1.08-1.15,1.97-2.69,3.29-3.38
		c3.58-1.87,7.45-3.18,10.99-5.11c1.47-0.8,2.39-2.62,3.55-3.98c2.76-1.02,5.52-2.05,8.28-3.07c0.94,0.13,2.03,0.64,2.79,0.33
		c4.9-1.98,9.59-4.62,14.62-6.14c10.13-3.05,20.37-5.8,30.68-8.14c10.47-2.38,21.09-4.12,31.64-6.14c4.97-0.65,9.92-1.71,14.9-1.86
		c10.11-0.3,20.24-0.4,30.35-0.04c12.76,0.45,25.5,1.47,38.25,2.16c0.81,0.04,1.67-0.69,2.5-1.06c1.37,0.32,2.75,0.63,4.12,0.95
		c2.44,0.78,4.85,1.69,7.34,2.32c4.97,1.26,9.98,2.32,14.96,3.54c6.54,1.61,13.33,2.65,19.5,5.19
		C541.79,138.46,546.04,139.91,550.91,139.29z"/>
	<path class="st0" d="M654.54,568.57c-2.64,7.97-5.17,15.99-7.95,23.91c-4,11.42-8.03,22.84-12.33,34.15
		c-2.8,7.36-6.23,14.48-9.14,21.81c-1.83,4.6-3.22,9.38-4.8,14.08c-0.96,0.96-2.22,1.76-2.8,2.9c-0.93,1.85-1.28,4-2.15,5.89
		c-0.39,0.85-1.44,1.41-2.2,2.1c-0.6-0.84-1.63-1.65-1.72-2.54c-0.32-3.33-1.73-5.29-5.28-5.22c-3.32-5.18-6.7-10.32-9.95-15.54
		c-4.28-6.88-8.51-13.8-12.67-20.76c-7.22-12.08-14.22-24.3-21.61-36.27c-4.34-7.02-9.36-13.61-13.89-20.52
		c-2.1-3.2-3.75-6.69-5.6-10.05c-0.69-1.67-1.38-3.34-2.06-5.01c-1.64-3-1.78-7.11-6.06-8.14c-0.29-0.39-0.57-0.77-0.86-1.16
		c-0.41-1.63-0.55-3.41-1.3-4.86c-1.58-3.06-0.28-3.84,2.53-3.82c3.45,0.03,6.9,0.05,10.35,0.08c2.79,0.24,5.58,0.48,8.37,0.72
		c13.98,1.43,27.97,2.86,41.95,4.28c1.7,0.96,3.33,2.52,5.12,2.75c3.58,0.46,7.25,0.19,10.89,0.23c-0.48,1.12-0.97,2.23-1.62,3.74
		c2.38,0,4.37,0.23,6.27-0.06c2.19-0.34,4.32-1.66,6.45-1.61c2.35,0.06,4.64,1.55,7.02,1.79c8.77,0.86,17.57,1.46,26.35,2.2
		c0.37,0.03,0.7,0.55,1.27,1.03c-1.21,0.57-2.19,1.03-2.07,0.97c-0.28,3.53-0.55,6.28-0.7,9.02
		C654.28,565.96,654.46,567.26,654.54,568.57z"/>
	<path class="st0" d="M305.31,169.42c1.12,0.21,2.24,0.42,3.05,0.57c1.17-2.24,2.24-4.29,3.32-6.35c0.12,0.53,0.25,1.05,0.37,1.58
		c3.13,0.73,6.25,2.08,9.38,2.1c38.49,0.15,76.98,0.09,115.47,0.09c43.16,0,86.31-0.14,129.47,0.15c6.54,0.04,13.54-3.33,19.76,1.53
		c4.91-2.88,8.99-0.2,13.65,2.39c0.6-1.5,1.11-2.78,1.63-4.07c2.65,1.36,5.31,2.71,7.96,4.07c1.39,1.68,2.45,4.14,4.23,4.9
		c3.92,1.66,5.57,3.79,3.82,7.9c-1.99,1.42-3.98,2.83-5.97,4.25c-1.09-0.38-2.16-0.79-3.26-1.13c-2.73-0.84-6.01-4.52-7.56,1.42
		c-0.06,0.24-1.77,0.2-2.67,0.05c-4.47-0.77-8.93-2.33-13.4-2.34c-83.54-0.14-167.07-0.09-250.61-0.14c-5.01,0-9.59,4.26-14.85,1.39
		c-0.09-0.05-0.47,0.41-0.71,0.63l-0.06,0.05c-1.6-0.36-3.2-0.71-4.79-1.07c-1.18-2.74-2.3-5.5-3.54-8.2
		C308.48,175.9,306.87,172.67,305.31,169.42z"/>
	<path class="st0" d="M156.14,353.4c1.46-6.53,2.71-13.12,4.44-19.57c1.67-6.21,3.84-12.29,5.8-18.43c0.97-0.8,2.23-1.43,2.85-2.45
		c1.49-2.41,2.69-5.01,4-7.53c1.5,0.04,3.99-0.45,4.34,0.2c4.04,7.55,10.13,2.82,15.39,2.83c4.25,0.01,8.51,0,12.76,0
		c15.16,0,30.33,0,45.49,0c3.8,0,7.6,0,10.34,0c2.31,3.6,4.06,6.34,5.82,9.08c-1.75,3.95-3.22,8.03-6.96,10.75
		c-0.72,0.52-0.72,2.06-1.01,3.15c-0.82,3.1-1.5,6.25-2.46,9.31c-1.06,3.35-2.51,6.59-3.53,9.95c-1.49,4.88-2.76,9.84-4.12,14.76
		c-1.29-0.21-3.24,0.04-3.75-0.7c-3.11-4.53-7.69-3.4-11.83-3.2c-8.61,0.42-17.19,1.59-25.81,1.83c-11.79,0.33-23.6,0.11-35.41,0.07
		c-4.65-0.02-10.3,1.46-10.54-6.44c-0.45,1.68-0.9,3.36-1.45,5.4C158.85,359.01,157.5,356.2,156.14,353.4z"/>
	<path class="st0" d="M156.14,353.4c1.36,2.8,2.72,5.61,4.36,9c0.55-2.04,1-3.72,1.45-5.4c0.24,7.9,5.9,6.43,10.54,6.44
		c11.8,0.04,23.61,0.26,35.41-0.07c8.61-0.24,17.19-1.41,25.81-1.83c4.14-0.2,8.72-1.33,11.83,3.2c0.51,0.74,2.46,0.49,3.75,0.7
		c0,0.67,0.01,1.33,0.01,2c-1.31,3.99-3.24,7.9-3.77,11.99c-0.68,5.24-0.22,10.64-0.26,15.96c-0.64,1.47-1.79,2.93-1.82,4.41
		c-0.19,7.87-0.09,15.75-0.09,23.63c-2.13,1.58-3.72,1.62-3.97-1.53c-0.13-1.65,0.22-3.38-0.11-4.98c-0.38-1.83-1.26-3.56-1.92-5.33
		c-0.75,1.58-1.49,3.18-2.26,4.75c-0.13,0.26-0.45,0.42,0.29-0.24c-4.51-0.64-8.08-1.55-11.66-1.58
		c-18.14-0.15-36.28-0.38-54.4,0.11c-6.09,0.16-13.73-2.35-17.5,5.73c-0.04,0.08-0.31,0.06-0.48,0.08c0-8.1,0.08-16.21-0.03-24.31
		c-0.04-3.23-0.5-6.46-0.77-9.69C149.51,374.95,153.22,364.24,156.14,353.4z"/>
	<path class="st0" d="M151.32,420.46c0.16-0.02,0.44,0,0.48-0.08c3.77-8.08,11.41-5.57,17.5-5.73c18.12-0.49,36.27-0.26,54.4-0.11
		c3.58,0.03,7.16,0.94,11.66,1.58c-0.74,0.66-0.42,0.49-0.29,0.24c0.78-1.57,1.51-3.16,2.26-4.75c0.66,1.77,1.55,3.5,1.92,5.33
		c0.33,1.6-0.02,3.32,0.11,4.98c0.25,3.14,1.84,3.1,3.97,1.53c0.65,1.35,1.31,2.7,1.96,4.05c0.64,3.31,1.29,6.62,1.93,9.93
		c1.51,5.09,3.2,10.13,4.45,15.28c0.61,2.5,0.39,5.19,0.54,7.8c-0.49,0.44-1.37,0.86-1.4,1.32c-0.27,4.77-3.46,4.9-7.04,4.67
		c-2.15-0.14-4.32-0.02-6.49-0.02c-23.07,0-46.14,0-69.69,0c-0.85-1.79-2.03-4.25-3.56-7.47c-1.14,1.54-1.88,2.63-2.71,3.65
		c-1.34,1.65-2.74,3.26-4.12,4.89c-1.62-2.97-3.25-5.94-4.87-8.91c-0.67-4.4-1.34-8.8-2.01-13.21c0.51-0.62,1.46-1.25,1.46-1.87
		c-0.06-5.7-0.29-11.4-0.47-17.1c0.61-0.42,1.21-0.83,1.82-1.25c-0.61-0.58-1.22-1.15-1.83-1.73
		C151.32,422.47,151.32,421.47,151.32,420.46z"/>
	<path class="st0" d="M267.37,317.53c-1.76-2.74-3.51-5.48-5.82-9.08c-2.74,0-6.54,0-10.34,0c-15.16,0-30.33,0-45.49,0
		c-4.25,0-8.51,0.01-12.76,0c-5.26-0.01-11.35,4.72-15.39-2.83c-0.35-0.65-2.84-0.16-4.34-0.2c1.75-4.73,3.13-9.64,5.32-14.15
		c3.6-7.4,7.75-14.54,11.64-21.8c1.07-1.99,2.03-4.04,3.04-6.07c1.24,0.3,3.46,0.38,3.58,0.92c0.99,4.65,4.57,3.06,7.2,3.02
		c6.2-0.1,12.39-0.83,18.58-0.86c21.44-0.12,42.89-0.15,64.33,0.06c3.56,0.03,7.1,1.44,10.65,2.21c0.95,0.69,1.97-0.15,2.58-1.22
		c1.85-3.22,4.01-2.81,6.33-0.7c0.97,0.89,1.76,1.98,2.63,2.99c0,0-0.29,0.07-0.29,0.06c-0.46,0.55-0.92,1.11-1.37,1.66l0.01-0.01
		c-3.25-0.31-5.61,0.47-5.39,4.41c0,0-0.22,0.2-0.22,0.19c-3.59,0-5.42,1.77-5.4,5.39l-0.02,0.01c-0.45,0.09-0.91,0.17-1.36,0.26
		c0.37,0.21,0.74,0.42,1.11,0.63c-0.88,1.04-1.75,2.08-2.63,3.13c-2.7,1.35-6.04,2.11-7.93,4.19c-2.42,2.67-3.29,6.68-5.49,9.62
		c-4.12,5.49-9.82,9.93-10.57,17.48C269.53,317.14,268.13,317.3,267.37,317.53z"/>
	<path class="st0" d="M318.37,188.41c0.24-0.22,0.61-0.68,0.71-0.63c5.26,2.88,9.84-1.39,14.85-1.39
		c83.54,0.05,167.07,0,250.61,0.14c4.47,0.01,8.93,1.57,13.4,2.34c0.9,0.15,2.61,0.19,2.67-0.05c1.56-5.93,4.83-2.25,7.56-1.42
		c1.1,0.34,2.18,0.75,3.26,1.13c-1.08,0.6-2.17,1.21-3.25,1.81c-0.78-0.12-1.76-0.61-2.31-0.31c-6.11,3.33-12.57,6.23-18.06,10.4
		c-3.1,2.35-5.86,3.26-9.39,3.07c-2.55-0.69-5.1-1.94-7.65-1.94c-6.73,0-13.46,0.82-20.19,0.83c-66.67,0.07-133.34,0.05-200.01,0.01
		c-2.79,0-5.61-0.39-8.38-0.84c-8.17-1.34-13.5,1.62-15.66,8.84c-4.38-7.43-8.75-14.85-13.13-22.28c-0.01-0.25,0.03-0.49,0.11-0.72
		c1.6,0.36,3.2,0.71,4.79,1.07c0.14,0.43,0.27,0.85,0.41,1.28c0.12-0.09,0.36-0.24,0.35-0.25
		C318.86,189.12,318.62,188.76,318.37,188.41z"/>
	<path class="st0" d="M157.23,467.55c1.38-1.63,2.78-3.24,4.12-4.89c0.83-1.02,1.57-2.11,2.71-3.65c1.54,3.22,2.71,5.68,3.56,7.47
		c23.55,0,46.62,0,69.69,0c2.16,0,4.33-0.11,6.49,0.02c3.58,0.23,6.76,0.1,7.04-4.67c0.03-0.47,0.91-0.88,1.4-1.32
		c4.83,10.61,9.71,21.2,14.47,31.85c2.25,5.04,0.43,8.06-5.33,9.23c-2.75-3.14-6.24-2.88-8.03,0.4c-0.71,1.29-1.86,2.57-3.13,3.28
		c-2.03,1.13-4.33,1.77-7.04,2.82c-5.79-4.97-13.34-1.96-20.42-2.39c-1.09-0.07-2.24,1.6-3.42,2.36c-2.35,1.51-4.65,4.04-7.12,4.23
		c-7.44,0.56-14.95,0.28-22.43,0.12c-1.27-0.03-3.36-0.83-3.62-1.7c-1.58-5.36-4.47-4.5-8.33-2.54c-4.87,2.48-9.66,0.11-11.81-4.98
		c-0.63-1.48-2.42-2.48-3.67-3.69c-0.61-0.72-1.22-1.44-1.84-2.16c-1.08-4.93-2.17-9.85-3.25-14.78
		C157.24,477.55,157.23,472.55,157.23,467.55z"/>
	<path class="st0" d="M326.54,210.39c2.16-7.22,7.5-10.18,15.66-8.84c2.77,0.46,5.58,0.84,8.38,0.84
		c66.67,0.05,133.34,0.06,200.01-0.01c6.73-0.01,13.46-0.83,20.19-0.83c2.55,0,5.1,1.26,7.64,1.94c0.3,1.47,0.6,2.95,0.9,4.42
		c-0.02,0.28-0.17,0.43-0.45,0.43c-3.14,1.79-6.28,3.59-9.42,5.38c-2.76,1.87-5.52,3.74-8.28,5.61c-1.27,0.04-2.54,0.07-3.81,0.11
		c-0.58-1.26-1.16-2.52-1.74-3.79c-1.59,1.17-3.19,2.34-4.78,3.51c-3.29-0.86-6.46-0.53-9.64-0.2c-1.14,0.12-2.28,0.35-3.43,0.35
		c-11.06,0.04-22.12-0.07-33.18,0.11c-4.38,0.07-8.74,0.92-13.13,1.13c-7.1,0.33-14.32,1.62-21.11-1.81
		c-0.13-0.06-0.33,0.03-0.49,0.03c-9.03,0.22-18.07,0.66-27.1,0.55c-4.91-0.06-9.82-1.62-14.71-1.53
		c-8.74,0.15-17.48,0.98-26.21,1.65c-6.9,0.52-13.78,1.26-20.67,1.81c-1.29,0.1-2.61-0.25-3.91-0.36
		c-9.53-0.82-19.06-2.21-28.58-2.2c-4.64,0.01-9.09,1.64-12.31-3.05c-0.98,1.26-1.69,2.16-3.33,4.27c1.29-6.25-1.82-7.16-5.49-7.51
		C327.22,211.74,326.88,211.06,326.54,210.39z"/>
	<path class="st0" d="M325.34,563.5c1.01,1.3,2.04,2.58,3.01,3.91c0.75,1.02,1.41,2.1,2.11,3.15c-0.42,0.37-0.83,0.74-1.25,1.11
		c-3.89-2.82-7.9-5.49-11.61-8.52c-2.48-2.02-3.98-2.21-4.91,1.11c1.26,1.38,2.48,2.72,3.7,4.07c-11.09-4.4-22.26-1.2-33.16-1.71
		c-11.29-0.53-22.62-0.12-33.94-0.12c-4.75,0-9.51-0.24-14.23,0.12c-1.89,0.14-3.66,1.63-5.5,2.48c-1.81,0.82-3.84,2.56-5.41,2.22
		c-4.05-0.88-8.2-2.19-11.73-4.3c-2.61-1.56-0.3-3.13,1.44-4.34c1.37-0.96,5.15-0.89,2.35-4.24c17.35-11.14,34.71-22.27,52.05-33.42
		c0.8-0.51,1.59-1.07,2.28-1.71c6.02-5.64,11.81-5.98,16.3,0.7c6.6,9.82,16.22,16.23,24.26,24.38c5.8,5.88,12.75,9.79,19.17,14.59
		c0.63,0.47,0.99,1.3,1.48,1.95C329.61,564.44,327.48,563.97,325.34,563.5c-1.03-2.33-2.25-4.33-4.93-3.76
		c-0.26,0.58-0.53,1.16-0.79,1.73C321.53,562.15,323.44,562.82,325.34,563.5z M219.68,568.57c2.13-2.22,3.72-3.89,5.31-5.56
		c-0.91-0.77-2.43-2.34-2.64-2.19c-1.78,1.36-3.39,2.98-4.85,4.69C217.36,565.69,218.56,567.02,219.68,568.57z"/>
	<path class="st0" d="M309.11,269.82c-0.87-1-1.66-2.1-2.63-2.99c-2.32-2.11-4.48-2.52-6.33,0.7c-0.61,1.07-1.64,1.9-2.58,1.22
		c-3.55-0.77-7.1-2.18-10.65-2.21c-21.44-0.21-42.89-0.18-64.33-0.06c-6.2,0.03-12.39,0.76-18.58,0.86
		c-2.63,0.04-6.21,1.63-7.2-3.02c-0.11-0.54-2.33-0.63-3.58-0.92c0.33-2.03,0.65-4.07,0.98-6.1c1.42-1.95,2.84-3.91,4.26-5.86
		c0.98-0.19,2.04-0.2,2.91-0.62c2.21-1.06,4.25-3.04,6.51-3.3c4.41-0.51,8.93-0.09,13.4-0.08c30.1,0.01,60.19-0.02,90.29,0.06
		c1.53,0,3.75,0.38,4.46,1.41c2.02,2.95,4.7,2.61,7.51,2.44c1.32,1.79,2.65,3.57,4.17,5.63
		C321.31,261.41,315.21,265.62,309.11,269.82z"/>
	<path class="st0" d="M323.55,251.35c-2.81,0.17-5.49,0.5-7.51-2.44c-0.7-1.03-2.93-1.41-4.46-1.41
		c-30.1-0.08-60.19-0.06-90.29-0.06c-4.47,0-8.99-0.43-13.4,0.08c-2.26,0.26-4.3,2.25-6.51,3.3c-0.87,0.42-1.93,0.43-2.91,0.62
		c3.23-4.7,6.45-9.39,9.68-14.09c1.05-0.64,2.1-1.27,3.16-1.91l0.05-0.04c0.65-0.66,1.31-1.31,1.96-1.97l0.03-0.03
		c0.66-0.65,1.32-1.31,1.98-1.96l0.03-0.03c1.29-0.58,3.27-2.01,3.78-1.61c4.28,3.44,7.61,1.06,11.13-1.26
		c0.71-0.46,1.85-0.51,2.75-0.39c2.37,0.32,4.71,1.19,7.08,1.22c19.07,0.27,38.14,0.38,57.21,0.59c2.01,0.02,4.01,0.3,6.01,0.56
		c1.68,0.22,3.72,0.07,4.95,0.98c2.67,1.98,4.93,4.52,7.35,6.83C318.24,242.67,320.89,247.01,323.55,251.35z"/>
	<path class="st0" d="M327.56,212.42c3.67,0.35,6.78,1.26,5.49,7.51c1.64-2.11,2.35-3.01,3.33-4.27c3.22,4.69,7.66,3.05,12.31,3.05
		c9.53-0.01,19.06,1.38,28.58,2.2c1.31,0.11,2.63,0.46,3.91,0.36c6.89-0.55,13.77-1.29,20.67-1.81c8.73-0.66,17.47-1.49,26.21-1.65
		c4.89-0.09,9.8,1.47,14.71,1.53c9.03,0.11,18.06-0.34,27.1-0.55c0.17,0,0.37-0.1,0.49-0.03c6.79,3.43,14.01,2.14,21.11,1.81
		c4.38-0.21,8.75-1.06,13.13-1.13c11.06-0.18,22.12-0.07,33.18-0.11c1.14,0,2.29-0.23,3.43-0.35c3.18-0.33,6.35-0.65,9.64,0.2
		c1.59-1.17,3.19-2.34,4.78-3.51c0.58,1.26,1.16,2.52,1.74,3.79c-0.61,0.65-1.14,1.4-1.84,1.94c-3.34,2.61-6.73,5.16-10.1,7.73
		c-6.26,3.99-12.38,8.23-18.88,11.8c-1.86,1.02-5,0.64-7.22-0.09c-10.99-3.65-21.98-7.37-32.76-11.6
		c-6.85-2.69-13.88-3.38-21.05-3.86c-0.74-0.05-1.45-0.7-2.17-1.07c-1.02-0.83-2.04-1.66-3.06-2.49c-0.32,0.83-0.63,1.66-0.95,2.49
		c-8.76-0.28-17.53-0.93-26.27-0.73c-8.87,0.2-17.72,1.25-26.58,1.92c-2.76-0.01-5.57-0.29-8.27,0.11
		c-1.07,0.16-1.92,1.81-2.87,2.78c-0.34-0.02-0.68-0.05-1.01-0.07c-1-0.31-2-0.61-3-0.92c-0.01-4.26-2.35-4.45-5.62-3.33
		c-1.79,0.61-3.71,1.41-5.53,1.3c-8.14-0.48-16.29-0.98-24.37-2.01c-5.8-0.73-12.07,3.45-17.39-2.38c-0.88,1.88-1.49,3.19-2.1,4.49
		C333.41,221.11,330.48,216.76,327.56,212.42z"/>
	<path class="st0" d="M162.34,499.49c1.26,1.22,3.04,2.21,3.67,3.69c2.16,5.09,6.95,7.46,11.81,4.98c3.86-1.97,6.75-2.82,8.33,2.54
		c0.26,0.87,2.36,1.68,3.62,1.7c7.48,0.16,14.99,0.44,22.43-0.12c2.47-0.19,4.78-2.71,7.12-4.23c1.19-0.76,2.34-2.43,3.42-2.36
		c7.07,0.44,14.63-2.58,20.42,2.39c2.71-1.05,5.01-1.69,7.04-2.82c1.27-0.71,2.42-1.99,3.13-3.28c1.79-3.28,5.28-3.54,8.03-0.4
		c-6.46,4.21-12.92,8.42-19.38,12.62c-1.55,0.42-3.09,0.84-4.64,1.26c0.2-1.11,0.4-2.23,0.56-3.14c-2.25-0.98-4.23-2.15-6.38-2.72
		c-4.61-1.21-9.74,3.99-7.37,7.65c3.39-2.58,7.02-4.21,11.21-1.74c-6.7,4.66-13.41,9.31-20.11,13.99c-4.66,3.26-9.3,6.56-13.95,9.84
		c-4.55,2.92-9.01,6.02-13.74,8.62c-1.17,0.64-4.23,0.24-4.71-0.63c-3.77-6.82-7.13-13.86-10.61-20.84
		c-0.26-0.37-0.53-0.74-0.79-1.12l-0.03-0.03c-0.72-2.34-1.21-4.79-2.23-6.99c-1.72-3.76-3.77-7.37-5.69-11.04l-0.02-0.02
		C163.12,504.7,162.73,502.1,162.34,499.49z"/>
	<path class="st0" d="M315.58,238.34c-2.43-2.31-4.68-4.86-7.35-6.83c-1.22-0.9-3.26-0.76-4.95-0.98c-1.99-0.26-4-0.54-6.01-0.56
		c-19.07-0.21-38.14-0.32-57.21-0.59c-2.36-0.03-4.7-0.9-7.08-1.22c-0.89-0.12-2.04-0.08-2.75,0.39c-3.52,2.32-6.84,4.7-11.13,1.26
		c-0.5-0.4-2.48,1.03-3.78,1.61c-0.04-1.35-0.07-2.7-0.11-4.04l0.01-0.05c0.52-0.7,1.03-1.39,1.54-2.09
		c-0.09-0.2-0.05-0.37,0.13-0.5c0.77,0.04,1.87,0.43,2.25,0.07c2.97-2.84,5.91-5.73,8.64-8.8c1.98-2.24,4.05-3.28,6.97-2.08
		c0.97,0.4,2.04,0.79,3.06,0.79c13.55,0.05,27.1,0.17,40.65-0.03c6.32-0.09,12.63-0.84,18.95-1.3c0.29,0,0.59,0.01,0.88,0.03
		c0.34,0.35,0.68,0.7,1.02,1.05c2.07,2.29,4.14,4.57,6.2,6.86C308.89,226.99,312.24,232.66,315.58,238.34z"/>
	<path class="st0" d="M297.44,213.38c-6.32,0.45-12.63,1.2-18.95,1.3c-13.55,0.2-27.1,0.08-40.65,0.03c-1.02,0-2.09-0.4-3.06-0.79
		c-2.92-1.2-4.98-0.15-6.97,2.08c-2.72,3.08-5.67,5.96-8.64,8.8c-0.38,0.36-1.48-0.02-2.25-0.07c5.28-5.75,10.55-11.5,15.83-17.24
		c5.14-1.9,8.83-5.47,11.61-10.09l0.47,0.01h0.47c1.83,1.24,3.66,2.47,4.79,3.24c5.31-0.55,10.05-1.19,14.8-1.5
		c4.4-0.28,8.83-0.05,13.23-0.34c3.76-0.25,7.49-0.91,11.23-1.39c-0.01,1.34-0.01,2.67-0.02,4.01c-0.53,0.32-1.06,0.65-1.59,0.97
		c0.19,0.21,0.39,0.43,0.58,0.64c0.33-0.54,0.66-1.08,1-1.62c1.38,0.98,2.92,1.8,4.08,2.99c1.47,1.52,2.62,3.34,3.91,5.03
		C297.37,210.76,297.41,212.07,297.44,213.38z"/>
	<path class="st0" d="M289.37,197.42c-3.74,0.48-7.47,1.14-11.23,1.39c-4.4,0.29-8.83,0.06-13.23,0.34
		c-4.75,0.31-9.49,0.94-14.8,1.5c-1.13-0.76-2.96-2-4.79-3.24c1.31-1.03,2.64-2.03,3.93-3.09c7.54-6.14,14.99-12.4,22.67-18.37
		c1.64-1.27,4.15-2.45,5.25,1.44c0.37,1.29,2.63,2.04,4.03,3.04l0.07,0.18c0.44,1.65,0.71,3.37,1.36,4.93
		c0.72,1.71,1.61,3.42,2.77,4.85c0.99,1.21,2.47,2.02,3.73,3.01c0.28,0.15,0.4,0.38,0.36,0.7
		C289.45,195.21,289.41,196.31,289.37,197.42z"/>
	<path class="st0" d="M336.33,225.45c0.61-1.3,1.22-2.61,2.1-4.49c5.32,5.83,11.6,1.64,17.39,2.38c8.08,1.02,16.23,1.53,24.37,2.01
		c1.82,0.11,3.74-0.69,5.53-1.3c3.27-1.12,5.61-0.93,5.62,3.33c-3.81,0.68-7.73,0.99-11.4,2.13c-6.08,1.88-12.01,4.25-17.95,6.55
		c-0.44,0.17-0.43,1.48-0.63,2.26c-3.89,1.5-7.73,3.19-11.72,4.4c-1.18,0.36-3.49-0.2-4.06-1.11c-2.03-3.23-3.52-6.78-5.22-10.22
		c2.59-3.27,1.79-4.45-4.03-5.96V225.45z"/>
	<path class="st0" d="M267.37,317.53c0.76-0.22,2.15-0.38,2.18-0.68c0.75-7.54,6.45-11.99,10.57-17.48c2.2-2.94,3.07-6.95,5.49-9.62
		c1.89-2.08,5.23-2.84,7.93-4.19c-8.44,12.24-17.43,24.15-25.14,36.85c-4.88,8.05-8.18,17.13-11.56,25.99
		c-2.73,7.14-4.51,14.65-6.71,21.99c-0.28-0.98-0.56-1.96-0.85-2.94c0-0.67-0.01-1.33-0.01-2c1.36-4.92,2.63-9.88,4.12-14.76
		c1.03-3.36,2.48-6.59,3.53-9.95c0.96-3.06,1.64-6.21,2.46-9.31c0.29-1.08,0.29-2.62,1.01-3.15
		C264.16,325.56,265.62,321.47,267.37,317.53z"/>
	<path class="st0" d="M405.32,125.38c-10.55,2.02-21.17,3.76-31.64,6.14c-10.31,2.34-20.55,5.09-30.68,8.14
		c-5.03,1.51-9.72,4.16-14.62,6.14c-0.76,0.31-1.85-0.2-2.79-0.33c1.16-0.86,2.19-2.05,3.49-2.53
		c18.08-6.67,36.28-12.91,55.49-15.58c6.24-0.87,12.45-1.99,18.68-2.99C403.93,124.7,404.63,125.04,405.32,125.38z"/>
	<path class="st0" d="M194.21,257.3c-0.33,2.03-0.65,4.07-0.98,6.1c-1.01,2.02-1.97,4.07-3.04,6.07c-3.89,7.26-8.04,14.4-11.64,21.8
		c-2.2,4.51-3.58,9.42-5.32,14.15c-1.32,2.52-2.51,5.12-4,7.53c-0.63,1.02-1.88,1.65-2.85,2.45c1.33-4.33,2.16-8.9,4.09-12.93
		c6.67-13.93,13.69-27.69,20.67-41.46C191.85,259.61,193.17,258.53,194.21,257.3z"/>
	<path class="st0" d="M197.83,573.43c0.96,0.18,2.31,0.01,2.81,0.59c2.16,2.49,3.93,5.32,6.1,7.8c2.49,2.85,6.13,5.03,7.72,8.27
		c4.63,9.45,14.85,13.72,19.98,22.57c0.32,0.55,0.93,1.36,1.36,1.34c6.04-0.36,5.81,4.88,7.56,8.33
		c-9.04-8.57-18.27-16.95-27.05-25.78c-5.64-5.67-10.67-11.94-15.83-18.06C199.3,577.06,198.7,575.12,197.83,573.43z"/>
	<path class="st0" d="M654.54,568.57c-0.07-1.3-0.26-2.61-0.19-3.91c0.14-2.75,0.41-5.49,0.7-9.02c-0.12,0.06,0.86-0.41,2.07-0.97
		c-0.57-0.48-0.9-1-1.27-1.03c-8.78-0.74-17.58-1.34-26.35-2.2c-2.38-0.23-4.67-1.73-7.02-1.79c-2.13-0.05-4.26,1.27-6.45,1.61
		c-1.9,0.3-3.89,0.06-6.27,0.06c0.65-1.51,1.14-2.62,1.62-3.74c2.05-0.05,4.11-0.1,6.16-0.15c8.19,0.94,16.36,2.03,24.56,2.76
		c4.63,0.41,9.31,0.3,13.96,0.29c3.79-0.01,5.35,1.49,3.84,5.23C658.15,560.01,656.32,564.28,654.54,568.57z"/>
	<path class="st0" d="M313.52,187.38c-0.08,0.23-0.12,0.48-0.11,0.72c-4.07-6.32-8.18-12.62-12.2-18.97
		c-2.09-3.29-4.04-6.68-6.53-10.84c7.8-3.37,15.22-6.57,22.63-9.77c-1.17,1.36-2.08,3.18-3.55,3.98c-3.54,1.93-7.41,3.25-10.99,5.11
		c-1.32,0.69-2.21,2.23-3.29,3.38c1.05,0.84,2.41,1.48,3.08,2.55c1.14,1.81,1.86,3.9,2.75,5.87c1.56,3.25,3.17,6.48,4.68,9.75
		C311.23,181.88,312.35,184.64,313.52,187.38z"/>
	<path class="st0" d="M405.32,125.38c-0.7-0.34-1.39-0.68-2.09-1.02c3.17-0.59,6.33-1.66,9.51-1.7c19.03-0.24,38.06-0.46,57.08-0.23
		c7.17,0.09,14.33,1.4,21.49,2.15c-0.83,0.37-1.69,1.1-2.5,1.06c-12.75-0.69-25.49-1.71-38.25-2.16
		c-10.1-0.36-20.24-0.26-30.35,0.04C415.24,123.66,410.29,124.73,405.32,125.38z"/>
	<path class="st0" d="M408.36,692.34c1.74-0.28,3.48-0.8,5.22-0.81c13.92-0.06,27.85,0.19,41.77-0.1c6.8-0.14,13.58-1.32,20.38-1.83
		c1.52-0.12,3.1,0.57,4.66,0.88c-3.63,0.7-7.24,1.82-10.9,2.01c-10.93,0.57-21.87,0.89-32.81,1.1c-7.87,0.15-15.74,0.03-23.61-0.12
		C411.49,693.44,409.93,692.73,408.36,692.34z"/>
	<path class="st0" d="M550.91,139.29c-4.87,0.61-9.12-0.83-13.68-2.71c-6.17-2.54-12.96-3.57-19.5-5.19
		c-4.98-1.23-9.99-2.28-14.96-3.54c-2.48-0.63-4.9-1.54-7.34-2.32c10.3,1.83,20.67,3.36,30.89,5.58c6.5,1.41,12.8,3.79,19.16,5.84
		C547.35,137.55,549.11,138.5,550.91,139.29z"/>
	<path class="st0" d="M151.33,426.46c0.18,5.7,0.41,11.4,0.47,17.1c0.01,0.62-0.95,1.25-1.46,1.87c-0.28-0.68-0.56-1.36-0.85-2.04
		c-0.46-10.63-0.93-21.27-1.39-31.9c0.01-1.68,0.03-3.36,0.04-5.04c0.33-5,0.67-10,1-15c0.46-1.67,0.92-3.33,1.38-5
		c0.27,3.23,0.72,6.46,0.77,9.69c0.11,8.1,0.03,16.21,0.03,24.31c0,1.01,0,2.01,0,3.02C151.33,424.47,151.33,425.47,151.33,426.46z"
		/>
	<path class="st0" d="M281.2,180.44c-1.4-1-3.66-1.75-4.03-3.04c-1.1-3.89-3.61-2.72-5.25-1.44c-7.68,5.96-15.13,12.22-22.67,18.37
		c-1.29,1.05-2.62,2.06-3.93,3.09h-0.47l-0.47-0.01c-0.24-0.3-0.49-0.61-0.73-0.91c9.32-7.67,18.58-15.4,27.98-22.97
		c2.37-1.91,4.89-1.99,6.54,1.29C279.12,176.71,280.18,178.57,281.2,180.44z"/>
	<path class="st0" d="M237.35,515.47c1.55-0.42,3.09-0.85,4.64-1.26c-7.63,5.08-15.16,10.32-22.94,15.17
		c-5.75,3.59-11.81,6.66-17.74,9.96c4.65-3.28,9.28-6.58,13.95-9.84c6.69-4.68,13.4-9.33,20.11-13.99
		C236.03,515.5,236.69,515.49,237.35,515.47z"/>
	<path class="st0" d="M579.33,207.92c-0.3-1.48-0.6-2.95-0.9-4.42c3.54,0.19,6.29-0.72,9.39-3.07c5.49-4.17,11.95-7.07,18.06-10.4
		c0.55-0.3,1.53,0.19,2.31,0.31C598.56,196.2,588.94,202.06,579.33,207.92z"/>
	<path class="st0" d="M465.37,596.6c-1.71,0.96-3.41,2.72-5.13,2.75c-13.12,0.23-26.25,0.2-39.38,0c-1.2-0.02-2.37-1.79-3.55-2.74
		c7.35,0.61,14.7,1.75,22.04,1.71C448.02,598.28,456.7,597.22,465.37,596.6z"/>
	<path class="st0" d="M361.36,238.33c0.2-0.78,0.19-2.09,0.63-2.26c5.94-2.3,11.87-4.67,17.95-6.55c3.67-1.13,7.59-1.45,11.4-2.13
		c1,0.3,2,0.61,3,0.92C383.35,231.64,372.36,234.98,361.36,238.33z"/>
	<path class="st0" d="M617.4,184.28c1.76-4.11,0.1-6.24-3.82-7.9c-1.78-0.76-2.84-3.21-4.23-4.9c-0.32-0.64-0.64-1.28-0.96-1.92
		c5.2,3.56,10.4,7.11,16.99,11.62C621.85,182.56,619.62,183.42,617.4,184.28z"/>
	<path class="st0" d="M606.16,665.64c3.56-0.07,4.97,1.9,5.28,5.22c0.09,0.89,1.12,1.7,1.72,2.54c0.75-0.69,1.8-1.24,2.2-2.1
		c0.87-1.89,1.21-4.04,2.15-5.89c0.58-1.15,1.85-1.95,2.8-2.9c-1.72,5.65-3.44,11.31-5.16,16.96c-0.66-0.01-1.31-0.02-1.97-0.03
		C610.84,674.84,608.5,670.24,606.16,665.64z"/>
	<path class="st0" d="M553.4,540.31c-2.79-0.24-5.58-0.48-8.37-0.72c-6.18-0.58-12.36-1.15-18.54-1.73
		c0.61-0.72,1.24-2.08,1.83-2.06c6.05,0.24,12.08,0.67,18.12,1.11c1.31,0.09,2.74,0.1,3.86,0.66
		C551.49,538.17,552.38,539.38,553.4,540.31z"/>
	<path class="st0" d="M417.41,596.41c-8.61,0.05-17.03-0.86-24.78-5.04c7.4,0.74,14.81,1.39,22.18,2.34
		C415.78,593.83,416.55,595.47,417.41,596.41z"/>
	<path class="st0" d="M572.95,149.43c-7.95-1.69-15.91-3.39-21.58-10.01C558.56,142.76,565.75,146.09,572.95,149.43z"/>
	<path class="st0" d="M157.23,467.55c0.01,5,0.02,10,0.02,15c-0.99-3.17-2.28-6.27-2.9-9.51c-0.91-4.75-1.35-9.6-1.99-14.4
		C153.98,461.61,155.6,464.58,157.23,467.55z"/>
	<path class="st0" d="M249.27,376.43c-0.64,16.79-1.27,33.58-1.94,50.37c-0.02,0.59-0.51,1.16-0.79,1.75
		c-0.1-0.38-0.21-0.76-0.31-1.14c-0.09-10.62-0.17-21.25-0.26-31.87C247.07,389.16,248.17,382.8,249.27,376.43z"/>
	<path class="st0" d="M526.49,537.86c6.18,0.58,12.36,1.15,18.54,1.73c-3.45-0.03-6.9-0.05-10.35-0.08
		c-2.81-0.03-4.11,0.76-2.53,3.82c0.75,1.46,0.89,3.23,1.3,4.86C531.13,544.75,528.81,541.31,526.49,537.86z"/>
	<path class="st0" d="M608.39,169.57c0.32,0.64,0.64,1.28,0.96,1.92c-2.65-1.35-5.31-2.71-7.96-4.07l-0.01-0.01
		c-1.33-0.67-2.66-1.33-3.99-2c-1.97-2.09-3.94-4.19-5.91-6.28C597.12,162.61,602.75,166.09,608.39,169.57z"/>
	<path class="st0" d="M249.27,376.43c-1.1,6.37-2.2,12.74-3.3,19.1c-0.18-0.03-0.36-0.02-0.54,0.03l-0.17-0.16
		c0.03-5.33-0.42-10.72,0.26-15.96c0.53-4.09,2.46-8,3.77-11.99c0.28,0.98,0.56,1.96,0.84,2.94
		C249.85,372.4,249.56,374.41,249.27,376.43z"/>
	<path class="st0" d="M163.53,507.32c1.91,3.67,3.96,7.28,5.69,11.04c1.01,2.21,1.5,4.65,2.23,6.99
		C166.77,520.23,162.24,515.05,163.53,507.32z"/>
	<path class="st0" d="M148.1,411.49c0.46,10.63,0.93,21.27,1.39,31.9c-0.69-0.56-1.99-1.13-1.98-1.68
		C147.61,431.64,147.88,421.56,148.1,411.49z"/>
	<path class="st0" d="M545.44,229.12c3.37-2.57,6.75-5.12,10.1-7.73c0.69-0.54,1.23-1.29,1.84-1.94c1.27-0.03,2.54-0.07,3.81-0.1
		C555.93,222.61,550.69,225.87,545.44,229.12z"/>
	<path class="st0" d="M297.44,213.38c-0.03-1.31-0.07-2.62-0.1-3.93c-0.02-0.61-0.04-1.21-0.06-1.82c2.76,4.56,5.51,9.12,8.27,13.68
		c-2.07-2.29-4.14-4.57-6.2-6.86c-0.34-0.35-0.68-0.7-1.02-1.05C298.03,213.39,297.73,213.38,297.44,213.38z"/>
	<path class="st0" d="M540.37,557.5c0.69,1.67,1.38,3.34,2.06,5.01c-2.38-3.05-4.88-6.02-7.09-9.2c-0.73-1.05-0.71-2.62-1.04-3.95
		C538.59,550.39,538.73,554.5,540.37,557.5l-0.4,0.21l0.17,0.18L540.37,557.5z"/>
	<path class="st0" d="M617.52,547.43c-2.05,0.05-4.11,0.1-6.16,0.15c-3.63-0.03-7.31,0.23-10.89-0.23c-1.8-0.23-3.42-1.79-5.12-2.75
		C602.74,545.54,610.13,546.48,617.52,547.43z"/>
	<path class="st0" d="M297.28,207.64c0.02,0.6,0.04,1.21,0.06,1.82c-1.29-1.69-2.44-3.52-3.91-5.03c-1.16-1.19-2.71-2.01-4.08-2.99
		l0.01,0.01c0.01-1.34,0.01-2.67,0.02-4.01c0.04-1.1,0.09-2.21,0.13-3.31C292.09,198.62,294.68,203.13,297.28,207.64z"/>
	<path class="st0" d="M243.64,196.49c0.24,0.3,0.49,0.61,0.73,0.91c-2.78,4.62-6.47,8.19-11.61,10.09
		C236.38,203.82,240.01,200.16,243.64,196.49z"/>
	<path class="st0" d="M289.13,193.41c-1.26-0.99-2.75-1.8-3.73-3.01c-1.16-1.43-2.05-3.14-2.77-4.85c-0.66-1.56-0.92-3.28-1.36-4.93
		C283.89,184.88,286.51,189.15,289.13,193.41z"/>
	<path class="st0" d="M149.15,391.46c-0.33,5-0.67,10-1,15C147.36,401.38,145.66,396.24,149.15,391.46z"/>
	<path class="st0" d="M569.46,213.74c3.14-1.79,6.28-3.59,9.42-5.38C575.73,210.15,572.59,211.95,569.46,213.74z"/>
	<path class="st0" d="M395.36,228.36c0.95-0.97,1.8-2.63,2.87-2.78c2.71-0.39,5.51-0.12,8.27-0.11
		C402.79,226.44,399.08,227.4,395.36,228.36z"/>
	<path class="st0" d="M340.44,570.31c-0.52,0.36-1.38,1.13-1.5,1.03c-2.39-2.03-4.69-4.17-7-6.29
		C334.78,566.8,337.61,568.55,340.44,570.31z"/>
	<path class="st0" d="M336.33,225.44c5.82,1.51,6.62,2.69,4.03,5.96C339.02,229.42,337.68,227.43,336.33,225.44z"/>
	<path class="st0" d="M162.34,499.49c0.39,2.6,0.78,5.2,1.17,7.81c-2.92-2.74-4.08-6.02-3.01-9.97
		C161.11,498.05,161.73,498.77,162.34,499.49z"/>
	<path class="st0" d="M215.23,227.37c0.04,1.35,0.07,2.7,0.11,4.04l-0.03,0.03c-0.66,0.65-1.32,1.31-1.98,1.96l-0.03,0.03
		c-0.65,0.66-1.31,1.31-1.96,1.97l-0.05,0.04c-0.71-0.03-1.42-0.07-2.13-0.1C211.19,232.68,213.21,230.02,215.23,227.37z"/>
	<path class="st0" d="M296.44,281.53c-0.02-3.62,1.81-5.38,5.4-5.39C300.04,277.94,298.24,279.73,296.44,281.53z"/>
	<path class="st0" d="M246.24,427.4c0.1,0.38,0.21,0.76,0.31,1.14c0.23,2.96,0.46,5.93,0.7,8.89c-0.64-3.31-1.29-6.62-1.93-9.94
		l0.12-0.11l0.4,0.03L246.24,427.4z"/>
	<path class="st0" d="M302.06,275.95c-0.22-3.94,2.14-4.72,5.39-4.41C305.66,273.01,303.86,274.48,302.06,275.95z"/>
	<path class="st0" d="M459.36,224.28c0.32-0.83,0.63-1.66,0.95-2.49c1.02,0.83,2.04,1.66,3.06,2.49
		C462.03,224.28,460.7,224.28,459.36,224.28z"/>
	<path class="st0" d="M209.17,235.34c0.71,0.03,1.42,0.07,2.13,0.1c-1.05,0.64-2.11,1.27-3.16,1.91
		C208.48,236.68,208.83,236.01,209.17,235.34z"/>
	<path class="st0" d="M216.79,225.23c-0.51,0.7-1.03,1.39-1.54,2.09C215.76,226.62,216.27,225.92,216.79,225.23z"/>
	<path class="st0" d="M296.17,282.43c-0.37-0.21-0.74-0.42-1.11-0.63c0.45-0.09,0.91-0.17,1.36-0.26
		C296.41,281.86,296.32,282.15,296.17,282.43z"/>
	<path class="st0" d="M307.45,271.55c0.46-0.56,0.91-1.11,1.37-1.66C308.36,270.44,307.91,271,307.45,271.55z"/>
	<path class="st0" d="M171.47,525.39c0.26,0.37,0.53,0.74,0.79,1.12C171.99,526.13,171.73,525.76,171.47,525.39z"/>
	<path class="st0" d="M597.38,165.41c1.33,0.67,2.66,1.33,3.99,2C600.04,166.74,598.71,166.08,597.38,165.41z"/>
	<path class="st0" d="M245.31,427.49c-0.65-1.35-1.31-2.7-1.96-4.05c0-7.88-0.09-15.76,0.09-23.63c0.04-1.48,1.19-2.94,1.82-4.41
		l0.17,0.16c0,10.61-0.01,21.22-0.01,31.83L245.31,427.49z"/>
	<path class="st0" d="M151.33,426.46c0-0.99,0-1.99,0-2.98c0.61,0.58,1.22,1.15,1.82,1.73
		C152.54,425.63,151.93,426.04,151.33,426.46z"/>
	<path class="st0" d="M318.37,188.41c0.24,0.36,0.49,0.71,0.71,1.08c0,0.01-0.23,0.16-0.35,0.25c-0.14-0.43-0.27-0.85-0.41-1.28
		C318.32,188.45,318.37,188.41,318.37,188.41z"/>
	<path class="st0" d="M219.68,568.57c-1.12-1.55-2.32-2.87-2.17-3.05c1.45-1.72,3.07-3.33,4.85-4.69c0.2-0.16,1.73,1.42,2.64,2.19
		C223.4,564.68,221.81,566.34,219.68,568.57z"/>
	<path class="st0" d="M325.34,563.5c-1.91-0.68-3.81-1.35-5.72-2.03c0.26-0.58,0.53-1.16,0.79-1.73
		C323.09,559.17,324.31,561.17,325.34,563.5L325.34,563.5z"/>
	<path class="st0" d="M211.35,235.4c0.65-0.66,1.31-1.31,1.96-1.97C212.65,234.09,212,234.74,211.35,235.4z"/>
	<path class="st0" d="M213.33,233.4c0.66-0.65,1.32-1.31,1.98-1.96C214.65,232.09,213.99,232.75,213.33,233.4z"/>
	<path class="st0" d="M237.35,515.47c-0.66,0.01-1.32,0.03-1.98,0.04c-4.18-2.47-7.81-0.84-11.21,1.74
		c-2.37-3.66,2.77-8.85,7.37-7.65c2.14,0.56,4.13,1.74,6.38,2.72C237.75,513.24,237.55,514.36,237.35,515.47z"/>
	<path class="st0" d="M298.32,213.4c0.34,0.35,0.68,0.7,1.02,1.05C299,214.1,298.66,213.75,298.32,213.4z"/>
	<path class="st0" d="M289.34,201.42c-0.33,0.54-0.66,1.08-1,1.62c-0.19-0.21-0.39-0.43-0.58-0.64
		C288.29,202.08,288.82,201.75,289.34,201.42C289.35,201.43,289.34,201.42,289.34,201.42z"/>
	<path class="st0" d="M245.43,427.39c0-10.61,0-21.22,0.01-31.83c0.18-0.05,0.36-0.06,0.54-0.02c0.09,10.63,0.17,21.25,0.26,31.87
		l-0.41,0.01L245.43,427.39z"/>
	<polygon class="st0" points="540.37,557.5 540.15,557.89 539.97,557.71 	"/>
</g>
</svg>
