<?xml version="1.0" encoding="utf-8"?>
<!-- Generator: Adobe Illustrator 25.4.1, SVG Export Plug-In . SVG Version: 6.00 Build 0)  -->
<svg version="1.1" id="Capa_1" xmlns="http://www.w3.org/2000/svg" xmlns:xlink="http://www.w3.org/1999/xlink" x="0px" y="0px"
	 viewBox="0 0 2500 2500" style="enable-background:new 0 0 2500 2500;" xml:space="preserve">
<style type="text/css">
	.st0{fill-rule:evenodd;clip-rule:evenodd;fill:#005944;}
	.st1{fill:none;}
	.st2{fill:#005944;}
</style>
<g>
	<path class="st0" d="M1664.4,2168c-3.4,29-12,59.3-20.5,94.9c47.8,15.8,93.8,22.4,134.8,22.4c116,0,209.9-60.6,209.9-180.6
		c0-30.3-6.8-59.3-34.1-89.6c-6.8-7.9-15.4-19.8-98.9-61.9c-17.1-7.9-30.7-14.5-42.7-19.8c-25.6-13.2-44.4-22.4-58-34.3
		c-27.3-23.7-37.5-44.8-37.5-68.5c0-43.5,34.1-84.4,98.9-84.4c51.2,0,88.7,30.3,110.9,71.2h8.5c5.1-29,12-51.4,20.5-75.1
		c-44.4-29-93.8-43.5-138.2-43.5c-83.6,0-145,39.5-170.6,102.8c-9,22.2-13.6,45.9-13.7,69.9c0,39.5,12,73.8,41,106.8
		c22.2,25.1,68.2,47.5,105.8,64.6c5.1,1.3,8.5,4,11.9,5.3l13.7,5.3c30.7,11.9,99,38.2,99,100.2c0,47.5-39.3,92.3-110.9,92.3
		c-54.6,0-97.2-32.9-121.1-76.4L1664.4,2168L1664.4,2168z M512.6,2286.6H607c-13.3,0-22.6-589.8-4-587.2l-94.5-1.3
		C525.9,1696.8,528.5,2286.6,512.6,2286.6z"/>
	<path class="st0" d="M656.7,2286.1l58.5,1.3l33.3-393.2l8-93.8l149,486.9h71.9l149-471.3l30.6,470l109.1,1.3h6.7l-61.2-589.8h-97.1
		l-141.1,410.1l-17.3,53.4l-9.3-33.9l-130.4-429.6h-77.2c-4,0-42.6,374.9-78.5,567.6L656.7,2286.1L656.7,2286.1z"/>
	<path class="st0" d="M1025.2,1002.2l-4.6,13.9c-9.3,32.5,0,69.5,9.3,106.6c4.6,13.9,4.6,32.4,4.6,46.4
		c-4.6,23.2-18.6,37.1-18.6,60.3c9.3,4.6,9.3-13.9,13.9-23.2c23.2-51,111.3-46.4,153.1-64.9c13.9-4.6,32.5-23.2,27.8-37.1
		c0-4.6-13.9,13.9-23.2,18.5c-9.3,4.6-23.2,4.6-37.1,4.6c-41.7,0-78.8-23.2-92.8-60.3c-9.3-18.5-4.6-46.4,13.9-60.3
		c92.8-69.5,199.4,88.1,218,194.7c9.3,37.1,4.6,78.8-9.3,115.9c-9.3,27.8-32.5,46.3-60.3,51c-32.5,4.6-69.6,9.3-97.4-9.3
		c-4.6-4.6,9.3-9.3,9.3-23.2c0-13.9-23.2-18.5-23.2-18.5s0-27.8-23.2-41.7c-32.5-18.5-74.2-13.9-97.4,13.9
		c-18.6,27.8-18.6,64.9,4.6,78.8c27.8,18.5,60.3,13.9,92.8,9.3c13.9,0,23.2,9.3,41.7,9.3c18.6,0-27.8,18.5-37.1,18.5
		c-27.8,4.6-64.9,4.6-92.8-9.3c-9.3-4.6,18.5,51,69.6,64.9c60.3,18.6,120.6,18.6,162.3,13.9c92.8-9.3,139.2-129.8,134.5-222.5
		c-4.6-115.9-65-241.1-176.3-282.8C1131.8,946.6,1053,946.6,1025.2,1002.2L1025.2,1002.2z M1316.2,2168c-3.4,29-12,59.3-20.5,95
		c47.8,15.8,93.8,22.4,134.8,22.4c116,0,209.9-60.7,209.9-180.7c0-30.3-6.8-59.3-34.1-89.7c-6.8-7.9-15.4-19.8-98.9-62
		c-17.1-7.9-30.7-14.5-42.7-19.8c-25.6-13.2-44.4-22.4-58-34.3c-27.3-23.7-37.5-44.8-37.5-68.6c0-43.5,34.1-84.4,98.9-84.4
		c51.2,0,88.7,30.3,110.9,71.2h8.5c5.1-29,12-51.5,20.5-75.2c-44.4-29-93.8-43.5-138.2-43.5c-83.6,0-145,39.6-170.6,102.9
		c-9,22.2-13.6,45.9-13.6,69.9c0,39.6,11.9,73.8,40.9,106.8c22.2,25.1,68.2,47.5,105.8,64.6c5.1,1.3,8.5,4,12,5.3l13.6,5.3
		c30.7,11.9,99,38.2,99,100.2c0,47.5-39.2,92.3-110.9,92.3c-54.6,0-97.2-33-121.1-76.5L1316.2,2168L1316.2,2168z"/>
	<g>
		<path class="st1" d="M1776.3,311.4c-134.5-74.2-269,88.1-389.6,176.2L1182.6,636c-78.8,46.4-167,88.1-259.7,97.4
			c41.7-18.6,148.4-83.5,176.2-106.6c32.5-27.8,9.3-13.9-9.3-13.9c-125.2,4.6-296.8-32.5-375.7,69.5l69.6,4.6
			c-4.6,13.9-13.9,27.8-27.8,37.1c-18.6,13.9-60.3-32.5-74.2-27.8c-9.3,4.6-18.5,4.6-55.7,32.4c-23.2,13.9,9.3,69.5,13.9,64.9
			c13.9-13.9,41.7-18.5,60.3-18.5c245.8-18.5,491.6,27.8,663.3,194.7c120.6,120.5,180.9,310.6,120.6,468.2
			c-13.9,41.7-83.5,97.4-88.1,102c-18.5,13.9,64.9,0,88.1-4.6c231.9-55.6,278.3-357,338.6-593.4c46.4-176.2,78.8-357,27.8-528.5
			C1836.6,371.7,1813.4,330,1776.3,311.4z M1558.7,1275.7c0,9.3-4.6,18.5-13.9,13.9c4.6-185.4-120.6-361.6-213.3-537.8
			c-18.5-32.4-27.8-78.8-4.6-106.6l23.2-27.8h0c46.4-51,106.7-97.3,176.2-120.5c-69.6,46.4-120.6,125.2-102,208.6
			c37.1,157.6,139.1,301.3,143.8,468.2C1568,1206.2,1563.4,1247.9,1558.7,1275.7z"/>
		<path class="st1" d="M765.6,580c125.2-37.1,250.4,4.6,380.3-32.4c9.3-4.6-180.9-199.3-310.8-245.7c-46.4-13.9-97.4-9.3-139.1,18.5
			c-27.8,18.5-41.7,51-51,83.4c-18.5,64.9-23.2,157.6,9.3,231.8C658.9,644.9,705.3,598.6,765.6,580z"/>
		<path class="st1" d="M1428.7,1247.6c-27.8-148.3-129.9-319.9-287.6-319.9c-41.7,0-64.9-9.3-120.6,27.8c-4.6,4.6-4.6-78.8-78.9-102
			c-83.5-23.2-167-18.5-250.5,0c32.5,194.7,46.4,403.3,171.6,556.3l46.4,55.6h0c27.8,32.5,74.2,55.6,111.3,60.3
			c143.8,9.3,324.6,23.2,394.2-102C1442.6,1372.7,1437.9,1307.8,1428.7,1247.6z"/>
		<path class="st2" d="M1988.1,431.3c-8.1-110.9-90.5-193.9-201.6-201.4c-379.5-25.9-707.3-20-1076.2,0
			c-111.4,6.1-195.1,90.4-201.6,201.4c-19.2,327.3-19.2,644.9,0,980c6.4,111,90.5,194.8,201.6,201.5c356.8,21.6,711.6,21.6,1076.2,0
			c111.2-6.6,193.8-90.6,201.6-201.5C2011.6,1077.7,2011.6,754.2,1988.1,431.3z M645,403.9c9.3-32.4,23.2-64.9,51-83.4
			c41.7-27.8,92.8-32.4,139.1-18.5c129.9,46.4,320,241.1,310.8,245.7C1016,584.7,890.8,543,765.6,580
			c-60.3,18.5-106.7,64.9-111.3,55.6C621.8,561.5,626.4,468.8,645,403.9z M1020.5,1525.7c-37.1-4.6-83.5-27.8-111.3-60.3h0
			l-46.4-55.6c-125.2-153-139.1-361.6-171.6-556.3c83.5-18.5,167-23.2,250.5,0c74.2,23.2,74.2,106.6,78.9,102
			c55.7-37.1,78.9-27.8,120.6-27.8c157.7,0,259.7,171.5,287.6,319.9c9.3,60.3,13.9,125.2-13.9,176.2
			C1345.2,1548.9,1164.3,1535,1020.5,1525.7z M1822.7,941.9c-60.3,236.4-106.7,537.7-338.6,593.4c-23.2,4.6-106.7,18.5-88.1,4.6
			c4.6-4.6,74.2-60.3,88.1-102c60.3-157.6,0-347.7-120.6-468.2C1191.9,802.9,946.1,756.5,700.2,775c-18.5,0-46.4,4.6-60.3,18.5
			c-4.6,4.6-37.1-51-13.9-64.9c37.1-27.8,46.4-27.8,55.7-32.4c13.9-4.6,55.7,41.7,74.2,27.8c13.9-9.3,23.2-23.2,27.8-37.1l-69.6-4.6
			c78.9-102,250.5-64.9,375.7-69.5c18.5,0,41.7-13.9,9.3,13.9c-27.8,23.2-134.5,88.1-176.2,106.6c92.7-9.3,180.9-51,259.7-97.4
			l204.1-148.3c120.6-88.1,255.1-250.3,389.6-176.2c37.1,18.5,60.3,60.3,74.2,102C1901.5,585,1869,765.8,1822.7,941.9z"/>
		<path class="st2" d="M1526.3,496.9c-69.6,23.2-129.9,69.5-176.2,120.5h0l-23.2,27.8c-23.2,27.8-13.9,74.2,4.6,106.6
			c92.8,176.2,218,352.3,213.3,537.8c9.3,4.6,13.9-4.6,13.9-13.9c4.6-27.8,9.3-69.5,9.3-102c-4.6-166.9-106.7-310.6-143.8-468.2
			C1405.7,622.1,1456.7,543.3,1526.3,496.9z"/>
	</g>
</g>
</svg>
