<?xml version="1.0" encoding="utf-8"?>
<!-- Generator: Adobe Illustrator 25.4.1, SVG Export Plug-In . SVG Version: 6.00 Build 0)  -->
<svg version="1.1" id="Capa_1" xmlns="http://www.w3.org/2000/svg" xmlns:xlink="http://www.w3.org/1999/xlink" x="0px" y="0px"
	 viewBox="0 0 7.2 10.7" style="enable-background:new 0 0 7.2 10.7;" xml:space="preserve">
<style type="text/css">
	.st0{fill-rule:evenodd;clip-rule:evenodd;fill:#7B003A;}
</style>
<g>
	<path class="st0" d="M5.5,9.6C5.5,9.6,5.5,9.6,5.5,9.6c0,0.2-0.2,0.2-0.4,0.2c-0.2,0-0.4-0.1-0.4-0.2c0-0.2,0.4-0.2,0.4-0.2
		C5.2,9.4,5.3,9.5,5.5,9.6L5.4,9.4c0,0-0.1,0-0.1,0c-0.2,0-0.5,0-0.6,0.1c0,0,0,0,0,0C4.5,9.6,4.5,9.7,4.5,9.7c0,0,0.1,0.1,0.1,0.1
		v0c0,0,0,0,0,0c0,0,0,0,0,0v0C4.9,10,5.1,10,5.2,9.9c0.2,0,0.4-0.1,0.4-0.3c0-0.1-0.1-0.2-0.2-0.2C5.5,9.5,5.5,9.5,5.5,9.6L5.5,9.6
		L5.5,9.6z M2.8,5.9v0.3c0,0,0.1,0,0.1,0c0,0,0.1,0,0.1,0l0-0.3L2.8,5.9L2.8,5.9L2.8,5.9z M2.8,6.1V5.9c0,0-0.2,0.2-0.2,0.3
		c0,0.2,0.2,0.4,0.2,0.4c0.2,0.1,1,0.3,1,0.6c0.1,0.6-0.5,0.9-0.9,0.9l0,0.3c0,0,0.1,0.3,0.5,0.4c0.2,0.1,0.4,0,0.5,0
		c0.1,0,0.2-0.1,0.3-0.2c0,0,0-0.1,0-0.1c0-0.2-0.2-0.7-0.3-1c0-0.2,0-0.3,0-0.4C3.8,6.9,3.8,6.8,3.6,6.7C3.3,6.5,2.8,6.4,2.7,6.3
		C2.7,6.2,2.7,6.1,2.8,6.1L2.8,6.1L2.8,6.1z M4.2,4.7c0,0,0.1,0.1,0.1,0.1C4.6,4.9,4.8,5,5,5.1c0-0.5-0.1-1-0.3-1.5L4.2,4.7L4.2,4.7
		L4.2,4.7z M4.2,8.7C4.1,8.8,4,8.8,3.9,8.9l0,0c-0.6,0.2-1-0.4-1-0.4c0-0.1,0-0.3,0-0.3c0,0,0,0-0.1,0c0,0,0,0.3,0,0.3
		c0.1,0.2,0.1,0.2,0.4,0.4C3.3,8.9,3.6,9,3.9,8.9c0,0,0,0,0,0C4,8.9,4,8.8,4.1,8.8C4.1,8.8,4.2,8.7,4.2,8.7L4.2,8.7L4.2,8.7z
		 M5.2,9.4c0,0,0.1,0,0.1,0l0,0v0h0V8.8h0v0H5.1L5.2,9.4L5.2,9.4L5.2,9.4z M5.5,9.4C5.5,9.5,5.6,9.5,5.5,9.4h0.2H5.5L5.5,9.4
		L5.5,9.4z M5.7,9.6C5.7,9.6,5.7,9.7,5.7,9.6c0,0.2-0.2,0.4-0.5,0.4l-0.2,0.2H4.6l0,0.2l-0.1,0.2l-0.7,0l0-0.1l-0.7,0l0-0.1l-0.4,0
		l-0.2-0.1l0-0.2l0-0.2L2,9.8L1.9,9.7l0,0V9.4l0.1-0.2l-0.3,0C1.6,9.3,1.4,9.4,1.2,9.4C0.7,9.4,0.7,9.1,0.7,9c0-0.1,0.2-0.1,0.2-0.1
		V6.1l0.3-0.4l0.1,0l0.3,0.4v2.2l0.1,0c0-0.1-0.1-0.2-0.1-0.3L1.2,8.3l0,0l0,0l0.2,0V6.2L1.2,5.8L1,6.1v2.7c0.1,0,0.3,0,0.4,0l0-0.1
		l0.2-0.3l-0.1,0c0,0,0,0.4,0,0.5c0,0,0,0-0.1,0V8.4l-0.3,0l0,0l0,0l0,0L1,8.2l0,0l0,0l0-0.2l0.3-0.3c0,0,0,0,0-0.1l-0.5,0l0-0.1
		l0,0l0-0.2l0.1-0.1l0.3-0.3c0-0.1,0-0.1,0-0.2L0.9,6.4l0,0l-0.1,0V6.1L0.8,6L1,6l0.2-0.2c0,0,0-0.1,0-0.1l-0.4,0
		c0,0,0.1-0.1,0.3-0.2L0.9,5.4L0.8,5.3l0-0.3l0.1,0l0.3,0c0-0.1,0-0.2,0-0.3v0.6c0,0,0,0,0.1,0V4.9l0.2,0v0.3c0,0,0,0,0.1,0V4.9
		l0.2,0V5c0,0,0,0,0.1,0V4.8l0.3,0v0.1c0,0,0,0,0.1,0v0l0.2,0c0.1,0,0.3-0.1,0.4-0.1V4.4c0,0-0.1,0-0.1-0.1c0-0.1,0-0.1,0-0.2
		c0,0-0.1-0.1-0.1-0.1V3.7l0.2-0.1l0.1,0.2l0.1,0L2.9,3.7l0.1,0l0.3,0.8c0.1,0,0.2,0,0.3,0l0-0.1c-0.1,0-0.2,0-0.3,0L3.1,3.6l0.1,0
		l0.1,0.2L4,3.6l0.1-0.2l0.2-0.1L3.8,4.7c0,0,0.1,0,0.1,0l0.5-1.4l0.1,0c0,0.1,0,0.2,0,0.3L4,4.8c0,0,0.1,0,0.1,0l0.5-1.3
		c0-0.1,0-0.2,0-0.3l1-0.2l0.3,0.2l0.4-0.1L5.8,2.8L2.6,3.6V3.3l0.1,0V3.1L2.5,3.1V3L2.7,3V2.3L2.5,2.1V2.1l0.2,0.1V1.5l0,0V1.5
		L2.5,1.3V1.2l0.2,0.1V0.7L2.5,0.6v0.7L2.2,1.4V0.6l0.3-0.2L3.4,1v0.6l0.1,0V1.2L4.1,1l0.5,0.3v0.9c0,0.2-0.2,0.3-0.5,0.4V3l0.5-0.1
		V0.8L5,0.6l0.4,0.2V0.5l0.4-0.1v0l0.4,0.2v2.1l0.2,0.2v0.3L5.9,3.3l0.6,0.3l0,0.3l0,0.1L6.1,4.3l0,0l0,0l0.5,0.2V5L6.2,5.2v0.3
		l0.4,0.2V6L6.2,6.1l0,0.3l0.4,0.3l0,0.4L6.1,7L6.1,7.2l0.3,0.4l0,0.3L6.4,8L5.9,8l0,0.1l0.3,0.5v0.1L6.1,8.9H5.6l0.2,0.5v0.1
		L5.7,9.6L5.7,9.6L5.7,9.6z M5,10c-0.1,0-0.2,0-0.3-0.1l0,0.1l-0.1,0.1h0.3L5,10L5,10L5,10z M4.6,9.5c0,0,0.1-0.1,0.1-0.1V5.9
		l0.1-0.1h0l0.1-0.1h0L5,5.3l0.1,0l0.3,0.6v1.8h0v0L5.8,8h0V8H5.5v0h0v0.7H5.4V5.9L5.1,5.4L4.9,5.7l0,0L4.9,5.8l0,0L4.8,5.9l0,3.1
		v0.1v0.1l-0.1,0C4.7,9.4,4.6,9.4,4.6,9.5L4.6,9.5L4.6,9.5L4.6,9.5z M5.1,9.6H4.8c0-0.1,0.2-0.1,0.3-0.1c0.2,0,0.3,0.1,0.3,0.1
		c0,0.1-0.1,0.1-0.3,0.1c-0.2,0-0.3-0.1-0.3-0.1L5.1,9.6L5.1,9.6L5.1,9.6L5.1,9.6z M5.5,9.4L5.5,9.4l0-0.5h0v0h0l0,0l0,0l0.2,0.5
		H5.5L5.5,9.4L5.5,9.4L5.5,9.4z M5.4,8.8L5.4,8.8L5.2,8.5c0,0.1-0.1,0.2-0.1,0.3H5.4L5.4,8.8L5.4,8.8z M4.9,5.8L5,5.7l0,0
		c0,0,0,0.1,0,0.1L4.9,5.8L4.9,5.8L4.9,5.8z M4.8,5.7L4.7,5.8L3.9,5.9c0,0.1,0,0.2-0.1,0.3l0.7,2.1c0,0,0,0,0,0c0,0,0,0,0,0
		c0,0-0.1,0-0.1,0l-0.7-2c0,0.1-0.1,0.2-0.1,0.2c0,0-0.1-0.1-0.1-0.1c0.2-0.2,0.3-0.6,0.2-1l0.2,0c0,0.1,0,0.2,0,0.4L4.8,5.7
		L4.8,5.7L4.8,5.7z M1.2,8.9c-0.1,0-0.3,0-0.3,0.1c0,0.1,0.1,0.2,0.3,0.2c0.1,0,0.3,0,0.3-0.1C1.5,9,1.4,9,1.4,8.9l0,0
		C1.3,8.9,1.3,8.9,1.2,8.9L1.2,8.9L1.2,8.9z M1.6,9.2L1.6,9.2C1.6,9.2,1.5,9.2,1.6,9.2C1.5,9.3,1.5,9.3,1.6,9.2L1.6,9.2
		C1.4,9.3,1.3,9.3,1.2,9.3C0.9,9.3,0.7,9.1,0.8,9c0.1-0.1,0.3-0.1,0.5-0.1c0,0,0.1,0,0.1,0v0c0.1,0,0.2,0,0.2,0.1c0,0,0,0,0,0
		c0,0,0,0,0,0C1.6,9.1,1.6,9.2,1.6,9.2L1.6,9.2L1.6,9.2z M0.9,9h0.3v0L0.9,9c0,0.1,0.1,0.1,0.3,0.1c0.1,0,0.2,0,0.2-0.1l0-0.1
		C1.4,9,1.3,8.9,1.2,9C1.1,8.9,0.9,8.9,0.9,9C0.9,9,0.9,9,0.9,9L0.9,9L0.9,9z M1.7,9.1C1.7,9.1,1.7,9.1,1.7,9.1c0-0.1,0-0.2,0-0.2
		l0.2-0.1C1.9,8.9,1.9,9,2,9l0,0.1H1.7L1.7,9.1L1.7,9.1z M1.3,7.5L1,7.5l-0.1,0l0.1,0l0.3-0.1C1.3,7.4,1.3,7.4,1.3,7.5L1.3,7.5
		L1.3,7.5z M1.1,6.5L1,6.4L1.1,6.5C1.1,6.5,1.1,6.5,1.1,6.5L1.1,6.5L1.1,6.5z M2.4,9.8l-0.4,0l0-0.1l0.1-0.3
		c0.1,0.1,0.1,0.1,0.2,0.2L2.4,9.8L2.4,9.8L2.4,9.8z M3,10.2l-0.4,0l0.1-0.1l0-0.3c0.1,0,0.2,0.1,0.2,0.1V10.2L3,10.2L3,10.2z
		 M3.3,10.4l0.4,0l0,0l0-0.4c-0.1,0-0.2,0-0.2,0c0,0,0,0-0.1,0L3.3,10.4L3.3,10.4L3.3,10.4L3.3,10.4z M4,9.8h0.3L4.2,9.6
		C4.2,9.7,4.1,9.7,4,9.8L4,9.8L4,9.8L4,9.8z M4.3,9.9H4l0,0.4l0,0.1h0.4l0.1-0.1l0-0.2L4.3,9.9L4.3,9.9L4.3,9.9L4.3,9.9z M5.5,8.1
		h0.4l0.3,0.5H5.7L5.6,8.4L5.5,8.1L5.5,8.1L5.5,8.1z M5.7,8.7h0.4L6,8.9l-0.4,0L5.7,8.7L5.7,8.7L5.7,8.7z M6.1,7L6,7.2l-0.4,0l0,0
		c0-0.1,0-0.2,0.1-0.3L6.1,7L6.1,7L6.1,7L6.1,7z M5.6,7.3l0.4,0l0.3,0.3l-0.4,0L5.6,7.3L5.6,7.3L5.6,7.3z M5.9,7.7l0.4,0l0,0.2
		l-0.4,0L5.9,7.7L5.9,7.7L5.9,7.7z M6.1,6.1l0,0.3l-0.5,0c0-0.1,0-0.2,0-0.3c0,0,0,0,0,0L6.1,6.1L6.1,6.1L6.1,6.1z M5.8,6.4l0.4,0
		l0.3,0.2L6.1,6.6L5.8,6.4L5.8,6.4L5.8,6.4z M6.1,6.7l0.4,0l0,0.3l-0.4,0L6.1,6.7L6.1,6.7L6.1,6.7z M1.2,3.3L1.2,3.3L1.1,3.5
		l0.1,0.2V3.3L1.2,3.3L1.2,3.3z M1.2,4.2L1,4.1L0.9,4.4l0.3,0.3V4.2L1.2,4.2L1.2,4.2z M1.6,5.6c0,0.1,0,0.2,0,0.4
		c0,1.8,0.8,3.3,1.7,3.3c0.3,0,0.6-0.2,0.9-0.5c0,0,0,0,0,0c0,0,0,0,0.1-0.1c0,0,0,0,0,0c0,0,0,0,0-0.1c0,0,0,0,0,0l0,0c0,0,0,0,0,0
		c0,0,0,0-0.1,0c0,0,0,0,0,0c0,0,0,0,0,0c0,0-0.2,0.2-0.2,0.2s0,0,0,0C3.9,9,3.7,9.1,3.4,9.1c-0.6,0-0.9-0.5-1-0.5c0,0,0-0.1,0-0.1
		l0.2-0.4c0,0,0,0-0.1,0c0,0.1-0.1,0.3-0.2,0.4c0,0-0.1,0-0.1,0S2.3,8.4,2.3,8.3c0,0,0-0.1,0-0.1L2.4,8c0,0,0,0-0.1,0L2.2,8.2
		C1.9,7.6,1.7,6.7,1.7,6L2.6,6c0,0,0.1-0.1,0.1-0.1l-1,0.1V5.6L1.6,5.6L1.6,5.6L1.6,5.6z M4.6,8.1C4.6,8.1,4.6,8.1,4.6,8.1L4.1,6.5
		C4.2,6.4,4.2,6.2,4.2,6L4.1,6c0,0.2-0.1,0.3-0.1,0.5L4.6,8.1C4.6,8.1,4.6,8.1,4.6,8.1L4.6,8.1L4.6,8.1z M4.7,8C4.9,7.4,5,6.7,5,6
		c0,0,0,0,0,0L4.4,6c0,0.2-0.1,0.5-0.2,0.7L4.7,8L4.7,8L4.7,8z M3.2,1v0.5l0.1,0.1V1L3.2,1L3.2,1L3.2,1z M3.1,1.5V0.9L3,0.9v0.5
		L3.1,1.5L3.1,1.5L3.1,1.5z M3,1.4l0-0.6L2.8,0.8v0.6L3,1.4L3,1.4L3,1.4L3,1.4z M2.1,0.6L1.9,0.8v0.7l0.3-0.1V0.6L2.1,0.6L2.1,0.6z
		 M1.8,0.8L1.6,0.9v0.7l0.2-0.1V0.8L1.8,0.8L1.8,0.8z M1.5,0.9L1.3,1v0.7l0.2-0.1V0.9L1.5,0.9L1.5,0.9z M1.3,1.8v0.7l0.2-0.1V1.7
		L1.3,1.8L1.3,1.8L1.3,1.8z M1.3,2.6v0.7l0.2-0.1V2.5L1.3,2.6L1.3,2.6L1.3,2.6z M1.3,3.4V4l0.2,0V3.3L1.3,3.4L1.3,3.4L1.3,3.4z
		 M1.3,4.1v0.7l0.2,0V4.1L1.3,4.1L1.3,4.1L1.3,4.1z M1.3,5.5L1.3,5.5L1.2,5.6C1.2,5.6,1.2,5.5,1.3,5.5L1.3,5.5L1.3,5.5z M1.5,5.5
		V5.3c0,0,0,0,0.1,0L1.5,5.5L1.5,5.5L1.5,5.5L1.5,5.5z M1.8,5.5V5.2c0,0,0,0,0.1,0L1.8,5.5L1.8,5.5L1.8,5.5L1.8,5.5z M2.1,5.5V5.2
		l0.1,0L2.1,5.5L2.1,5.5L2.1,5.5L2.1,5.5z M2.1,5.1L2.1,5.1C2.1,5,2.2,5,2.2,5L2.1,5.1L2.1,5.1L2.1,5.1L2.1,5.1z M2.5,5.4L2.5,5.4
		l0.1,0L2.5,5.4L2.5,5.4L2.5,5.4z M2.5,5.3V4.9c0,0,0,0,0,0l0.2,0.5L2.5,5.3L2.5,5.3L2.5,5.3z M2.5,4.7V3.9L2.2,4v0.8L2.5,4.7
		L2.5,4.7L2.5,4.7z M2.5,3.8V3.1L2.2,3.1v0.7L2.5,3.8L2.5,3.8L2.5,3.8z M2.5,3V2.1L2.2,2.3v0.8L2.5,3L2.5,3L2.5,3z M2.5,2.1V1.3
		L2.2,1.4v0.7L2.5,2.1L2.5,2.1L2.5,2.1z M2.1,4.7V4L1.9,4v0.7L2.1,4.7L2.1,4.7L2.1,4.7z M1.8,4.8V4l-0.2,0v0.7L1.8,4.8L1.8,4.8
		L1.8,4.8z M2.1,3.9V3.2L1.9,3.2v0.7L2.1,3.9L2.1,3.9L2.1,3.9z M1.8,3.9V3.2l-0.2,0V4L1.8,3.9L1.8,3.9L1.8,3.9z M2.1,3.1V2.3
		L1.9,2.4v0.8L2.1,3.1L2.1,3.1L2.1,3.1z M1.8,3.2V2.4L1.6,2.5v0.7L1.8,3.2L1.8,3.2L1.8,3.2z M2.1,2.2V1.5L1.9,1.6v0.7L2.1,2.2
		L2.1,2.2L2.1,2.2z M1.8,2.3V1.6L1.6,1.7v0.7L1.8,2.3L1.8,2.3L1.8,2.3z M5,0.7L5.3,1v0.4L5,0.7L5,0.7L5,0.7z M5,2.7l0.5-0.1L5,1.8
		V2.7L5,2.7L5,2.7z M5.7,2.6l0.2,0l0.2,0.1V0.7L5.7,0.5V2.6L5.7,2.6L5.7,2.6z M3.4,1.7L3,1.5v1.8l0.4-0.1V1.7L3.4,1.7L3.4,1.7z
		 M3.7,3.1L4.1,3V2.7L3.7,2.5L3.7,3.1L3.7,3.1L3.7,3.1z M3.8,2.4l0.3,0.2c0.2,0,0.4-0.1,0.4-0.3V1.4L4.2,1.2v1
		C4.2,2.3,4,2.3,3.8,2.4L3.8,2.4L3.8,2.4z M3.7,1.5l0.1-0.1V2L3.7,2.1V1.5L3.7,1.5L3.7,1.5z M5.8,5.9L6.1,6l0.3,0L6.1,5.9L5.8,5.9
		L5.8,5.9L5.8,5.9z M6.2,5.8l0.4,0.1l0-0.3L6.2,5.5L6.2,5.8L6.2,5.8L6.2,5.8z M6.1,5.4V5.2L5.7,5c0,0,0,0,0,0c0,0.1,0,0.2,0,0.4l0,0
		H6.1L6.1,5.4L6.1,5.4z M5.8,4.9l0.4,0.2l0.4-0.2L6.1,4.8C6,4.8,5.9,4.9,5.8,4.9L5.8,4.9L5.8,4.9z M6.1,4.7l0.4,0.2V4.6L6.1,4.4
		L6.1,4.7L6.1,4.7L6.1,4.7z M6,3.4l0.5,0.3v0.2L6,3.6L6,3.4L6,3.4L6,3.4z M6.4,3.9L6.1,4.2L5.6,4L6,3.7L6.4,3.9L6.4,3.9L6.4,3.9z
		 M5.6,4.1L6,4.3l0,0l-0.1,0L5.6,4.4C5.6,4.3,5.6,4.2,5.6,4.1L5.6,4.1L5.6,4.1z M2.5,7.8C2.5,7.8,2.6,7.8,2.5,7.8
		C2.5,7.8,2.5,7.8,2.5,7.8C2.4,7.7,2.4,7.7,2.4,7.7c0,0,0.1,0,0.1-0.1c0,0,0-0.2,0-0.2s0,0-0.1-0.1c0,0.1,0,0.1,0,0.1c0,0,0,0,0-0.1
		c0,0,0,0,0,0c0,0,0,0,0,0c0,0,0,0-0.1,0c0,0.1,0,0.2,0,0.1c0,0,0-0.1-0.1-0.1c0,0,0,0-0.1,0c0,0.1,0,0.2,0,0.2c0,0,0-0.1-0.1-0.2
		C2.1,7.3,2,7.2,2,7.2c0,0,0-0.1,0.1-0.1c0,0,0-0.1,0-0.1c0,0,0-0.1,0-0.1s0-0.1,0-0.1c0,0,0.1,0,0,0.1c0,0,0,0.1,0,0.2
		c0,0,0,0,0.1,0c0,0,0,0,0,0c0,0,0-0.1,0-0.1s0-0.1,0-0.2c0,0,0.1-0.1,0,0c0,0,0,0.1,0,0.2c0,0,0.1,0,0.1,0c0,0,0,0,0,0c0,0,0,0,0,0
		s0-0.2,0-0.2c0,0,0.1-0.1,0,0c0,0-0.1,0.2-0.1,0.3c0.1,0,0.1,0,0.2,0c0-0.1,0.1-0.2,0.2-0.3C2.6,6.6,2.5,6.4,2.5,6.3
		C2.2,6.4,2,6.8,2,7.1c0,0.5,0.4,1,0.9,1c0.3,0,0.9-0.3,0.8-0.8c0,0-0.1,0-0.2,0.1c0,0-0.1,0.2-0.1,0.2c0,0,0-0.1,0-0.2
		c0,0-0.1,0-0.1,0c0,0,0,0,0,0c0,0-0.1,0.1-0.1,0.1s0,0.1,0,0.1c0,0,0,0,0,0L3.1,7.7c0,0,0,0-0.1,0.1c0,0-0.1,0.1-0.1,0.1
		C3.4,8,3.6,7.4,3.6,7.4c0,0,0.1,0,0,0.1C3.5,7.8,3.3,8,2.9,8C2.8,8,2.8,8,2.8,8C2.7,8,2.7,7.9,2.7,7.9l0.1-0.1c0,0,0,0,0-0.1
		c0,0,0-0.1,0.1-0.1c0,0,0,0,0,0c0,0-0.1,0.1-0.1,0.2c0,0,0,0.1-0.1,0.1c0,0-0.1,0.1-0.1,0.1s0,0-0.1,0c0,0-0.4-0.2-0.2-0.2
		C2.4,7.7,2.5,7.8,2.5,7.8L2.5,7.8L2.5,7.8z M5.8,3.3V3.2L5.6,3.1L5.4,3.2c0,0.1,0.1,0.2,0.1,0.4L5.8,3.3L5.8,3.3L5.8,3.3z M4.1,4.9
		c0,0.1,0.1,0.1,0.1,0.3l-0.1,0C4.1,5.2,4,5,4,4.9L4.1,4.9L4.1,4.9L4.1,4.9z M4.4,5.2c0,0,0-0.2-0.1-0.2C4.7,5.1,5,5.2,5,5.2
		L4.4,5.2L4.4,5.2L4.4,5.2z M3.7,5c0,0.1,0.1,0.1,0.1,0.3l-0.2,0c0-0.1-0.1-0.2-0.1-0.2L3.7,5L3.7,5L3.7,5z M3.2,3.9l0.7-0.2
		L3.7,4.4c-0.1,0-0.2,0-0.3,0L3.2,3.9L3.2,3.9L3.2,3.9z M2.8,4.1V4H3v0.1C2.9,4.1,2.8,4.1,2.8,4.1L2.8,4.1L2.8,4.1z M3.1,4.2
		L3.1,4.2l0.2,0.4c0,0-0.1,0-0.1,0L3.1,4.3C3.1,4.3,3.1,4.2,3.1,4.2L3.1,4.2L3.1,4.2z M3.8,6.8c0-0.1-0.1-0.2-0.2-0.4
		C3.4,6.3,3.1,6.2,2.9,6.2c0,0-0.1,0-0.1,0c0,0,0,0.1,0,0.1C3.1,6.5,3.5,6.5,3.8,6.8L3.8,6.8L3.8,6.8z M2.5,6.1l-0.4,0
		c0,0.2,0,0.5,0,0.5l0,0c0.1-0.2,0.2-0.3,0.4-0.4C2.5,6.2,2.5,6.1,2.5,6.1L2.5,6.1L2.5,6.1z M3,4.4C3,4.4,3,4.4,3,4.4
		c0,0-0.1,0-0.1,0c0,0-0.1,0-0.1,0v0.3c0,0,0.1,0,0.1,0c0,0,0.1,0,0.1,0L3,4.4L3,4.4L3,4.4z M3,4.3c0,0-0.1-0.1-0.1,0
		c0,0-0.1,0-0.1,0c0,0-0.1,0-0.1,0c0,0,0,0,0-0.1c0,0,0-0.1,0.1-0.1c0,0,0.2,0,0.2,0C3,4.2,3.1,4.2,3,4.3C3.1,4.3,3,4.3,3,4.3L3,4.3
		L3,4.3z M2.8,4.4L2.8,4.4l0,0.2h0V4.4L2.8,4.4L2.8,4.4z M2.8,4.6L2.8,4.6L2.8,4.6L2.8,4.6L2.8,4.6L2.8,4.6L2.8,4.6z M2.8,5.1
		L2.8,5.1l0.1-0.3c0,0,0.1,0,0.1,0c0,0,0,0,0.1,0l0,0.3L2.9,5.3L2.8,5.1L2.8,5.1L2.8,5.1z M2.8,4.8V5L2.7,4.8
		C2.7,4.8,2.7,4.8,2.8,4.8L2.8,4.8L2.8,4.8z M2.8,4.8L2.8,4.8L2.8,4.8L2.8,4.8L2.8,4.8L2.8,4.8L2.8,4.8z M2.8,5L2.8,5l0,0.1h0V5
		L2.8,5L2.8,5z M3,5.9l0,0.2c0,0,0.2,0,0.2-0.1c0-0.1-0.1-0.2-0.2-0.2c-0.2,0-0.3,0-0.4-0.1l-0.2,0c0,0.1,0,0.2,0,0.2
		c0.1,0,0.2,0,0.2,0C2.7,5.8,2.9,5.8,3,5.9C3,5.8,3,5.8,3,5.9L3,5.9L3,5.9z M2.6,5.5c0.1,0.1,0.1,0.1,0.2,0.1H3l0-0.2L2.6,5.5
		L2.6,5.5L2.6,5.5z M5.1,5.2l-4,0.4c0,0,1.1-0.8,1.8-0.9C3.7,4.7,5.1,5.2,5.1,5.2L5.1,5.2L5.1,5.2z M3.5,4.8c0.1,0,0.2,0.1,0.2,0.1
		L3.5,5C3.5,4.9,3.3,4.8,3.2,4.8l0,0C3.3,4.8,3.4,4.8,3.5,4.8L3.5,4.8L3.5,4.8z M3.1,5.4l0.8-0.5c0,0,0,0-0.1,0L3.1,5.4L3.1,5.4
		l-0.1,0L3.1,5.4L3.1,5.4L3.1,5.4z M2.8,5.4L2.8,5.4L2.8,5.4L2.6,4.8c0,0,0,0,0.1,0L2.8,5.4L2.8,5.4L1.9,5.1c0,0,0,0,0.1,0L2.8,5.4
		L2.8,5.4L2.8,5.4z M2.6,4.8C2.6,4.8,2.6,4.8,2.6,4.8C2.6,4.8,2.6,4.8,2.6,4.8L2.6,4.8L2.6,4.8z M3.2,4.8L2.9,5.4l0,0L3.2,4.8
		C3.2,4.8,3.2,4.8,3.2,4.8L3.2,4.8L3.2,4.8z M5.3,5.2L0.9,5.7c0,0,1.2-0.9,2-1C3.8,4.6,5.3,5.2,5.3,5.2L5.3,5.2L5.3,5.2z M3.4,7.1
		v0.2c0,0,0,0,0.1,0C3.5,7.2,3.5,7.2,3.4,7.1C3.4,7.1,3.4,7.1,3.4,7.1C3.4,7.1,3.4,7.1,3.4,7.1L3.4,7.1L3.4,7.1z M3.3,7.3
		c0-0.1,0-0.2,0-0.2c0,0,0,0-0.1,0c0,0,0,0.1,0,0.1C3.3,7.2,3.3,7.3,3.3,7.3c-0.1,0-0.1,0-0.1,0C3.2,7.3,3.3,7.3,3.3,7.3L3.3,7.3
		L3.3,7.3z M3.1,6.8C3,6.9,3,6.8,3,7c0,0,0,0,0,0c0,0,0,0,0,0S3.1,7,3.1,6.8C3.1,6.8,3.1,6.8,3.1,6.8C3.1,6.8,3.1,6.8,3.1,6.8
		L3.1,6.8L3.1,6.8z M3.3,6.9C3.3,6.9,3.3,7,3.3,6.9c0,0.1,0,0.1,0,0.1c0.1,0,0.1,0,0.2,0c0,0,0,0,0,0c0.1,0,0.1,0,0.2,0
		C3.6,7,3.4,6.9,3.3,6.9L3.3,6.9L3.3,6.9z M3.7,7.2c0,0,0-0.1-0.1-0.1c0,0-0.1,0-0.1,0l0,0c0,0,0,0,0,0c0,0,0,0.1,0,0.1c0,0,0,0,0,0
		v0.1C3.6,7.3,3.7,7.3,3.7,7.2L3.7,7.2L3.7,7.2z M2.4,7.3c0-0.1,0-0.1,0-0.2c0.1,0,0.1,0,0.2,0c0,0.1,0,0.1,0,0.2
		C2.5,7.3,2.5,7.3,2.4,7.3C2.4,7.3,2.4,7.3,2.4,7.3L2.4,7.3L2.4,7.3z M2.4,7.1C2.4,7.1,2.4,7.2,2.4,7.1l0,0.1c0,0,0,0,0,0.1
		c0,0-0.1,0-0.1,0C2.3,7.2,2.3,7.2,2.4,7.1C2.3,7.1,2.3,7.1,2.4,7.1L2.4,7.1L2.4,7.1z M2.2,7.1C2.2,7.2,2.2,7.2,2.2,7.1l0,0.1
		c0,0,0,0,0,0c0,0,0,0-0.1,0C2.2,7.2,2.2,7.2,2.2,7.1C2.2,7.1,2.2,7.1,2.2,7.1L2.2,7.1L2.2,7.1z M2.1,7.1C2.1,7.2,2.1,7.2,2.1,7.1
		l0,0.1C2.1,7.2,2.1,7.2,2.1,7.1C2.1,7.2,2.1,7.2,2.1,7.1L2.1,7.1L2.1,7.1z M3.2,7.4C3.2,7.4,3.2,7.4,3.2,7.4
		c-0.1,0-0.1,0.1-0.1,0.1c0,0.1-0.1,0.2-0.1,0.2c0,0-0.1,0-0.1,0.1c0,0.1,0,0.1-0.1,0.1c0,0,0,0-0.1,0.1c0,0,0.1-0.1,0.1-0.1
		c0,0,0.1-0.1,0.1-0.1s0,0,0.1,0c0.1,0,0.1-0.1,0.1-0.1s0-0.1,0-0.1C3.2,7.5,3.2,7.4,3.2,7.4C3.2,7.4,3.2,7.4,3.2,7.4L3.2,7.4
		L3.2,7.4z M3,7.4C3,7.4,3,7.4,3,7.4C2.9,7.4,2.9,7.4,3,7.4c0,0-0.1,0.1-0.1,0.1c0,0,0,0,0,0.1c0,0,0,0,0,0S3,7.6,3,7.4
		C3,7.4,3,7.4,3,7.4L3,7.4L3,7.4z M3,7.1C3,7.1,3,7.1,3,7.1c0.1,0.1,0,0.2,0,0.2s0,0-0.1,0.1c0,0,0,0,0,0C3,7.3,3,7.2,3,7.1
		C3,7.1,3,7.1,3,7.1L3,7.1z"/>
</g>
</svg>
