<?xml version="1.0" encoding="utf-8"?>
<!-- Generator: Adobe Illustrator 25.4.1, SVG Export Plug-In . SVG Version: 6.00 Build 0)  -->
<svg version="1.1" id="Capa_1" xmlns="http://www.w3.org/2000/svg" xmlns:xlink="http://www.w3.org/1999/xlink" x="0px" y="0px"
	 viewBox="0 0 20.8 28.1" style="enable-background:new 0 0 20.8 28.1;" xml:space="preserve">
<style type="text/css">
	.st0{fill-rule:evenodd;clip-rule:evenodd;fill:#004F88;}
</style>
<g>
	<path class="st0" d="M14.5,10.7V6.5c0,0,0,0,0,0h-8c0,0,0,0,0,0v4.1c0,0,0,0,0,0c0,1.4,0.4,2.8,1.2,3.9c0.7,1.1,1.7,1.9,2.8,2.2
		c0,0,0,0,0,0c1.1-0.3,2.1-1.1,2.8-2.2C14,13.5,14.4,12.1,14.5,10.7C14.5,10.7,14.5,10.7,14.5,10.7L14.5,10.7z M14.3,10.6
		C14.3,10.7,14.3,10.7,14.3,10.6c-0.1,2.9-1.7,5.3-3.9,5.9c-2.2-0.6-3.8-3.1-3.9-5.9c0,0,0,0,0,0v-4h7.7V10.6L14.3,10.6z"/>
	<path class="st0" d="M10.5,15.6C10.5,15.6,10.5,15.6,10.5,15.6c1.7-0.6,3-2.7,3-5c0,0,0,0,0,0c0,0,0-3,0-3c0,0,0,0,0,0h-6
		c0,0,0,0,0,0v3c0,0,0,0,0,0C7.5,12.9,8.7,15,10.5,15.6L10.5,15.6z M10.5,15.4c-1.6-0.6-2.8-2.6-2.8-4.8c0,0,0,0,0,0
		c0,0,0-2.3,0-2.8c0,0,0,0.1,0.1,0.1c0,0.1,0.1,0.3,0.1,0.3s0,0.1,0,0.1c0,0,0,0.1,0.1,0.1c0,0,0.1,0.1,0.1,0.1c0,0,0.1,0,0-0.1
		c0-0.1-0.1-0.2-0.1-0.2s0-0.1,0-0.2c0-0.1-0.1-0.2-0.1-0.2S8,7.9,8,8c0,0,0.1,0.3,0.1,0.5c0,0.1,0.1,0.2,0.1,0.2
		C8.3,8.8,8.5,8.9,8.6,9C8.8,9,9,8.9,9.1,9C9.1,9,9.3,9.2,9.4,9.2c0.1,0,0.4,0.1,0.4,0.2c0.1,0.1,0.2,0.1,0.3,0.1
		c0.1,0,0.3,0.1,0.3,0.3l-0.2,0.4c0,0-0.1,0.1-0.2,0.3c0,0.1-0.1,0.2,0,0.4c0.1,0.2,0.2,0.5,0.2,0.6c0,0.2,0.2,0.2,0.3,0.3
		c0.1,0.1,0,0.2-0.1,0.3c-0.1,0.2,0,0.5-0.1,0.8c-0.1,0.2-0.1,0.3-0.1,0.5c0,0.2,0,0.4-0.1,0.5c-0.1,0.2,0,0.3,0,0.5
		c0,0.2,0,0.4,0.1,0.5c0.1,0.1,0.4,0.2,0.3,0c0-0.2,0-0.5,0.1-0.7c0.1-0.1,0.1-0.1,0.1-0.1s0-0.2,0.1-0.3c0.1-0.1,0.2-0.2,0.1-0.2
		c-0.1,0,0-0.1,0.1-0.1c0.1,0,0.1,0,0.3-0.2c0.2-0.2,0.2-0.3,0.4-0.4c0.2-0.1,0.3-0.3,0.4-0.4c0.1-0.1,0.3-0.2,0.4-0.2
		c0.1,0,0.2-0.1,0.2-0.3c0-0.1,0-0.3,0.1-0.4c0.1-0.2,0-0.2,0.1-0.3C13,13.2,11.9,14.9,10.5,15.4L10.5,15.4z M13.3,10.6
		C13.3,10.6,13.3,10.6,13.3,10.6c0,0.1,0,0.2,0,0.3c-0.1-0.1-0.2-0.1-0.3-0.2c-0.1-0.1-0.2-0.2-0.3-0.2c0,0-0.1-0.1-0.2,0
		c-0.1,0-0.2,0-0.3-0.1c0-0.1,0-0.3-0.1-0.3c-0.1-0.1-0.2-0.1-0.3-0.2c-0.1-0.1-0.2-0.2-0.2-0.2c0,0-0.3,0-0.3,0S11.2,9.5,11,9.5
		c0,0-0.1-0.2-0.3-0.1c-0.1,0.1-0.3,0.2-0.3,0.1c-0.1-0.1-0.2-0.1-0.3,0c-0.1,0-0.2-0.1-0.2-0.2c0-0.1,0-0.2,0-0.2c0,0-0.2,0-0.3,0
		c-0.1-0.1,0-0.1,0-0.2c0-0.1,0.1-0.3,0.1-0.3l-0.1,0c0,0-0.1,0-0.1,0.1c0,0.1-0.2,0.2-0.3,0.1C9,8.7,8.9,8.6,8.8,8.5
		c0-0.1,0-0.2,0-0.3C8.9,8.1,8.8,8,8.7,8c0,0,0,0-0.1-0.1c0-0.1-0.1-0.1-0.1-0.1h4.8C13.3,8,13.3,10.6,13.3,10.6L13.3,10.6z"/>
	<path class="st0" d="M8.2,3.2c-0.2-0.1-0.3,0-0.4,0c0,0-0.1,0.1-0.1,0.1c0,0-0.3,0-0.4,0.1c0,0.1-0.1,0.2,0,0.3
		c0.1,0.4,0.2,0.4,0.2,0.4c0,0,0,0,0,0c0,0,0.2,0.2,0.1,0.5C7.6,4.9,7.6,4.9,7.8,5C7.9,5,7.9,5.1,7.9,5.3v0c0,0.2,0,0.3,0.1,0.4
		c0,0,0.1,0.1,0.2,0.1c0.1,0,0.1,0,0.1-0.1c0.1-0.1,0.1-0.5,0-0.6c0-0.1-0.1-0.4,0-0.5c0.1-0.1,0.2-0.1,0.2,0c0,0,0,0,0,0
		c0,0,0.1,0,0.1-0.1c0,0,0-0.1,0-0.1c0,0,0,0,0,0c0,0,0,0,0,0c0.1,0,0.1,0,0.2,0c0,0,0-0.1,0-0.2C8.9,4,8.7,3.8,8.6,3.7l0,0
		C8.5,3.6,8.5,3.6,8.5,3.5C8.5,3.4,8.4,3.3,8.2,3.2L8.2,3.2z M8.6,4.4C8.6,4.4,8.6,4.4,8.6,4.4c-0.1,0-0.2,0.1-0.3,0.1
		C8.1,4.6,8.1,4.9,8.2,5.2c0,0.2,0,0.4,0,0.5c0,0,0,0,0,0c0,0-0.1,0-0.1,0c0,0,0-0.2,0-0.3v0c0-0.3-0.1-0.4-0.2-0.5c0,0,0,0,0,0
		c0,0,0-0.1,0.1-0.2C8,4.4,7.8,4.1,7.7,4.1c0-0.1-0.1-0.2-0.1-0.4c0-0.1,0-0.1,0-0.1c0-0.1,0.2-0.1,0.2-0.1c0,0,0,0,0,0
		c0,0,0.1,0,0.2-0.1c0,0,0.1,0,0.2,0c0.1,0.1,0.1,0.1,0.1,0.1c0,0.1,0,0.2,0.1,0.2c0,0,0,0,0,0c0.1,0.1,0.3,0.4,0.3,0.5c0,0,0,0,0,0
		c0,0,0,0,0,0c-0.1,0-0.1,0-0.2,0C8.5,4.3,8.6,4.4,8.6,4.4L8.6,4.4z"/>
	<path class="st0" d="M8,3.7c-0.1,0-0.1,0.1-0.1,0.1C7.8,3.9,7.9,4,8,4C8,4,8.1,3.9,8.1,3.9C8.1,3.8,8,3.7,8,3.7L8,3.7z"/>
	<path class="st0" d="M6.7,3.8c0,0-0.5,0.1-0.5,0.5c0,0.3,0.3,0.4,0.3,0.4c0,0,0,0,0,0c0,0,0,0,0,0c0-0.1-0.1-0.1-0.1-0.1
		c0,0,0.1-0.1,0.1-0.1c0.1,0,0.1-0.1,0.1-0.2C6.6,4,6.7,3.8,6.7,3.8C6.7,3.8,6.7,3.8,6.7,3.8C6.7,3.8,6.7,3.8,6.7,3.8L6.7,3.8z
		 M6.3,4.4c0,0,0-0.1,0-0.1c0-0.1,0.1-0.2,0.3-0.3c0,0.1,0,0.1,0,0.2c0,0,0,0-0.1,0C6.4,4.3,6.3,4.3,6.3,4.4L6.3,4.4z"/>
	<path class="st0" d="M7,4.4C6.8,4.5,6.6,4.6,6.6,4.6c0,0,0,0,0,0c0,0,0,0,0,0c0.1,0,0.7,0.1,0.8,0.1c0.1,0,0.2-0.1,0.2-0.2
		c0-0.1,0-0.2-0.1-0.4C7.4,3.8,7.3,3.6,7.3,3.6c0,0,0,0,0,0c0,0-0.6,0.1-0.5,0.7c0,0,0,0,0,0H7C7,4.3,7.1,4.3,7,4.4
		C7.1,4.3,7.1,4.4,7,4.4L7,4.4z M7.2,4.3C7.2,4.2,7,4.1,7,4.1c0,0,0,0,0,0H6.9c0-0.2,0.2-0.3,0.3-0.4c0,0.1,0.1,0.3,0.2,0.5
		c0,0,0,0,0,0c0.1,0.1,0.1,0.2,0.1,0.3c0,0.1-0.1,0.1-0.1,0.1c0,0-0.2,0-0.4-0.1c0,0,0.1,0,0.1-0.1C7.1,4.5,7.2,4.4,7.2,4.3L7.2,4.3
		z"/>
	<path class="st0" d="M7.9,5.8C7.9,5.8,7.9,5.8,7.9,5.8L7.8,5.7c0,0,0,0,0,0c0,0-0.1,0-0.1,0.1L7,6.2c0,0-0.1,0.1-0.1,0.1
		c0,0,0,0,0.1,0c0.1,0,0.4,0,0.4,0c0,0,0.1,0,0.2-0.1C7.6,6.3,7.9,6,7.9,6C7.9,5.9,7.9,5.9,7.9,5.8L7.9,5.8z M7.5,6.2
		C7.5,6.2,7.4,6.3,7.5,6.2l-0.2,0l0.5-0.3c0,0,0,0,0,0c0,0,0,0,0,0l0,0C7.7,6,7.5,6.2,7.5,6.2L7.5,6.2z"/>
	<path class="st0" d="M7.7,6.4c0.1,0,0.2,0,0.2,0c0,0,0.1,0,0.2-0.1L8.2,6c0,0,0-0.1,0-0.1c0,0,0,0-0.1,0c-0.1,0-0.1,0-0.1,0
		c0,0-0.1,0-0.1,0c0,0.1-0.3,0.4-0.3,0.4C7.6,6.3,7.6,6.3,7.7,6.4C7.6,6.4,7.7,6.4,7.7,6.4L7.7,6.4z M7.9,6.3c0,0-0.1,0-0.1,0
		C7.9,6.2,8,6.1,8,6c0,0,0,0,0,0C8.1,6.1,8,6.3,7.9,6.3C8,6.3,7.9,6.3,7.9,6.3L7.9,6.3z"/>
	<path class="st0" d="M8.3,6.5h0.2c0,0,0.1,0,0.1-0.1V6c0,0,0,0,0,0c0,0,0-0.1-0.1-0.1c-0.1,0-0.1,0-0.1,0c0,0-0.1,0-0.1,0.1
		c0,0.1-0.1,0.3-0.1,0.3c0,0,0,0.1,0,0.1C8.2,6.4,8.2,6.5,8.3,6.5L8.3,6.5z M8.5,6.3C8.5,6.3,8.5,6.3,8.5,6.3l-0.2,0c0,0,0,0,0,0
		c0-0.1,0.1-0.2,0.1-0.3c0,0,0,0,0.1,0V6.3L8.5,6.3z"/>
	<path class="st0" d="M9.2,6.4l0.2,0c0,0,0,0,0,0c0,0,0-0.1,0-0.1c0-0.1-0.2-0.5-0.3-0.5c0,0,0,0,0,0c0,0,0-0.1-0.1,0c0,0,0,0,0,0
		L8.9,5.8c0,0-0.1,0,0,0.1C8.9,6,9,6.3,9,6.4c0,0,0,0,0,0C9,6.4,9.1,6.4,9.2,6.4L9.2,6.4z M9,5.9c0,0.1,0.1,0.3,0.2,0.4
		c0,0-0.1,0-0.1,0c0,0,0,0,0,0C9.1,6.2,9.1,6,9,5.9L9,5.9L9,5.9z"/>
	<path class="st0" d="M8.7,6.5c0.1,0,0.2,0,0.2,0c0,0,0,0,0.1,0c0,0,0,0,0-0.1L8.9,5.9c0,0,0,0,0,0c0,0-0.1-0.1-0.1,0
		c0,0-0.1,0-0.1,0c0,0,0,0,0,0c0,0,0,0,0,0.1C8.6,6,8.6,6.3,8.7,6.5C8.6,6.4,8.7,6.5,8.7,6.5L8.7,6.5z M8.8,6.3c0-0.1,0-0.2,0-0.3
		c0,0,0,0,0,0L8.8,6.3L8.8,6.3L8.8,6.3z"/>
	<path class="st0" d="M9.5,6.4c0.1,0,0.2,0,0.2,0c0,0,0.1,0,0.1,0c0,0,0-0.1,0-0.1C9.7,6,9.4,5.6,9.4,5.5c0,0,0,0,0,0c0,0,0,0-0.1,0
		c0,0-0.1,0.1-0.1,0.1c0,0-0.1,0.1,0,0.1c0,0.1,0.3,0.6,0.3,0.6c0,0,0,0,0,0C9.4,6.3,9.5,6.4,9.5,6.4L9.5,6.4z M9.3,5.7
		C9.3,5.7,9.3,5.7,9.3,5.7c0.1,0.1,0.3,0.4,0.4,0.5c0,0-0.1,0-0.1,0C9.5,6.2,9.3,5.8,9.3,5.7L9.3,5.7z"/>
	<path class="st0" d="M5.9,11.4c-0.3-0.1-0.6,0-0.6,0.2c0,0.6,1.3,0.5,1.1-0.5c-0.1-0.6-0.5-1.4-0.6-2.6C5.7,7.3,6.3,7,6.3,7V6.7
		c-1,0.5-0.8,2.6-0.5,3.6C6.1,11.2,5.9,11.4,5.9,11.4L5.9,11.4z"/>
	<path class="st0" d="M15.6,11.6c0-0.3-0.3-0.4-0.6-0.2c0,0-0.2-0.2,0.1-1.1c0.3-1,0.5-3.1-0.5-3.6V7c0,0,0.6,0.4,0.5,1.5
		c-0.1,1.2-0.5,1.9-0.6,2.6C14.4,12.1,15.6,12.2,15.6,11.6L15.6,11.6z"/>
	<path class="st0" d="M5.5,12.2l-0.6,0.5c-0.7-0.5-1,0.1-1,0.1c0.3,0,0.5,0,0.5,0C3.8,13,4,13.3,4,13.3s0.5-0.3,0.8,0
		c0.3,0.5-0.1,0.9-0.1,0.9c0.9,0,0.6-1.2,0.6-1.2l0.8-0.8H5.5L5.5,12.2z"/>
	<path class="st0" d="M16.9,12.8c0,0-0.3-0.6-1-0.1l-0.6-0.5h-0.6l0.8,0.8c0,0-0.3,1.2,0.6,1.2c0,0-0.4-0.4-0.1-0.9
		c0.2-0.4,0.8,0,0.8,0s0.1-0.3-0.4-0.5C16.4,12.8,16.6,12.8,16.9,12.8L16.9,12.8z"/>
	<path class="st0" d="M6.3,7.6l0-0.5c0,0.1-0.1,0.2-0.2,0.2c-0.1,0.1,0,0.1,0,0.1C6.3,7.5,6.3,7.6,6.3,7.6L6.3,7.6z"/>
	<path class="st0" d="M6.2,8.9c0,0.3,0.1,0.2,0.1,0.2s0-0.5,0-0.7c0-0.1-0.3-0.1-0.3,0.1C5.9,8.6,6,9.1,6,9.1l0.1,0l0-0.4
		C6.1,8.7,6.2,8.6,6.2,8.9L6.2,8.9z"/>
	<path class="st0" d="M6.3,10c0.1,0.1,0.1-0.4,0.1-0.5c0,0-0.2-0.1-0.2,0.1C6.1,9.7,6.2,9.9,6.3,10L6.3,10z"/>
	<path class="st0" d="M5.9,7.9C5.9,8,6.3,8,6.3,8V7.8C6.3,7.8,5.9,7.8,5.9,7.9L5.9,7.9z"/>
	<path class="st0" d="M6.3,8.3V8.1c0,0-0.3-0.1-0.3,0.1C5.9,8.3,6.3,8.3,6.3,8.3L6.3,8.3z"/>
	<path class="st0" d="M7.2,14.3c0-0.1,0-0.1-0.1-0.1c-0.1,0-0.1,0-0.1,0.1c0,0.1,0,0.1,0.1,0.1C7.1,14.4,7.2,14.3,7.2,14.3L7.2,14.3
		z"/>
	<path class="st0" d="M14.9,13.2c-0.1,0-0.1,0-0.1,0.1c0,0.1,0,0.1,0.1,0.1c0.1,0,0.1,0,0.1-0.1C15,13.2,15,13.2,14.9,13.2
		L14.9,13.2z"/>
	<path class="st0" d="M14.7,13.3c0-0.1,0-0.1-0.1-0.1c-0.1,0-0.1,0-0.1,0.1c0,0.1,0,0.1,0.1,0.1C14.6,13.4,14.7,13.4,14.7,13.3
		L14.7,13.3z"/>
	<path class="st0" d="M14.4,13.4c0-0.1,0-0.1-0.1-0.1c-0.1,0-0.1,0-0.1,0.1c0,0.1,0,0.1,0.1,0.1C14.3,13.5,14.4,13.4,14.4,13.4
		L14.4,13.4z"/>
	<path class="st0" d="M6.1,15.1l0.1-0.6c0,0-0.1-0.1-0.2,0l0,0.5c0,0-0.1,0.2-0.3,0l0-0.5c0,0-0.1-0.1-0.2,0l0,0.6
		C5.4,15.1,5.7,15.5,6.1,15.1L6.1,15.1z"/>
	<path class="st0" d="M5.8,14.9C5.8,14.9,5.8,14.9,5.8,14.9l0.1-0.3c0,0,0-0.1-0.1-0.1c0,0-0.1,0-0.1,0.1L5.8,14.9
		C5.7,14.9,5.7,14.9,5.8,14.9L5.8,14.9z"/>
	<path class="st0" d="M7,15.3L7,14.7c0,0-0.1-0.1-0.2,0l0,0.4c0,0-0.1,0.2-0.3,0l0-0.5c0,0-0.1-0.1-0.2,0l0,0.6
		C6.3,15.2,6.5,15.6,7,15.3L7,15.3z"/>
	<path class="st0" d="M6.6,15C6.7,15,6.7,15,6.6,15l0.1-0.2c0,0,0-0.1-0.1-0.1c0,0-0.1,0-0.1,0.1L6.6,15C6.6,15,6.6,15,6.6,15
		L6.6,15z"/>
	<path class="st0" d="M7.7,15.3l0-0.3c0,0,0-0.2-0.2,0l0,0.1c0,0-0.1,0.1-0.1-0.1c0-0.2,0-0.2,0-0.2s0-0.1-0.1,0l0,0.2
		c0,0,0,0-0.1,0l0-0.3c0,0,0-0.1-0.2,0l0,0.5C7.1,15.2,7.3,15.6,7.7,15.3L7.7,15.3z"/>
	<path class="st0" d="M5.8,14c0-0.1,0-0.1-0.1-0.1c-0.1,0-0.1,0-0.1,0.1c0,0.1,0,0.1,0.1,0.1C5.7,14.1,5.8,14.1,5.8,14L5.8,14z"/>
	<path class="st0" d="M6.3,14.1c0-0.1,0-0.1-0.1-0.1c-0.1,0-0.1,0-0.1,0.1c0,0.1,0,0.1,0.1,0.1C6.2,14.2,6.3,14.2,6.3,14.1L6.3,14.1
		z"/>
	<path class="st0" d="M6.7,14.2c0-0.1,0-0.1-0.1-0.1c-0.1,0-0.1,0-0.1,0.1c0,0.1,0,0.1,0.1,0.1C6.6,14.3,6.7,14.2,6.7,14.2L6.7,14.2
		z"/>
	<path class="st0" d="M6.2,12.4l0,0.4L6.4,13C6.4,13,6.5,12.5,6.2,12.4L6.2,12.4z"/>
	<path class="st0" d="M6.5,13.4c0,0-0.1,0.1-0.1,0c0-0.1-0.1-0.1-0.2-0.1c-0.1,0-0.1,0.2-0.2,0.1c0-0.2-0.1-0.2-0.3-0.2v0.4l0.9,0.2
		c0,0,0-0.2,0-0.3C6.7,13.3,6.5,13.3,6.5,13.4L6.5,13.4z"/>
	<path class="st0" d="M6.8,13.8c0,0-0.6-0.2-0.9-0.2l0,0.1l1,0.2C6.8,14,6.8,14,6.8,13.8L6.8,13.8z"/>
	<path class="st0" d="M15.5,15.1l0-0.6c-0.1-0.1-0.2,0-0.2,0l0,0.5c-0.2,0.2-0.3,0-0.3,0l0-0.5c-0.2-0.1-0.2,0-0.2,0l0.1,0.6
		C15.2,15.5,15.5,15.1,15.5,15.1L15.5,15.1z"/>
	<path class="st0" d="M15,14.8C15,14.9,15.1,14.9,15,14.8c0.1,0.1,0.1,0,0.1,0l0-0.2c0,0,0-0.1-0.1-0.1c0,0-0.1,0-0.1,0.1L15,14.8
		L15,14.8z"/>
	<path class="st0" d="M14.6,15.2l0-0.6c-0.1-0.1-0.2,0-0.2,0l0,0.5c-0.2,0.2-0.3,0-0.3,0l0-0.4c-0.2-0.1-0.2,0-0.2,0l0.1,0.6
		C14.3,15.6,14.6,15.2,14.6,15.2L14.6,15.2z"/>
	<path class="st0" d="M14.2,14.7C14.2,14.7,14.1,14.7,14.2,14.7l0,0.3c0,0,0,0.1,0.1,0.1c0,0,0.1,0,0.1-0.1L14.2,14.7
		C14.3,14.7,14.2,14.7,14.2,14.7L14.2,14.7z"/>
	<path class="st0" d="M13.3,15.1l0-0.1c-0.1-0.1-0.2,0-0.2,0l0,0.3c0.4,0.3,0.6-0.1,0.6-0.1l0-0.5c-0.1-0.1-0.2,0-0.2,0l0,0.3
		c-0.1,0-0.1,0-0.1,0l0-0.2c0-0.1-0.1,0-0.1,0S13.3,14.8,13.3,15.1C13.4,15.2,13.3,15.1,13.3,15.1L13.3,15.1z"/>
	<path class="st0" d="M3.1,3.3c0.1,0,0.1-0.1,0.1-0.2L2.8,2.4l-0.1,0l0.3,0.7C3.1,3.2,3.1,3.3,3.1,3.3C3,3.3,3,3.3,2.9,3.2L2.6,2.5
		l-0.1,0l0.3,0.8C2.9,3.4,3,3.4,3.1,3.3L3.1,3.3z"/>
	<polygon class="st0" points="3.4,3.2 3.2,2.4 3.2,2.4 3.5,3.2 3.6,3.1 3.4,2.2 3.3,2.3 3.5,3 3.5,3 3.2,2.3 3.1,2.3 3.3,3.2 
		3.4,3.2 	"/>
	<polygon class="st0" points="3.9,3.1 3.6,2.2 3.6,2.2 3.8,3.1 3.9,3.1 	"/>
	<polygon class="st0" points="4.2,3 4.1,2 4,2.1 4.1,2.9 4.1,2.9 3.9,2.1 3.8,2.1 4.1,3 4.2,3 	"/>
	<polygon class="st0" points="4.7,2.9 4.6,2.8 4.5,2.9 4.4,2.5 4.6,2.5 4.5,2.4 4.4,2.4 4.3,2.1 4.5,2.1 4.5,2 4.2,2 4.4,3 4.7,2.9 
			"/>
	<path class="st0" d="M4.9,2.9L4.8,2.4l0.1,0c0,0,0.1,0,0.1,0L5,2.9l0.1,0L5,2.4C5,2.4,5,2.4,4.9,2.4l0,0C5,2.3,5,2.3,5,2.2l0-0.2
		c0-0.1-0.1-0.1-0.2-0.1l-0.2,0L4.9,2.9L4.9,2.9L4.9,2.9z M4.7,2L4.7,2c0.1,0,0.1,0,0.1,0l0,0.2c0,0.1,0,0.1-0.1,0.1l-0.1,0L4.7,2
		L4.7,2z"/>
	<path class="st0" d="M5.1,2.1c0,0,0,0.1,0.1,0.1l0.2,0.2c0,0,0,0.1,0,0.1l0,0.1c0,0,0,0.1,0,0.1c0,0-0.1,0-0.1-0.1l0-0.1l-0.1,0
		l0,0.1c0,0.1,0.1,0.1,0.2,0.1c0.1,0,0.1-0.1,0.1-0.2l0-0.1c0,0,0-0.1,0-0.1L5.2,2.2C5.2,2.1,5.2,2.1,5.1,2.1L5.2,2c0,0,0-0.1,0-0.1
		c0,0,0.1,0,0.1,0.1l0,0.1l0.1,0l0-0.1c0-0.1-0.1-0.1-0.2-0.1C5.1,1.9,5.1,1.9,5.1,2L5.1,2.1L5.1,2.1z"/>
	<polygon class="st0" points="5.7,2.7 5.6,1.8 5.5,1.8 5.6,2.8 5.7,2.7 	"/>
	<path class="st0" d="M6.1,2.7c0.1,0,0.1-0.1,0.1-0.2L6.1,1.9c0-0.1,0-0.2-0.2-0.1l-0.1,0l0.1,1L6.1,2.7L6.1,2.7z M5.9,1.8
		C6,1.8,6,1.8,5.9,1.8l0.2,0.7c0,0.1,0,0.1-0.1,0.1l0,0L5.9,1.8L5.9,1.8L5.9,1.8z"/>
	<path class="st0" d="M6.4,2.4l0.2,0l0.1,0.3l0.1,0L6.5,1.7l-0.1,0l0,1l0.1,0L6.4,2.4L6.4,2.4z M6.4,1.8L6.4,1.8l0.1,0.5l-0.1,0
		L6.4,1.8L6.4,1.8z"/>
	<path class="st0" d="M7,2.6c0.1,0,0.1-0.1,0.1-0.2L7.1,1.8c0-0.1,0-0.2-0.2-0.1l-0.1,0l0.1,1L7,2.6L7,2.6z M6.9,1.7
		C6.9,1.7,7,1.7,6.9,1.7L7,2.4C7,2.5,7,2.5,7,2.5l0,0L6.9,1.7L6.9,1.7L6.9,1.7z"/>
	<polygon class="st0" points="7.6,2.5 7.5,1.7 7.5,1.7 7.7,2.5 7.8,2.5 7.8,1.6 7.7,1.6 7.7,2.4 7.7,2.4 7.6,1.6 7.4,1.6 7.5,2.6 
		7.6,2.5 	"/>
	<path class="st0" d="M8,2.2l0.2,0l0.1,0.3l0.1,0L8.1,1.5L8,1.6l-0.1,1l0.1,0L8,2.2L8,2.2z M8.1,1.6L8.1,1.6l0.1,0.5L8,2.2L8.1,1.6
		L8.1,1.6z"/>
	<path class="st0" d="M8.6,2.5c0.1,0,0.1-0.1,0.1-0.1l0-0.1l-0.1,0l0,0.1C8.6,2.4,8.6,2.4,8.6,2.5c0-0.1-0.1-0.1-0.1-0.1l0-0.7
		c0,0,0-0.1,0-0.1s0.1,0,0.1,0.1l0,0.1l0.1,0l0-0.1c0-0.1-0.1-0.1-0.1-0.1c-0.1,0-0.1,0.1-0.1,0.1l0,0.7C8.4,2.4,8.5,2.5,8.6,2.5
		L8.6,2.5z"/>
	<polygon class="st0" points="8.9,2.5 8.9,1.5 8.8,1.5 8.8,2.5 8.9,2.5 	"/>
	<path class="st0" d="M9.3,2.5c0.1,0,0.2-0.1,0.1-0.2l0-0.6c0-0.1,0-0.2-0.2-0.2c-0.1,0-0.2,0.1-0.1,0.2l0,0.6
		C9.1,2.4,9.1,2.5,9.3,2.5L9.3,2.5z M9.2,1.6C9.3,1.6,9.3,1.6,9.2,1.6l0.1,0.7c0,0.1,0,0.1-0.1,0.1c-0.1,0-0.1,0-0.1-0.1L9.2,1.6
		C9.2,1.6,9.2,1.6,9.2,1.6L9.2,1.6z"/>
	<polygon class="st0" points="9.6,2.4 9.6,1.6 9.6,1.6 9.8,2.4 9.9,2.4 9.9,1.5 9.8,1.5 9.8,2.3 9.8,2.3 9.7,1.5 9.6,1.5 9.6,2.4 
		9.6,2.4 	"/>
	<path class="st0" d="M10.1,2.2l0.2,0l0,0.3l0.1,0l-0.1-1l-0.1,0l-0.1,1l0.1,0L10.1,2.2L10.1,2.2z M10.2,1.5L10.2,1.5l0.1,0.6
		l-0.1,0L10.2,1.5L10.2,1.5z"/>
	<polygon class="st0" points="10.8,2.4 10.6,2.4 10.6,1.5 10.5,1.5 10.5,2.4 10.8,2.4 10.8,2.4 	"/>
	<path class="st0" d="M11.2,2.2l0.2,0l0,0.3l0.1,0l-0.1-1l-0.1,0l-0.2,1l0.1,0L11.2,2.2L11.2,2.2z M11.2,1.6L11.2,1.6l0.1,0.6
		l-0.1,0L11.2,1.6L11.2,1.6z"/>
	<path class="st0" d="M11.7,2.5c0.1,0,0.2,0,0.2-0.1l0-0.8l-0.1,0l0,0.8C11.8,2.4,11.7,2.4,11.7,2.5c0-0.1-0.1-0.1-0.1-0.2l0-0.8
		l-0.1,0l0,0.8C11.5,2.4,11.6,2.5,11.7,2.5L11.7,2.5z"/>
	<polygon class="st0" points="12.1,2.5 12.2,2.5 12.2,1.6 12.3,1.6 12.3,1.5 12,1.5 12,1.6 12.1,1.6 12.1,2.5 	"/>
	<path class="st0" d="M12.5,2.5c0.1,0,0.2-0.1,0.2-0.2l0-0.6c0-0.1,0-0.2-0.1-0.2c-0.1,0-0.2,0.1-0.2,0.2l0,0.6
		C12.4,2.4,12.4,2.5,12.5,2.5L12.5,2.5z M12.5,2.3l0-0.6c0-0.1,0-0.1,0.1-0.1c0.1,0,0.1,0,0.1,0.1l0,0.6C12.6,2.4,12.6,2.4,12.5,2.3
		C12.5,2.4,12.5,2.4,12.5,2.3L12.5,2.3z"/>
	<polygon class="st0" points="13,1.7 13,1.7 13,2.5 13.2,2.5 13.2,1.6 13.2,1.6 13.1,2.4 13.1,2.4 13,1.6 12.9,1.6 12.9,2.5 
		12.9,2.5 13,1.7 	"/>
	<path class="st0" d="M13.5,2.6c0.1,0,0.2-0.1,0.2-0.1l0.1-0.6c0-0.1,0-0.2-0.1-0.2c-0.1,0-0.2,0.1-0.2,0.1l-0.1,0.6
		C13.3,2.5,13.4,2.6,13.5,2.6L13.5,2.6z M13.4,2.4l0.1-0.6c0-0.1,0-0.1,0.1-0.1c0.1,0,0.1,0,0.1,0.1l-0.1,0.6
		C13.6,2.5,13.5,2.5,13.4,2.4C13.4,2.5,13.4,2.5,13.4,2.4L13.4,2.4z"/>
	<polygon class="st0" points="14,1.7 14,1.7 14,2.6 14.1,2.6 14.3,1.7 14.3,1.7 14.2,2.6 14.3,2.6 14.3,1.7 14.2,1.7 14,2.5 14,2.5 
		14,1.6 13.9,1.6 13.8,2.6 13.9,2.6 14,1.7 	"/>
	<path class="st0" d="M14.5,2.4l0.2,0l0,0.3l0.1,0l0-1l-0.1,0l-0.2,0.9l0.1,0L14.5,2.4L14.5,2.4z M14.7,1.8L14.7,1.8l0,0.6l-0.1,0
		L14.7,1.8L14.7,1.8z"/>
	<polygon class="st0" points="16,2 16,2 15.9,2.9 16,2.9 16.3,2 16.3,2 16.1,2.9 16.2,2.9 16.4,2 16.3,1.9 16,2.8 16,2.8 16.1,1.9 
		15.9,1.9 15.8,2.8 15.8,2.8 16,2 	"/>
	<polygon class="st0" points="16.6,3 16.6,2.9 16.5,2.9 16.6,2.5 16.7,2.5 16.7,2.5 16.6,2.4 16.6,2.1 16.8,2.1 16.8,2 16.6,2 
		16.4,2.9 16.6,3 	"/>
	<polygon class="st0" points="16.7,3 16.8,3 16.9,2.7 16.9,2.7 16.9,3.1 17,3.1 17,2.6 17.2,2.1 17.1,2.1 17,2.5 17,2.5 17,2.1 
		16.9,2.1 16.9,2.6 16.7,3 	"/>
	<polygon class="st0" points="17.2,3.1 17.5,2.2 17.4,2.2 17.1,3.1 17.2,3.1 	"/>
	<path class="st0" d="M17.5,3.2c0.1,0,0.1,0,0.2-0.1l0-0.1l-0.1,0l0,0.1C17.6,3.1,17.5,3.2,17.5,3.2c0-0.1,0-0.1,0-0.1l0.2-0.7
		c0,0,0-0.1,0.1,0c0,0,0,0,0,0.1l0,0.1l0.1,0l0-0.1c0-0.1,0-0.1-0.1-0.2c-0.1,0-0.1,0-0.2,0.1l-0.2,0.7C17.4,3.1,17.4,3.2,17.5,3.2
		L17.5,3.2z"/>
	<path class="st0" d="M17.9,3.4c0.1,0,0.2,0,0.2-0.1l0.2-0.6c0-0.1,0-0.2-0.1-0.2c-0.1,0-0.2,0-0.2,0.1l-0.2,0.6
		C17.8,3.2,17.8,3.3,17.9,3.4L17.9,3.4z M17.9,3.2l0.2-0.6c0,0,0-0.1,0.1-0.1c0.1,0,0,0.1,0,0.1L18,3.2c0,0,0,0.1-0.1,0.1
		C17.8,3.3,17.9,3.2,17.9,3.2L17.9,3.2z"/>
	<path class="st0" d="M2.1,3.1c0.2,0.2,0.2,0.3,0.2,0.5l0,0.1c0,0.1,0,0.3,0.1,0.4c0.1,0.1,0.2,0.1,0.5,0.1c0.2,0,0.4,0,0.7-0.1
		C4,4,4.5,3.9,5,4C4.9,4.1,4.5,4.4,3.8,4.3C3.1,4.2,2.3,4.2,2.1,4.6C1.9,4.8,1.9,5.1,2.1,5.5c0,0,0,0,0,0c0,0,0.6-0.2,0.4-0.8
		c0.2,0,0.4,0.1,0.6,0.2c0,0,0.1,0,0.1,0C2.9,5,2.6,5.2,2.6,5.4c0,0.1,0.1,0.2,0.5,0.3C3.4,5.9,3.7,6,4,6.1c0.8,0.4,1.4,0.8,1.5,0.7
		c0.1-0.1-1.9-0.9-1.4-1.6c0.3-0.4,0.7,0.1,0.3,0.2C4.1,5.5,4.9,6.4,6,6.7c0,0,0.2-0.2,0.3-0.3c0,0,0.2-0.1-0.1-0.2
		c-0.2-0.1-1.6-0.5-1-1C5.3,5.1,5.4,5,5.3,4.9c0.2-0.1,0.4-0.2,0.5-0.3c0.1-0.1,0.2-0.2,0.2-0.4c0-0.4-0.5-0.9-0.6-1
		C6.6,3,8.4,2.8,10.5,2.8c2.1,0,3.9,0.2,5.3,0.4c-0.2,0.2-0.6,0.7-0.6,1c0,0.1,0.1,0.3,0.2,0.4c0.1,0.1,0.2,0.2,0.3,0.2
		c-0.1,0.1-0.2,0.2-0.2,0.3c0,0.3,0.3,0.4,0.3,0.4c0,0.4-0.8,0.7-1.1,0.8c0.1,0,0.2,0.1,0.3,0.2c0.8-0.2,1-0.7,1.2-0.9
		c0.2-0.2-0.3-0.1-0.3-0.4c0-0.2,0.7-0.4,0.6,0.2c-0.1,0.6-1,1-1.3,1.1c0,0,0.1,0.1,0.1,0.1c0,0,0.1,0.1,0.1,0.1c0,0,0-0.1,0.1-0.1
		c0.1,0,0.1,0,0.2,0c0-0.1,0-0.1,0.1-0.1c0.1,0,0.1,0.1,0.1,0.1c0.1,0,0-0.2,0.1-0.1c0.1,0,0.1,0,0.1-0.1c0-0.1,0.1,0,0.1,0
		c0.1,0.1,0.1-0.1,0-0.1c0-0.1,0-0.1,0.1,0c0.1,0.1,0.2,0.1,0.1-0.1c-0.1-0.1,0-0.2,0.1-0.1c0.1,0.1,0.1,0,0-0.1
		c-0.1-0.1,0-0.1,0.1-0.1c0.1,0.1,0.2,0.1,0.1-0.1c-0.1-0.1-0.1-0.2,0.1-0.1c0.2,0.1,0.3,0.1,0.2,0c-0.2-0.1-0.2-0.3,0-0.1
		c0.2,0.1,0.4,0.1,0.1-0.1c-0.3-0.2,0.2,0,0.3,0.1c0.1,0.1,0.1-0.1-0.1-0.2c-0.2-0.1-0.1-0.2,0.2,0c0.3,0.1,0.3,0,0-0.1
		c-0.2-0.1-0.3-0.3,0-0.1c0.3,0.1,0.6,0.2,0.3,0c-0.1-0.1-0.2-0.1-0.3-0.2c0.1,0,0.2,0,0.4,0.1c0.4,0.3,0,0.5-0.3,0.7
		c-0.5,0.2-0.7,0.4-1.2,0.7c-0.3,0.2-0.7,0.3-1,0.3c0,0.1,0.1,0.1,0.1,0.2c0.4,0,0.9-0.2,1.3-0.4C17,6.5,17.7,6.1,18.2,6
		c0.4-0.1,0.8-0.3,0.2-0.7C18.2,5.1,18,5,17.8,4.9c0,0,0,0,0,0c0.2-0.1,0.4-0.1,0.6-0.2c-0.1,0.6,0.4,0.8,0.4,0.8c0,0,0,0,0,0
		c0.2-0.4,0.2-0.7,0.1-0.9c-0.3-0.4-1-0.3-1.7-0.3C16.4,4.4,16.1,4.1,16,4c0.1,0,0.2,0,0.3,0C16.5,4,16.8,4,17,4.1
		c0.6,0.1,1.2,0.2,1.5,0c0.1-0.1,0.1-0.2,0.1-0.3c0-0.3,0.2-0.5,0.3-0.7c0.1-0.2,0.2-0.4,0.2-0.5c0-0.1-0.1-0.2-0.3-0.3
		c-0.8-0.3-2-0.6-3.4-0.9c-1.5-0.2-3.3-0.4-5-0.4C7.1,1.1,4,1.5,2.3,2.2c0,0-0.3,0.1-0.4,0.3c0,0.1,0,0.2,0.1,0.3C2,3,2.1,3,2.1,3.1
		L2.1,3.1z M2.4,2.3C2.4,2.3,2.4,2.3,2.4,2.3c1.6-0.7,4.7-1.1,8-1.1c4.1,0,7,0.7,8.3,1.2C18.9,2.5,19,2.6,19,2.6
		c0,0.1-0.1,0.2-0.2,0.4c-0.1,0.2-0.3,0.4-0.3,0.7c0,0.1,0,0.1-0.1,0.2c0,0,0,0,0,0c0,0,0-0.1-0.1-0.1c-0.6-0.6-3.9-1.2-7.9-1.2
		c-2,0-4,0.2-5.6,0.4C4.1,3.2,3.5,3.4,3.1,3.5C2.8,3.7,2.6,3.8,2.5,3.9c0-0.1,0-0.2,0-0.3c0,0,0-0.1,0-0.1c0-0.2-0.1-0.3-0.2-0.6
		c0-0.1-0.1-0.1-0.2-0.2C2,2.7,2,2.6,2,2.6C2.1,2.4,2.3,2.3,2.4,2.3L2.4,2.3z M17.1,3.9c-0.3,0-0.5-0.1-0.7-0.1
		c-0.6,0-0.9,0.2-1.1,0.3c0-0.3,0.4-0.7,0.7-1c1.3,0.2,2.1,0.5,2.3,0.7c0,0,0,0.1,0,0.1c0,0,0,0,0,0C18,4.1,17.5,4,17.1,3.9
		L17.1,3.9z M15.9,4L15.9,4c0.1,0.1,0.5,0.5,1.4,0.4c0.4,0,1.2-0.1,1.5,0.1c-0.4-0.1-0.7,0.1-1,0.2c-0.1,0-0.1,0-0.2,0.1
		c-0.8-0.3-1.4-0.2-1.8,0c-0.2-0.1-0.3-0.2-0.4-0.2c-0.1-0.1-0.1-0.1-0.1-0.2C15.3,4.3,15.5,4.1,15.9,4C15.8,4,15.8,4,15.9,4L15.9,4
		z M18.6,4.7c0.1,0,0.2,0,0.3,0c0.1,0.1,0,0.3-0.1,0.6C18.7,5.2,18.5,5.1,18.6,4.7L18.6,4.7z M5.8,4.1C5.1,3.7,4.2,3.9,3.6,4
		C3.3,4,3.1,4.1,2.9,4.1c-0.1,0-0.2,0-0.3,0c0,0,0,0,0,0c0,0,0,0,0-0.1c0.2-0.2,1.1-0.5,2.5-0.7C5.4,3.4,5.7,3.8,5.8,4.1L5.8,4.1z
		 M5.1,4.8c-0.3-0.1-0.8-0.1-1,0c-0.1,0-0.3,0-0.4,0.1c-0.1,0-0.2-0.1-0.4-0.1c-0.3-0.1-0.6-0.2-1-0.2c0.3-0.2,1.1-0.2,1.5-0.1
		C4.7,4.5,5,4.1,5.1,4l0.1,0c0,0,0,0,0,0c0.2,0,0.4,0.1,0.6,0.2C5.8,4.5,5.5,4.7,5.1,4.8L5.1,4.8z M2.2,5.3C2.1,5.1,2.1,4.9,2.1,4.7
		c0.1,0,0.2,0,0.3,0C2.5,5,2.3,5.2,2.2,5.3L2.2,5.3z"/>
	<path class="st0" d="M11,5.9C10.9,5.9,10.9,5.9,11,5.9C10.9,5.9,10.9,5.9,11,5.9c0,0,0,0.5,0.5,0.5c0.5,0,0.9-0.4,1-0.5
		c0.1,0.1,0.3,0.5,0.5,0.4c0.1,0,0.2-0.1,0.2-0.2c0.1,0.1,0.3,0.2,0.5,0.2c0.2,0,0.4-0.1,0.5-0.4c0,0,0,0,0,0c0,0,0,0,0,0
		c0,0-0.4,0.1-0.7-0.1c-0.1-0.1-0.2-0.3-0.2-0.5c0-0.4,0-0.6,0.1-0.8c0.1,0.1,0.3,0.1,0.4,0.1c0.5,0,0.6-0.3,0.6-0.3c0,0,0,0,0,0
		c0,0,0,0,0,0c-0.2,0-0.3,0-0.3,0c0.2-0.1,0.4-0.1,0.5,0c0.1,0.1,0.1,0.2,0.1,0.2c0,0,0,0,0,0c0,0,0,0,0,0c0.2-0.2,0.2-0.3,0.2-0.5
		c-0.1-0.2-0.4-0.3-0.8-0.4c-0.5-0.1-0.7-0.6-0.7-0.7c0,0,0,0,0,0c0,0,0,0,0,0c-0.1,0.1-0.2,0.1-0.3,0.2l-0.3-0.4c0,0,0,0,0,0
		c0,0,0,0,0,0c0,0-0.1,0.2-0.1,0.4c-0.1-0.1-0.2-0.2-0.2-0.3c0,0,0,0,0,0c0,0,0,0,0,0c0,0-0.3,0.3,0,0.8c-0.1,0-0.3,0.1-0.9,0
		c0,0,0,0,0,0c0,0,0,0,0,0c0,0,0,0.2,0.1,0.3c0.1,0.1,0.3,0.2,0.5,0.2c-0.1,0.1-0.3,0.2-0.8,0c0,0,0,0,0,0c0,0,0,0,0,0
		c0,0,0.1,0.6,0.9,0.5C11.9,5,11.5,5.3,11,5.2c0,0,0,0,0,0c0,0,0,0,0,0c0,0,0,0.3,0.2,0.5c0.2,0.1,0.5,0.1,0.9-0.2
		C12.1,5.6,11.8,6,11,5.9L11,5.9z M12.2,4.4c0,0,0-0.1,0-0.1c0,0-0.1-0.1-0.1-0.1c-0.2,0-0.4-0.1-0.5-0.2c0,0,0-0.1,0-0.1
		c0.6,0.1,0.8,0,0.8,0c0,0,0,0,0.1-0.1c0,0,0-0.1,0-0.1c-0.1-0.2-0.2-0.3-0.1-0.4c0.1,0.1,0.2,0.2,0.2,0.2c0,0,0.1,0,0.1,0
		c0,0,0.1-0.1,0-0.1c0-0.1-0.1-0.2,0-0.2l0.2,0.3c0,0,0,0,0,0.1c0,0.2,0,0.3,0,0.3c-0.4,0.3-0.4,0.5-0.4,0.6c0,0.1-0.2,0.3-0.5,0.3
		c-0.3,0-0.5-0.1-0.6-0.2C12,4.6,12.2,4.4,12.2,4.4L12.2,4.4z M13.2,3.3c0,0.1,0.1,0.2,0.2,0.3l-0.2,0L13,3.4
		C13.1,3.4,13.1,3.3,13.2,3.3L13.2,3.3z M14.6,4.3C14.6,4.3,14.5,4.3,14.6,4.3c-0.2-0.2-0.4-0.2-0.7,0c0,0-0.1,0.1-0.1,0.1
		c0,0,0,0.1,0.1,0.1c0,0,0.1,0,0.2,0c-0.1,0-0.2,0-0.3,0c-0.1,0-0.3-0.1-0.4-0.1c0-0.1,0.1-0.1,0.2-0.2c0,0,0,0,0.1,0
		c0.1-0.1,0.2-0.2,0.3-0.4c0,0,0,0,0,0c0.2,0,0.6,0.1,0.7,0.3C14.6,4.2,14.6,4.3,14.6,4.3L14.6,4.3z M13.9,6.1
		c-0.1,0.1-0.1,0.1-0.2,0.1c-0.2,0-0.4-0.2-0.4-0.2c0,0,0,0-0.1,0c0-0.1-0.1-0.2-0.1-0.3c0,0,0,0,0,0c0,0.1,0.1,0.2,0.2,0.3
		C13.5,6.1,13.7,6.1,13.9,6.1L13.9,6.1z M13,3.5l0.1,0.1c0,0,0.1,0,0.1,0c0,0,0.1,0,0.2,0c0,0.1,0,0.1-0.1,0.1c-0.1,0-0.1,0-0.2,0
		c0,0,0,0,0,0C13,3.8,12.9,3.7,13,3.5L13,3.5z M13.5,4.1C13.5,4.2,13.5,4.2,13.5,4.1c-0.1,0.1-0.2,0.2-0.3,0.2c0,0,0,0-0.1,0
		C13.2,4.3,13.3,4.2,13.5,4.1c0.1-0.1,0.1-0.3,0.1-0.4c0,0,0.1,0,0.1,0.1C13.7,3.9,13.6,4.1,13.5,4.1L13.5,4.1z M12.6,5.9
		c0,0-0.1-0.1-0.1-0.3c0.1-0.1,0.2-0.1,0.2-0.2c0,0.1,0,0.2,0.1,0.3c0,0,0,0,0.1,0C12.8,5.8,12.7,5.9,12.6,5.9L12.6,5.9z M12.6,5
		C12.6,5,12.6,5,12.6,5c0,0,0.1,0,0.2-0.1c0,0,0,0.1,0,0.1c-0.2,0.3-0.4,0.5-0.5,0.5C12.3,5.4,12.4,5.2,12.6,5L12.6,5z M13.1,5.5
		c-0.1,0-0.1,0-0.2,0c-0.1-0.1,0-0.3,0-0.5c0,0,0.1,0,0.1,0c0,0.1,0,0.2,0,0.3C13.1,5.4,13.1,5.5,13.1,5.5L13.1,5.5z M13,3.9
		c0.1,0,0.2,0,0.3,0c0.1,0,0.1-0.1,0.2-0.3c0,0,0,0,0,0l0,0l0,0v0c0,0,0,0.2-0.1,0.3c-0.1,0.1-0.2,0.2-0.3,0.3c0,0-0.1-0.1-0.1-0.1
		c0,0-0.1-0.1-0.1,0c0,0-0.1,0-0.1,0.1c0,0,0,0-0.2,0.1C12.6,4.2,12.7,4.1,13,3.9C13,3.9,13,3.9,13,3.9L13,3.9z M13,5.8
		C13,5.9,13,6,13.1,6.1c0,0,0,0,0,0C13,6.2,13,6.3,13,6.3c-0.1,0-0.2-0.1-0.3-0.2C12.8,6,12.9,5.9,13,5.8L13,5.8z M13,4.9
		c0-0.1-0.1-0.2,0-0.4c0,0,0,0,0,0c0,0,0,0,0,0c0,0-0.1,0.1-0.3,0.2c0,0,0-0.1,0-0.2c0,0,0,0,0,0c0.2-0.1,0.3-0.1,0.3-0.2
		c0,0,0.1,0.1,0.2,0.2c0,0.1,0,0.2-0.1,0.3C13.1,4.8,13,4.9,13,4.9L13,4.9z M12.2,4.9C12.2,4.9,12.2,4.9,12.2,4.9
		c0.1-0.1,0.2-0.1,0.2-0.2c0,0,0,0.1,0,0.1c-0.1,0.2-0.2,0.4-0.3,0.5c0,0,0,0,0,0c-0.4,0.2-0.7,0.3-0.8,0.2c-0.1,0-0.1-0.1-0.1-0.2
		C11.8,5.4,12.2,5,12.2,4.9L12.2,4.9z M12.2,5.6c0,0,0.1,0,0.1,0c0,0,0,0.1,0,0.2c0,0,0,0,0,0c0,0-0.4,0.4-0.9,0.4
		c-0.2,0-0.3-0.1-0.4-0.2C11.9,6.1,12.1,5.8,12.2,5.6L12.2,5.6z"/>
	<path class="st0" d="M3.3,14.7c0-0.1,0-0.1,0-0.2c0,0-0.1,0-0.1,0.1c0,0,0,0,0,0c0,0,0,0,0,0c0,0-0.1,0.1-0.3,0.1
		c-0.1,0-0.3,0.1-0.3,0.2c0,0.1-0.1,0.1,0,0.2c0.1,0.1,0.1,0.2,0.2,0.2c0,0,0,0,0-0.1l0,0c0,0,0-0.1,0-0.1c0,0,0,0,0,0
		c0.1,0,0.1,0,0.2,0c0,0,0,0,0-0.1C3,15,3,15,3,15c0,0,0,0,0,0c0,0,0,0,0.1,0C3.2,14.9,3.3,14.9,3.3,14.7L3.3,14.7z M2.8,15
		C2.8,15,2.8,14.9,2.8,15C2.8,14.9,2.8,14.9,2.8,15C2.8,14.9,2.8,14.9,2.8,15L2.8,15z"/>
	<path class="st0" d="M19.3,14.6C19.2,14.6,19.2,14.5,19.3,14.6c-0.1-0.1-0.2-0.1-0.3-0.1c-0.1,0-0.1,0-0.1,0c0,0.1,0,0.2,0.1,0.3
		c0,0,0,0.1,0,0.1c-0.1,0-0.2,0-0.2-0.1c-0.1,0-0.1,0-0.1,0c-0.1,0.1-0.1,0.3-0.1,0.5c-0.2,0-0.4,0.2-0.5,0.3c0-0.1,0-0.2-0.1-0.2
		c0,0-0.1,0-0.2,0c-0.1,0-0.2,0-0.3,0.1c0,0,0-0.1,0-0.1c0,0,0-0.1-0.1-0.1c-0.1,0-0.2,0-0.2,0.1c0,0,0,0.1,0,0.1
		c0,0.1,0.1,0.1,0.2,0.2c0,0,0,0,0,0c0,0.1-0.1,0.1,0,0.2c0,0.1,0.2,0.2,0.3,0.2c-0.2,0.2-0.4,0.3-0.7,0.3c0,0-0.3-0.3-0.8-0.2
		l-0.1,0c-0.5,0.1-0.9,0.2-1,0.7C15,16.9,14.9,17,14.9,17c-0.1,0.1-0.2,0.3-0.3,1.1c-0.1,0-0.4,0.1-0.6,0.3c0,0-0.1,0-0.2,0
		c-0.1,0-0.3,0-0.4,0.2c-0.1,0.1-0.2,0.1-0.2,0.1c-0.1,0-0.1,0-0.2,0.1c-0.1,0-0.1,0-0.2,0c0-0.1,0.1-0.3,0.3-0.3
		c0.2,0,0.6-0.2,0.8-0.4c0,0,0,0,0,0c0.1-0.1,0.2-0.2,0.2-0.3c0.1-0.1,0.2-0.1,0.1-0.3c0-0.1,0-0.2,0-0.3c0-0.1,0.1-0.2,0-0.3
		c0.1,0,0.3-0.1,0.3-0.2c0,0,0-0.1,0-0.1c0,0,0-0.1,0-0.2c0-0.1,0.1-0.2,0-0.3c0,0-0.1,0-0.1-0.1c0,0-0.1-0.1-0.1-0.1
		c-0.1,0-0.1,0-0.2,0.1c0,0-0.1,0-0.2,0c0,0-0.1,0.1-0.1,0.2l-0.1,0.2c-0.1,0-0.2,0-0.5,0.2L13,16.7c-0.3,0.2-0.5,0.3-0.6,0.7
		c0,0.2-0.1,0.3-0.1,0.3c0,0,0,0-0.1,0c-0.1,0-0.1-0.1-0.2-0.1c-0.1-0.1-0.3-0.1-0.3-0.2c-0.2-0.2-0.4-0.2-0.7,0
		c-0.3,0.2-0.6,0.2-0.9,0c-0.1,0-0.1,0-0.2-0.1c-0.4-0.1-0.9-0.3-1-0.6c0,0-0.1-0.1-0.1-0.1c-0.2-0.2-0.3-0.4-0.6-0.4
		c0,0-0.2-0.1-0.5,0.1c0,0,0,0,0,0c0,0,0,0,0,0c0,0,0,0,0,0c-0.1-0.1-0.1-0.1-0.3,0c0,0-0.3,0.2-0.4,0.4c0,0,0,0,0,0
		c-0.1-0.3-0.3-0.5-0.4-0.5c-0.1,0-0.2-0.1-0.3-0.3c-0.1-0.1-0.1-0.1-0.2-0.2c-0.1,0-0.1-0.1-0.2-0.1c-0.1,0-0.2,0.1-0.3,0.2l0,0
		c-0.1,0.1-0.3,0.2-0.4,0.3c-0.1,0-0.1,0.1-0.2,0.1c0,0,0,0,0,0c-0.1,0-0.1-0.1-0.1-0.1c-0.1-0.2-0.2-0.4-0.3-0.5
		c0-0.1,0-0.3-0.1-0.4c0.1,0,0.2-0.1,0.2-0.2c0-0.1,0-0.1,0-0.1c0-0.1-0.1-0.1-0.3-0.1C4.2,14.8,4.1,15,4,15c-0.1,0-0.2,0-0.3,0.1
		c0-0.1,0-0.1-0.1-0.2c-0.2-0.2-0.5,0.1-0.7,0.3c-0.1,0.1-0.1,0.2-0.1,0.3c0,0,0,0,0,0c0,0,0,0,0,0c0,0,0,0,0,0c0,0-0.1,0-0.2,0
		c0-0.1-0.1-0.4-0.3-0.4c0,0-0.1,0-0.1,0c0,0,0,0,0-0.1c0-0.1,0-0.1-0.1-0.2c0,0-0.1-0.1-0.2-0.1c-0.1,0-0.2,0.1-0.2,0.2
		c0,0.1,0,0.1,0.1,0.2c0,0,0,0,0,0c0,0-0.1,0.1-0.1,0.1c0,0,0,0.1,0.1,0.2c0.1,0.1,0.1,0.1,0.2,0.2C2,15.8,2,15.9,2,16c0,0,0,0,0,0
		c0,0-0.1,0.1-0.1,0.1c0,0.1,0.1,0.1,0.1,0.1c0,0.1,0,0.2,0,0.3c0,0-0.1,0.1,0,0.1c0,0,0,0,0.1,0c0,0,0,0,0,0c0,0,0.1,0.1,0.1,0.1
		c0,0,0,0,0,0c0,0.1,0,0.2,0,0.2c0,0,0.1,0,0.2,0c0,0,0.1,0.1,0.1,0.1c0.1,0,0.1,0.1,0.2,0.1c0,0.1,0,0.2,0.1,0.2c0,0,0.1,0,0.1,0
		c0.2,0.1,0.3,0.2,0.3,0.3c-0.1,0.1-0.3,0.3-0.3,0.3c0,0-0.1,0-0.1,0c0,0.1,0,0.2,0,0.3c0,0-0.2,0.2-0.1,0.3c0,0,0,0.1,0.1,0.1
		c0,0,0.1,0.1,0.1,0.1c0,0,0,0-0.1,0c-0.1,0-0.3,0.1-0.3,0.2c0,0.1,0,0.2,0.1,0.3c0,0,0,0,0,0l-0.1,0.1c0,0-0.2,0-0.1,0.2
		c0.1,0.2,0.3,0.2,0.3-0.1l0.1-0.1c0.1,0.1,0.2,0.1,0.3,0.1c0.1,0,0.2-0.1,0.2-0.3c0.1,0,0.5,0.2,0.9,0.2c0,0,0.1,0.1,0.2,0.1
		c0.1,0,0.1-0.1,0.1-0.1c0.1,0,0.3,0,0.5,0c0,0,0.1,0.1,0.1,0.1C5,19.6,5,19.6,5,19.5c0,0,0.1,0,0.1,0c0.1,0,0.3-0.1,0.5-0.1
		c0,0,0,0,0,0c0.1,0.1,0.1,0.2,0.2,0.2c0,0,0,0,0,0c0,0,0,0.1,0,0.1c0,0,0.1,0.1,0.2,0.1l0,0c0.2,0,0.3,0,0.3,0.1l0,0
		c0,0.1,0.1,0.1,0.1,0.1c0,0,0.1,0,0.2-0.1c0.2-0.1,0.3,0,0.4,0c0,0,0.1,0.1,0.2,0.1c0.1,0,0.1-0.1,0.1-0.2c0,0,0.1,0,0.1,0
		c0.1,0,0.2,0,0.4-0.1c0,0,0.4-0.2,0.6-0.3c0,0.1,0,0.1,0.1,0.2c0,0.2-0.7,0.5-0.4,1c0,0.1,0.1,0,0.1,0s-0.1-0.2,0-0.3
		c0.1-0.1,0.5,0,0.7-0.2c0.1,0.3,0.4,0.3,0.4,0.3c0,0,0,0,0,0l0.1-0.7c0,0.1,0.1,0.2,0.2,0.2c0.1,0,0.2,0,0.2,0
		c0.2,0.3,0.5,0.3,0.5,0.2c0.1,0,0.2,0,0.2-0.1c0,0,0-0.1-0.2-0.2c0,0,0,0,0,0c0,0,0,0,0,0c0.1,0,0.3,0,0.4,0.3
		c0.2,0.4,0.6,0.3,0.6,0.3c0,0,0,0,0,0c0,0,0,0,0,0c-0.1,0-0.1-0.1-0.1-0.2c0.3,0.2,0.5,0.3,0.7,0.3c0.2,0,0.4-0.2,0.4-0.2
		c0,0,0,0,0,0c0,0,0,0,0,0c-0.3,0.1-0.4,0-0.5-0.2c0.1,0,0.3-0.1,0.5-0.4c0.1,0,0.4-0.1,0.8,0c0,0,0.1,0,0.1,0
		c0.4,0.1,1.3,0.4,1.9,0c0.4-0.3,0.5-0.5,0.5-0.6c0,0,0,0,0-0.1c0.1,0,0.1,0,0.1,0c0,0,0,0,0,0c0.1,0,0.3,0.1,0.5,0.1
		c0,0,0.1,0,0.1,0c0,0-0.1,0.2,0,0.2c0.1,0.1,0.4-0.1,0.4,0s0.1,0.1,0.4,0c0,0,0.1,0,0.1,0c0,0.1,0.1,0.1,0.2,0.1
		c0,0,0.1-0.1,0.2-0.1c0.1,0,0.2,0,0.2,0c0.1,0.1,0.1,0.1,0.2,0c0,0,0-0.1,0.1-0.1c0.1-0.1,0.2-0.1,0.2-0.2c0.1-0.1,0.1-0.3,0-0.4
		c0,0,0.1-0.1,0.1-0.2c0-0.1-0.1-0.1-0.2-0.2c0-0.1-0.1-0.1-0.1-0.2c0,0,0-0.1,0-0.1c0-0.2-0.2-0.2-0.2,0c-0.4-0.2-1-0.2-1.4-0.1
		c-0.1,0-0.2,0.1-0.3,0.1c-0.3,0.1-0.7,0.2-0.8,0c0-0.1,0.1-0.3,0.6-0.5c0.3-0.1,1.1-0.5,1.3-1c0.2,0,1.3,0.1,1.6-0.3
		c0.2-0.4,0.5-0.7,0.2-1c0.1-0.1,0.2-0.2,0.3-0.3c0-0.1,0.1-0.1,0-0.2c0,0-0.1-0.1-0.1-0.1c0,0,0.1-0.1,0.2-0.1
		c0.1,0,0.1-0.1,0.1-0.1C19.4,14.7,19.3,14.6,19.3,14.6L19.3,14.6z M4.4,15c0.1,0,0.2,0,0.2,0C4.5,15.2,4.5,15.2,4.4,15
		c0,0.1-0.1,0.1-0.1,0C4.3,15,4.3,15,4.4,15L4.4,15z M17.3,15.4C17.3,15.3,17.3,15.3,17.3,15.4C17.3,15.3,17.3,15.3,17.3,15.4
		C17.3,15.3,17.3,15.3,17.3,15.4L17.3,15.4z M18.1,18.9C18.1,18.9,18.1,18.9,18.1,18.9c0,0.1,0.1,0.2,0,0.4c0,0.1-0.1,0.2-0.3,0.2
		c-0.5,0.1-1.1-0.1-1.4-0.2c0,0-0.1,0-0.1,0C16,19,15.6,19,15.6,19c0,0,0,0,0,0c-0.2-0.1-0.3-0.1-0.3-0.3c0-0.1,0.1-0.2,0.2-0.2
		c0.2,0,0.4-0.1,0.7-0.1c0.1,0,0.2-0.1,0.3-0.1c0.4-0.1,1-0.1,1.4,0.1C18.1,18.6,18.1,18.9,18.1,18.9L18.1,18.9z M15.4,19.2
		c0,0,0,0.2-0.4,0.5c-0.5,0.4-1.3,0.1-1.8,0c0,0,0,0,0,0c0,0-0.1,0-0.1,0c-0.4-0.1-0.7,0-0.8,0c0-0.1,0-0.3,0-0.4
		c0-0.1,0.1-0.2,0.2-0.3c0.1,0,0.2,0,0.3-0.1c0,0,0.1,0,0.2,0c0,0.1-0.1,0.2,0,0.2c0.1,0,0.3,0.1,0.2-0.3c0.1,0,0.2,0,0.3-0.1
		c0,0,0,0,0,0c0.1-0.2,0.2-0.2,0.3-0.2c0.1,0,0.1,0,0.2,0c0,0,0,0,0,0c0.2-0.1,0.6-0.3,0.6-0.3c0,0,0,0,0,0c0.1,0.1,0.3,0.1,0.5,0.1
		c0,0,0,0,0,0c0,0,0.1,0.1,0.1,0.1c-0.1,0.1-0.1,0.2-0.1,0.3c0,0.1,0,0.2,0.1,0.2C15.2,19,15.3,19.1,15.4,19.2
		C15.4,19.2,15.4,19.2,15.4,19.2L15.4,19.2z M11.1,20.3c0,0-0.1,0.1-0.1,0.1c0,0,0,0.1,0,0.1c-0.1,0-0.2-0.1-0.2-0.2
		c-0.2-0.3-0.4-0.4-0.6-0.4c0,0-0.1,0-0.1,0c0,0,0-0.1,0-0.1c0.1,0,0.3,0,0.4-0.1c0,0,0,0,0,0c0,0,0,0,0,0c0.1,0.1,0.6,0.3,0.7,0.5
		c0,0,0.1,0.1,0.1,0.1c0.1,0.1,0.1,0.1,0.2,0.2c-0.1,0-0.3-0.1-0.5-0.2C11.2,20.2,11.2,20.2,11.1,20.3L11.1,20.3z M8.8,20.3
		C8.8,20.3,8.8,20.3,8.8,20.3C8.8,20.3,8.8,20.3,8.8,20.3L8.8,20.3L8.8,20.3z M8.8,20.2C8.8,20.2,8.8,20.2,8.8,20.2
		C8.8,20.2,8.8,20.2,8.8,20.2C8.8,20.2,8.8,20.2,8.8,20.2L8.8,20.2z M9,20.3C9,20.3,9,20.3,9,20.3c0-0.2,0.1-0.4,0-0.5
		c0-0.1,0-0.1-0.1-0.1c-0.1,0-0.1,0-0.1,0c0,0,0.1,0.6-0.3,0.7c-0.1,0-0.2,0-0.3,0.1c-0.1,0-0.2,0.1-0.2,0.1c0-0.3,0.5-0.4,0.5-0.7
		c0-0.2-0.2-0.5-0.3-0.5c0,0-0.3-0.3-0.4-0.6c0,0,0,0,0,0c0,0,0-0.1,0-0.1c0,0,0-0.1,0-0.1c0.1-0.3,0.3-0.7,0.7-0.6
		c0,0,0.1,0,0.2,0.1C9,18.1,9,18.2,9,18.2c0,0.2-0.2,0.2-0.2,0.2c0,0,0-0.3-0.2-0.3c-0.1,0-0.3,0.1-0.3,0.3c0,0.2,0,0.3,0.2,0.4
		c0.1,0,0.1,0,0.2,0.1c0.1,0,0.2,0.1,0.2,0.1c0,0,0,0,0,0c0,0,0,0,0,0c0,0,0,0,0,0.1c0,0.1,0.1,0.1,0.2,0.1c0.3,0,0.6,0.1,0.6,0.4
		c0,0.2-0.1,0.3-0.2,0.3c0-0.1-0.1-0.4-0.5-0.5c-0.5-0.2-0.6-0.3-0.7-0.7c0,0,0,0,0,0c0,0-0.1,0-0.1,0c0,0,0,0.1,0,0.1
		c0,0,0.1,0.4,0.4,0.5c0.1,0,0.1,0.1,0.2,0.1c0.2,0.1,0.5,0.2,0.6,0.4c0,0-0.1,0.1-0.1,0.1l-0.1,0.6C9.1,20.4,9,20.4,9,20.3L9,20.3z
		 M7.2,20.1C7.2,20,7.2,20,7.2,20.1C7.2,20,7.2,20,7.2,20.1C7.1,20,6.9,19.8,6.6,20c0,0-0.1,0-0.1,0c0,0,0,0,0,0l0,0
		c-0.1-0.2-0.3-0.2-0.4-0.2c0,0,0,0,0,0c0,0,0,0,0,0c0-0.1,0-0.1,0-0.2c0,0-0.1-0.1-0.1-0.2c-0.1-0.2,0.1-0.6,0.1-0.7
		c0.1-0.1,0.5-0.3,0.8-0.3c0.3,0,0.8,0.2,1,0.3c0,0.4,0.4,0.8,0.4,0.8c0,0,0,0,0.1,0.1c-0.2,0.1-0.5,0.3-0.6,0.3
		c-0.1,0.1-0.2,0.1-0.3,0.1C7.4,19.9,7.4,19.9,7.2,20.1C7.2,20,7.2,20,7.2,20.1C7.2,20,7.2,20.1,7.2,20.1L7.2,20.1z M4.3,19.4
		c-0.4,0.1-1-0.1-1-0.1c0,0-0.1,0-0.1,0c0,0-0.1,0.1-0.1,0.1c0,0,0,0.1-0.1,0.2c-0.1,0-0.2,0-0.3-0.2c-0.1-0.1-0.1-0.1-0.1-0.2
		c0,0,0-0.1,0.2-0.1c0.1,0,0.1-0.1,0.2-0.2c0-0.1-0.1-0.2-0.1-0.2c0,0,0,0,0,0c0,0,0-0.1,0.1-0.1c0,0,0.1-0.1,0-0.2
		c0-0.1,0-0.1,0-0.1c0.2,0,0.4-0.3,0.4-0.3c0,0,0-0.1,0-0.1c0-0.2-0.7-0.6-0.7-0.6c-0.1-0.1-0.2-0.2-0.3-0.3c0-0.1-0.1-0.1-0.1-0.2
		c-0.1-0.1-0.1-0.4,0-0.7c0-0.2,0.1-0.3,0.1-0.3c0.1-0.1,0.3,0,0.4,0c0,0,0.1,0,0.1,0c0,0,0,0,0,0c0,0,0,0,0.1,0c0,0,0,0,0,0
		c0,0,0,0.1,0,0.1c0,0,0,0.1,0.1,0.1c0,0.1,0.1,0.2,0.2,0.3c0.1,0.1,0.2,0.2,0.2,0.3c0.1,0.1,0.2,0.4,0.4,0.8c0,0.1,0,0.3,0,0.5
		c0,0,0,0.1,0,0.1c0,0.1-0.1,0.2,0,0.2c0.1,0,0.1,0,0.2-0.2c0,0,0,0,0.1,0c0,0,0,0,0,0c0,0,0,0,0.4,0c0,0,0,0,0,0
		c0.1,0,0.3,0.1,0.4,0.2c0,0,0.1,0.1,0.1,0.1c0.1,0.1,0.3,0.3,0.5,0.4c0.1,0.1,0.2,0.1,0.3,0.1c-0.1,0.1-0.1,0.3-0.1,0.5
		c-0.3,0-0.5,0-0.6,0.1C5,19.4,4.6,19.4,4.3,19.4C4.3,19.4,4.3,19.4,4.3,19.4L4.3,19.4z M2.4,15.5c-0.1,0-0.1,0-0.2,0.1
		c0,0-0.1,0-0.1,0.1c-0.1-0.1-0.1-0.1-0.2-0.2c0,0,0,0,0,0c0-0.1,0.2-0.1,0.4-0.2C2.3,15.3,2.4,15.4,2.4,15.5L2.4,15.5z M3.1,15.3
		C3.4,15,3.5,15,3.6,15c0,0,0,0.1-0.1,0.2c-0.1,0.1-0.1,0.2-0.1,0.3c-0.1,0-0.2,0.1-0.2,0.1c0,0,0-0.1-0.1-0.1c0,0,0,0-0.1-0.1
		C3,15.5,3,15.4,3.1,15.3L3.1,15.3z M5.7,15.9C5.7,15.9,5.7,15.9,5.7,15.9c0.1-0.1,0.2-0.2,0.2-0.2c0,0,0,0,0,0
		C6,15.8,6,15.9,6.1,15.9c0.1,0.1,0.2,0.3,0.4,0.3c0,0,0.1,0.1,0.3,0.4c0,0.1,0.1,0.1,0.1,0.1c0,0,0,0.1,0.1,0.1
		c0.2,0.1,0.3,0.2,0.5,0.2c0.1,0,0.2,0,0.3,0.1c0.2,0.2,0.4,0.3,0.6,0.4c0.1,0,0.2,0.1,0.3,0.2c-0.3,0-0.6,0.3-0.7,0.7c0,0,0,0,0,0
		c-0.1,0-0.3-0.1-0.4-0.1c0,0,0-0.1,0-0.2c0-0.1-0.2-0.3-0.2-0.1c0,0,0,0.1,0,0.1c0,0,0,0.1,0,0.1c-0.1,0-0.2-0.1-0.4-0.1
		c0,0,0-0.1,0-0.1c-0.1-0.1-0.1-0.1-0.1,0c0,0,0,0.1,0,0.1c-0.2,0-0.3,0.1-0.5,0.1c0,0,0-0.1,0-0.2c0-0.1,0-0.2-0.1-0.1
		c0,0-0.1,0.1-0.1,0.2c0,0.1,0,0.1,0.1,0.1c-0.2,0.1-0.3,0.2-0.3,0.3c0,0,0,0,0,0c-0.1,0-0.2,0-0.3-0.1c-0.1-0.1-0.2-0.2-0.3-0.3
		c0-0.1,0-0.2,0-0.3c0,0-0.1,0-0.1,0.1C5,18,5,17.9,5,17.9c0,0,0,0-0.1-0.1c0-0.1,0-0.2,0-0.2c0,0-0.1,0.1-0.1,0.1
		c-0.1,0-0.2-0.1-0.3-0.1l0,0c0,0,0,0,0,0c0-0.1,0-0.2,0-0.2c0,0-0.1,0.1-0.1,0.1c-0.1,0-0.2,0-0.3,0c0-0.1,0.1-0.3,0-0.4l0,0
		c0.2-0.2,0.9-0.7,1.1-0.8c0,0,0.1-0.1,0.2-0.1C5.4,16.2,5.6,16.1,5.7,15.9L5.7,15.9z M7.1,16.7C7.1,16.7,7.1,16.7,7.1,16.7
		L7.1,16.7c0.1-0.1,0.2-0.3,0.3-0.4c0,0,0.1,0,0.1,0c0,0,0,0,0,0c0.1,0.1,0.1,0.1,0.2,0.1c0,0,0.1,0,0.1-0.1
		c0.2-0.1,0.3-0.1,0.3-0.1c0,0,0,0,0.1,0c0.3,0,0.3,0.1,0.5,0.4c0,0,0.1,0.1,0.1,0.1c0.2,0.2,0.5,0.4,0.9,0.5c0,0,0,0,0,0
		c0,0-0.1,0,0,0.1c0.1,0.1,0.2,0.3,0.2,0.2c0,0,0-0.2-0.1-0.3c0,0,0.1,0,0.1,0c0.1,0,0.1,0.1,0.2,0.1c0.4,0.2,0.7,0.2,1.1,0
		c0.3-0.2,0.4-0.1,0.4,0c0.1,0.1,0.2,0.2,0.4,0.3c0.1,0,0.1,0.1,0.2,0.1c0.1,0,0.1,0.1,0.1,0.1c0,0,0,0,0,0c0,0,0,0,0,0l0,0
		c0,0,0,0,0,0c0,0,0,0,0,0c0,0-0.1,0.3-0.2,0.6c-0.1,0.2-0.2,0.2-0.2,0.2c-0.6-0.2-1,0-1.2,0.2c-0.1,0.1-0.2,0.1-0.2,0.1
		c-0.1,0-0.1,0-0.1,0c0,0,0,0,0,0c0,0,0-0.1-0.1-0.1c0,0,0-0.1,0-0.1c0-0.1-0.1-0.2-0.2-0.3c-0.2-0.2-0.7-0.5-1-0.7
		c-0.1-0.1-0.1-0.1-0.2-0.1c-0.1-0.1-0.3-0.3-0.5-0.4c-0.1-0.1-0.3-0.2-0.5-0.4C7.8,17,7.7,17,7.6,16.9c0-0.1,0-0.2-0.1-0.2
		c-0.1,0-0.1,0.1-0.1,0.2C7.3,16.9,7.2,16.9,7.1,16.7C7.1,16.8,7.1,16.8,7.1,16.7C7.1,16.7,7.1,16.7,7.1,16.7L7.1,16.7L7.1,16.7z
		 M13.7,16.6C13.7,16.6,13.7,16.6,13.7,16.6C13.7,16.6,13.7,16.6,13.7,16.6c0,0,0,0.1,0.1,0.1c0.1,0,0.2-0.1,0.1-0.2
		c0-0.1,0.1-0.2,0.1-0.2c0,0,0-0.1,0-0.1c0,0,0,0,0,0c0,0,0,0,0.1,0c0.1,0,0.1,0,0.1,0c0,0,0.1-0.1,0.1-0.1c0,0,0,0,0,0.1
		c0,0.1,0.1,0.1,0.1,0.1c0,0,0,0,0,0c0,0,0,0.1,0,0.2c0,0.1,0,0.2,0,0.2c0,0-0.1,0.1-0.2,0.1c-0.1,0-0.1,0.1-0.1,0.1
		c0,0.1,0,0.1,0.1,0.1c0,0,0,0.1,0,0.1c0,0.1-0.1,0.3,0,0.4c0,0,0,0-0.1,0.1c-0.1,0.1-0.2,0.2-0.3,0.3c-0.1,0.1-0.4,0.3-0.7,0.4
		c-0.3,0.1-0.4,0.5-0.4,0.5c0,0,0,0.1,0,0.1c-0.1,0-0.4,0.1-0.5-0.1c0.1,0,0.2-0.1,0.2-0.3c0.1-0.3,0.2-0.6,0.2-0.6c0,0,0,0,0-0.1
		c0-0.1,0.1-0.2,0.1-0.4c0.1-0.3,0.3-0.4,0.5-0.6c0,0,0.1-0.1,0.1-0.1C13.5,16.6,13.7,16.6,13.7,16.6C13.7,16.6,13.7,16.6,13.7,16.6
		L13.7,16.6z M9.1,18.2C9.1,18.2,9.1,18.2,9.1,18.2c0.3,0.1,0.6,0.3,0.7,0.5c0,0,0,0,0,0c-0.1,0-0.2,0-0.3,0c-0.4,0.1-0.6,0.1-0.8,0
		c-0.1,0-0.1,0-0.2-0.1c-0.1,0-0.1-0.1-0.1-0.2c0-0.1,0.1-0.2,0.2-0.2c0,0,0.1,0,0.1,0.2c0,0.1,0.2,0.1,0.4,0
		C9.1,18.4,9.1,18.3,9.1,18.2L9.1,18.2z M3.6,16.4c-0.1-0.1-0.1-0.2-0.2-0.3c-0.1-0.1-0.2-0.2-0.2-0.3c0.3-0.1,0.6-0.2,0.7-0.2l0,0
		c0.1,0.1,0.2,0.1,0.2,0.2C4.1,15.9,4,16,3.6,16.4C3.6,16.4,3.6,16.4,3.6,16.4L3.6,16.4z M9.6,18.8c0.2-0.1,0.4,0,0.5,0.2
		c0,0.1,0.1,0.1,0.1,0.2c0.1,0.1,0.2,0.2,0.4,0.3c0.1,0,0.1,0,0.1,0c0,0,0,0,0,0c0,0,0,0,0,0c0,0,0,0,0,0c-0.1,0.1-0.3,0.1-0.6,0
		c0,0,0,0,0,0c0,0-0.1,0,0,0.2c0,0,0,0.1,0,0.1c0,0-0.1,0-0.2,0c0,0-0.1,0-0.1,0c0.1-0.1,0.1-0.2,0.1-0.4c0-0.4-0.2-0.5-0.6-0.6
		C9.3,18.9,9.4,18.9,9.6,18.8L9.6,18.8z M4,17.1c-0.1-0.2-0.2-0.4-0.3-0.6c0.2-0.2,0.3-0.3,0.4-0.4c0.1,0,0.2,0,0.3-0.2
		c0,0,0-0.1,0-0.1c0.1,0.1,0.2,0.3,0.2,0.4c0,0.1,0.1,0.1,0.1,0.2C4.6,16.6,4.1,17,4,17.1L4,17.1z M4.3,15.9
		C4.3,15.9,4.2,16,4.3,15.9c-0.1,0,0,0-0.1-0.1c0-0.1-0.2-0.2-0.3-0.3l0,0c-0.1-0.1-0.3,0-0.5,0c0,0,0.1-0.1,0.1-0.2c0,0,0,0,0-0.1
		c0,0,0,0,0.1,0c0.4-0.1,0.5-0.1,0.6,0.1C4.4,15.5,4.4,15.6,4.3,15.9L4.3,15.9z M10.1,20C10.1,20,10.1,20,10.1,20
		c0,0.1,0,0.2,0.1,0.2c0,0,0,0,0,0c0,0-0.2,0-0.3-0.2C9.9,20.1,10,20.1,10.1,20L10.1,20z M11.7,20.1C11.7,20.1,11.7,20.1,11.7,20.1
		C11.7,20.1,11.7,20.1,11.7,20.1C11.7,20.1,11.6,20.1,11.7,20.1c-0.2-0.1-0.4-0.2-0.5-0.3c0,0,0-0.1,0-0.1c0-0.1-0.1,0-0.2,0
		c-0.1,0-0.2-0.1-0.2-0.1c0,0,0,0,0,0c0,0,0,0,0,0c0,0,0-0.1,0-0.2c0-0.1-0.1-0.1-0.2-0.1c0,0,0,0-0.1,0c0.1,0,0.2-0.1,0.3-0.2
		c0.2-0.2,0.6-0.4,1.1-0.2c0,0,0,0,0,0c0,0,0,0,0.1,0c0,0.1,0.1,0.2,0.3,0.2c-0.1,0.1-0.1,0.2-0.1,0.3c0,0.1,0,0.3,0,0.4
		C11.9,20.2,11.7,20.1,11.7,20.1L11.7,20.1z M15.1,18.2c-0.1,0-0.3,0-0.4,0c0.1-0.8,0.2-0.9,0.2-1c0.1-0.1,0.1-0.1,0.2-0.3
		c0.2-0.4,0.5-0.5,0.9-0.6c0,0,0.1,0,0.1,0c0.3-0.1,0.5,0,0.6,0.1c0,0.1-0.1,0.2-0.1,0.4c0,0.1,0.1,0.2,0.3,0.2
		c-0.2,0.3-0.6,0.5-1.1,0.7C15.3,17.8,15.1,18.1,15.1,18.2L15.1,18.2z M17,16.8c-0.1,0-0.2-0.1-0.2-0.1c0-0.1,0-0.2,0.1-0.2
		c0.4,0.1,0.8-0.3,1-0.6c0.1-0.1,0.1-0.1,0.1-0.1c0.2-0.2,0.5-0.4,0.7-0.2c0.3,0.2,0.2,0.4-0.1,0.9c-0.2,0.2-1,0.3-1.5,0.3
		C17.1,16.7,17,16.7,17,16.8L17,16.8z M17.4,15.7c0.1-0.2,0.3-0.2,0.4-0.2c0,0,0,0.1,0,0.2c0,0,0,0,0,0.1c0,0-0.1,0.1-0.1,0.1
		C17.4,15.8,17.4,15.7,17.4,15.7C17.3,15.7,17.3,15.7,17.4,15.7L17.4,15.7z M18.8,15.4c-0.1-0.1-0.2-0.1-0.2-0.1c0-0.2,0-0.3,0-0.3
		c0.1,0,0.2,0.1,0.2,0.1c0.1,0,0.2,0.1,0.2,0.1c0,0,0,0,0,0C19,15.2,19,15.3,18.8,15.4C18.8,15.4,18.8,15.4,18.8,15.4L18.8,15.4z
		 M19,14.7c0-0.1,0-0.1-0.1-0.1c0,0,0.1,0,0.1,0c0,0,0.1,0.1,0.2,0.1c0,0,0,0,0,0C19.2,14.7,19.1,14.8,19,14.7
		C19.1,14.8,19,14.7,19,14.7L19,14.7z M2,15.1C2,15,2,15,2,15.1C2,15,2,15,2,15.1c0.1,0,0.1,0,0.1,0c0,0,0,0.1-0.1,0.1
		C2,15.2,2,15.1,2,15.1C1.9,15.1,1.9,15.1,2,15.1C1.9,15.1,1.9,15.1,2,15.1L2,15.1z"/>
	<path class="st0" d="M5.1,16.6c-0.1,0-0.2,0.2-0.1,0.3c0,0,0.2-0.1,0.2-0.2C5.3,16.6,5.2,16.5,5.1,16.6L5.1,16.6z"/>
	<path class="st0" d="M5.3,16.9c0.1,0,0.1,0,0.2-0.1c0-0.1,0-0.2-0.1-0.1C5.4,16.7,5.2,16.9,5.3,16.9L5.3,16.9z"/>
	<path class="st0" d="M5.7,17c0.1-0.1,0.1-0.2,0.1-0.3c0-0.1-0.1,0-0.1,0S5.5,16.9,5.5,17C5.6,17,5.6,17.1,5.7,17L5.7,17z"/>
	<path class="st0" d="M6.1,17.1c0.1,0,0.1-0.1,0-0.2c0-0.1,0-0.2-0.1-0.1c0,0-0.1,0.1-0.1,0.2C6,17,6,17.1,6.1,17.1L6.1,17.1z"/>
	<path class="st0" d="M8.5,4.8c0,0-0.1,0-0.1,0.2c0,0.1,0,0.2,0.2,0.2c0.2,0,0-0.3,0-0.3C8.6,4.8,8.5,4.8,8.5,4.8L8.5,4.8z M8.5,5
		C8.5,5,8.5,5,8.5,5c0-0.1,0-0.1,0-0.1c0,0,0,0,0,0C8.5,5,8.5,5,8.5,5C8.5,5,8.5,5,8.5,5L8.5,5z"/>
	<path class="st0" d="M8.4,5.2c0,0-0.1,0,0,0.1c0,0.1,0,0.2,0.1,0.2c0.1,0,0.1-0.1,0.1-0.2C8.6,5.2,8.5,5.2,8.4,5.2L8.4,5.2z
		 M8.5,5.4C8.5,5.4,8.5,5.4,8.5,5.4C8.5,5.4,8.5,5.4,8.5,5.4C8.5,5.4,8.5,5.4,8.5,5.4C8.5,5.4,8.5,5.3,8.5,5.4
		C8.5,5.3,8.5,5.3,8.5,5.4C8.5,5.3,8.5,5.3,8.5,5.4C8.5,5.3,8.5,5.3,8.5,5.4C8.6,5.4,8.6,5.4,8.5,5.4L8.5,5.4z"/>
	<path class="st0" d="M8.4,5.6c0,0-0.1,0.2,0,0.2c0.1,0.1,0.2,0.1,0.2-0.1C8.7,5.6,8.6,5.5,8.4,5.6L8.4,5.6z M8.5,5.7
		C8.5,5.7,8.5,5.7,8.5,5.7C8.5,5.7,8.5,5.7,8.5,5.7C8.5,5.7,8.5,5.7,8.5,5.7C8.5,5.7,8.5,5.7,8.5,5.7C8.5,5.7,8.5,5.7,8.5,5.7
		L8.5,5.7z"/>
	<path class="st0" d="M8.7,4.7c0,0-0.1,0-0.1,0.1C8.7,4.9,8.7,5,8.8,5c0.1,0,0.1-0.1,0.1-0.3C8.8,4.6,8.8,4.6,8.7,4.7L8.7,4.7z
		 M8.8,4.9C8.8,4.9,8.8,4.9,8.8,4.9c0,0,0,0,0-0.1l0,0c0,0,0,0,0,0c0,0,0,0,0,0C8.8,4.8,8.8,4.8,8.8,4.9C8.8,4.9,8.8,4.9,8.8,4.9
		L8.8,4.9z"/>
	<path class="st0" d="M8.7,5.1c0,0,0,0.2,0.1,0.2c0.1,0,0.2,0,0.2-0.2C9,5,8.7,4.9,8.7,5.1L8.7,5.1z M8.8,5.2
		C8.8,5.2,8.8,5.2,8.8,5.2C8.8,5.2,8.8,5.2,8.8,5.2C8.8,5.2,8.8,5.2,8.8,5.2c0-0.1,0-0.1,0-0.1c0,0,0,0,0,0C8.8,5.1,8.9,5.1,8.8,5.2
		C8.9,5.2,8.8,5.2,8.8,5.2L8.8,5.2z"/>
	<path class="st0" d="M8.8,5.4c0,0-0.1,0-0.1,0.1c0,0.1-0.1,0.2,0.1,0.2C8.9,5.7,9,5.7,9,5.5C9,5.3,8.9,5.4,8.8,5.4L8.8,5.4z
		 M8.9,5.6C8.9,5.6,8.8,5.6,8.9,5.6C8.8,5.6,8.8,5.6,8.9,5.6C8.8,5.6,8.8,5.6,8.9,5.6C8.8,5.5,8.8,5.5,8.9,5.6
		C8.9,5.5,8.9,5.5,8.9,5.6C8.9,5.5,8.9,5.5,8.9,5.6C8.9,5.6,8.9,5.6,8.9,5.6L8.9,5.6z"/>
	<path class="st0" d="M9,4.4c0,0-0.1,0.1-0.1,0.2c0,0.2,0.1,0.2,0.2,0.1c0.1,0,0.1-0.1,0.1-0.2C9.1,4.4,9,4.3,9,4.4L9,4.4z M9,4.5
		C9,4.5,9,4.5,9,4.5C9,4.5,9,4.5,9,4.5C9,4.5,9,4.5,9,4.5L9,4.5z M9.1,4.6C9.1,4.6,9,4.6,9.1,4.6C9,4.6,9,4.6,9.1,4.6
		C9,4.6,9,4.6,9.1,4.6C9,4.5,9,4.5,9,4.5C9,4.5,9,4.5,9.1,4.6C9.1,4.6,9.1,4.6,9.1,4.6L9.1,4.6z"/>
	<path class="st0" d="M9,4.9c0,0.1,0,0.3,0.1,0.2C9.3,5.1,9.3,5,9.2,4.9C9.2,4.7,9,4.8,9,4.9L9,4.9z M9.1,5C9.1,5,9.1,5,9.1,5
		C9.1,5,9.1,5,9.1,5C9.1,4.9,9.1,4.9,9.1,5C9.1,5,9.1,5,9.1,5L9.1,5z"/>
	<path class="st0" d="M9,5.3c0,0.1,0,0.3,0.1,0.2c0.1,0,0.2-0.1,0.1-0.3C9.3,5.1,9,5.2,9,5.3L9,5.3z M9.2,5.4c0,0,0-0.1,0-0.1
		c0,0,0,0,0,0c0,0,0,0,0,0c0,0,0,0,0,0C9.2,5.4,9.2,5.4,9.2,5.4L9.2,5.4z"/>
	<path class="st0" d="M12.5,6c0,0-0.1,0-0.1,0.1l0,0C12.2,6.2,12,6.4,12,6.4c0,0,0,0,0,0c0,0,0,0,0,0h0.7c0,0,0,0,0,0c0,0,0,0,0,0
		C12.7,6.3,12.5,6.1,12.5,6C12.5,6,12.5,6,12.5,6L12.5,6z M12.4,6.3C12.4,6.3,12.4,6.2,12.4,6.3L12.4,6.3
		C12.4,6.3,12.4,6.3,12.4,6.3L12.4,6.3L12.4,6.3z"/>
	<path class="st0" d="M2.4,13.2C2.8,14.7,3.1,15,3,14.1c-0.1-0.8-0.3-1.5-0.2-1.6c0.1-0.1,0-0.3,0-0.6c0-0.2,0.1-0.3-0.1-0.8
		c-0.2-0.5,0-0.4,0-0.7c0-0.3-0.1-0.3-0.1-0.6c0-0.3,0-0.8,0-0.8s-0.3,0-0.3,0.2c0,0.2,0,2.4,0.1,3.2c0.1,0.8-0.3,0-0.3-0.9
		c-0.1-1,0-2.1,0-2.1s0-0.3-0.3-0.3C1.9,9.2,1.9,11.8,2.4,13.2L2.4,13.2z"/>
	<path class="st0" d="M3.6,12.6c0-0.5-0.2-0.8-0.1-1.1c0.1-0.3,0.1-0.4,0-0.7c-0.2-0.3-0.1-0.2-0.1-0.6c0-0.3,0-0.8,0-1.1
		c0,0-0.2-0.1-0.2,0c0,0.1,0,2,0.1,2.7c0.1,0.7-0.1,0.4-0.2-0.2c0-0.4-0.2-2.4-0.2-2.4S2.9,9,2.8,9.1c0,0,0,2.4,0.4,3.4
		C3.7,13.5,3.6,13.1,3.6,12.6L3.6,12.6z"/>
	<path class="st0" d="M4.3,12c-0.1-0.3-0.1-0.3-0.1-0.6c0-0.3-0.1-0.5-0.1-0.8C4,10.2,4,9.4,4,8.9c0,0-0.1-0.1-0.2,0
		c0,0,0,1.2,0.1,1.7c0.1,0.4-0.2,0-0.2-0.8c0-0.8,0-0.9-0.1-0.8c0,0,0,2.4,0.6,3.1C4.2,12.1,4.3,12.3,4.3,12L4.3,12z"/>
	<path class="st0" d="M4.2,8.8c0,0-0.1,2.2,0.5,2.8c0.6,0.6,0.1,0,0.1-0.7c0-0.8-0.2-0.6-0.2-0.8c0,0,0-0.8-0.1-1.1
		c0-0.2-0.2-0.4-0.2,0c0.1,0.4,0.2,1.4,0,1.4c-0.1,0-0.1-0.7-0.1-1C4.3,9,4.3,8.8,4.2,8.8L4.2,8.8z"/>
	<path class="st0" d="M5,8.7c0,0-0.1-0.1-0.1,0.3c0,0.4,0.1,0.8,0,0.7c-0.1,0-0.1-0.5-0.1-0.7c0-0.2-0.1-0.4-0.1-0.3
		c0,0,0,1.5,0.4,2.1c0.4,0.6,0.4,0.1,0.2-0.2c-0.2-0.4-0.2-0.8-0.2-1.1C5.1,9.2,5,8.7,5,8.7L5,8.7z"/>
	<path class="st0" d="M5.4,10.1c0.3,0.4,0.2,0.1,0.1-0.3c-0.1-0.4-0.1-0.9,0-1.2c0,0-0.1-0.1-0.1,0c0,0,0.1,0.7,0,0.7
		C5.3,9.2,5.2,9,5.2,8.8c0-0.2,0-0.2-0.1-0.1C5.1,8.6,5.1,9.8,5.4,10.1L5.4,10.1z"/>
	<path class="st0" d="M2.1,6.9C2.1,6.9,2,7.3,2,8c0,0.7,0,0.8,0.3,0.8c0.3,0,0.4-0.2,0.5-0.8c0.1-0.6,0.1-0.9,0.1-1
		c0-0.1-0.2-0.3-0.2,0c0,0.4,0,1.5-0.2,1.4c-0.2,0-0.2-0.6-0.1-1c0-0.4,0.2-0.9,0-0.9C2.1,6.6,2.1,6.9,2.1,6.9L2.1,6.9z"/>
	<path class="st0" d="M2.9,7.1c0,0-0.3,1.7,0,1.7c0.5,0,0.4-0.5,0.4-1c0-0.5,0.1-0.7,0-0.7c-0.1,0-0.1,0.5-0.2,0.8
		c0,0.3,0,0.6-0.1,0.6C2.9,8.5,2.9,8.1,3,7.8C3.1,7,3,6.9,2.9,7.1L2.9,7.1z"/>
	<path class="st0" d="M3.6,7.3C3.6,7.3,3.6,7.2,3.6,7.3C3.5,7.2,3.5,7.8,3.5,8.2c0,0.3,0,0.5,0.3,0.5c0.2,0,0.2-0.4,0.2-0.7
		c0-0.3,0.1-0.6,0-0.6c-0.1,0-0.1,0.2-0.1,0.4c0,0.2,0,0.7-0.1,0.7c-0.1,0-0.1-0.1-0.1-0.5C3.6,7.6,3.6,7.3,3.6,7.3L3.6,7.3z"/>
	<path class="st0" d="M10.1,8.7c0.1,0,0.1-0.1,0.1,0c0.1,0.1,0.1,0.1,0.2,0.1c0.1,0,0.2,0,0.2,0.1c0,0,0.1,0,0.1,0.1
		c0,0-0.1,0.1,0.1,0.1c0.2,0,0.2,0.1,0.3,0c0-0.1,0.1-0.1,0-0.1c-0.1-0.1-0.2-0.1-0.3-0.2c-0.1-0.1-0.1-0.1-0.2-0.1
		c-0.1,0-0.2-0.1-0.3,0c-0.1,0-0.3,0-0.3,0S10,8.6,10.1,8.7C10.1,8.7,10,8.7,10.1,8.7L10.1,8.7z"/>
	<path class="st0" d="M10.9,9.1c-0.1,0-0.1,0-0.1,0c0,0-0.1,0,0,0.1C10.8,9.2,10.8,9.2,10.9,9.1C10.9,9.2,11,9.1,10.9,9.1L10.9,9.1z
		"/>
	<path class="st0" d="M11.3,9.2c0,0,0.1,0,0.2,0c0.1,0,0.1,0,0.2,0c0.1,0,0.1,0,0.1-0.1c0-0.1,0-0.1-0.1-0.2c0,0-0.1,0-0.2,0
		c-0.1,0,0,0-0.1,0.1C11.4,9,11.3,9.2,11.3,9.2L11.3,9.2z"/>
	<path class="st0" d="M12,9.2c0,0,0.1,0,0.1,0c0,0,0.1,0,0-0.1c0-0.1,0-0.1-0.1-0.1c-0.1,0-0.1,0-0.1,0S12,9.2,12,9.2L12,9.2z"/>
	<path class="st0" d="M12.4,10.3C12.4,10.3,12.5,10.4,12.4,10.3c0.1-0.1,0.1-0.2,0-0.1C12.4,10.2,12.3,10.2,12.4,10.3
		C12.4,10.3,12.4,10.3,12.4,10.3L12.4,10.3z"/>
	<path class="st0" d="M5.2,7.6C5,8.6,5.4,8.3,5.4,8.3c0-0.3,0.1-0.6,0.1-0.6c0-0.1-0.1,0-0.1,0.1c0,0.1,0,0.4-0.1,0.4
		C5.2,8.2,5.3,7.6,5.2,7.6C5.2,7.6,5.2,7.6,5.2,7.6L5.2,7.6z"/>
	<path class="st0" d="M4.7,7.5c0,0-0.1,0.5-0.1,0.7c0,0.2,0.1,0.3,0.3,0.3c0.2,0,0.2-0.3,0.2-0.5c0-0.2,0-0.3,0-0.3
		C5,7.5,5,7.6,5,7.9c0,0.3,0,0.4-0.2,0.4C4.7,8.3,4.8,7.7,4.7,7.5C4.8,7.5,4.7,7.5,4.7,7.5L4.7,7.5z"/>
	<path class="st0" d="M4.1,7.4c0,0-0.1,0.5-0.1,0.9c0,0.4,0.4,0.3,0.5,0c0-0.3,0.1-0.8,0.1-0.8C4.5,7.4,4.4,7.7,4.4,7.9
		c0,0.3,0,0.4-0.2,0.4C4.1,8.3,4.2,7.6,4.1,7.4C4.2,7.3,4.1,7.4,4.1,7.4L4.1,7.4z"/>
	<path class="st0" d="M3.9,16.4c-0.1,0.1,0,0.2,0,0.2c0.1,0,0.1-0.2,0.1-0.2C4,16.2,4,16.3,3.9,16.4L3.9,16.4z"/>
	<path class="st0" d="M4.2,16.3c0,0-0.1,0-0.1,0.1c0,0.2,0.1,0.2,0.1,0.1C4.3,16.6,4.3,16.4,4.2,16.3C4.3,16.4,4.3,16.3,4.2,16.3
		L4.2,16.3z"/>
	<path class="st0" d="M4.4,16.3c0,0,0,0.1,0,0.2c0.1,0.1,0.2,0.1,0.1,0C4.6,16.3,4.5,16.2,4.4,16.3L4.4,16.3z"/>
	<path class="st0" d="M2.8,16c0,0-0.1,0-0.1,0c0,0,0,0.1,0.1,0.1S2.9,16,2.8,16L2.8,16z"/>
	<path class="st0" d="M2.4,16.2L2.4,16.2C2.4,16.3,2.4,16.3,2.4,16.2c0.1,0.1,0.1,0.1,0.1,0C2.6,16.2,2.5,16.2,2.4,16.2L2.4,16.2z"
		/>
	<path class="st0" d="M2.6,16.8c0,0-0.1,0.1,0,0.1C2.7,16.9,2.7,16.9,2.6,16.8C2.6,16.7,2.6,16.7,2.6,16.8L2.6,16.8z"/>
	<path class="st0" d="M3,16.7C3,16.7,3.1,16.8,3,16.7C3.1,16.7,3.1,16.7,3,16.7C3.1,16.7,3,16.7,3,16.7L3,16.7z"/>
	<path class="st0" d="M3.1,17.1C3.1,17.1,3.1,17.2,3.1,17.1C3.2,17.2,3.2,17.2,3.1,17.1C3.2,17.1,3.1,17.1,3.1,17.1L3.1,17.1z"/>
	<path class="st0" d="M3.5,17.2C3.5,17.2,3.6,17.2,3.5,17.2C3.6,17.2,3.6,17.2,3.5,17.2C3.5,17.1,3.5,17.2,3.5,17.2L3.5,17.2z"/>
	<path class="st0" d="M3.4,18.6c0,0,0.1-0.3-0.1-0.3c0,0-0.1,0.1-0.1,0.2c0,0-0.1,0,0,0.1c0.1,0.1,0.1,0.3,0.2,0.1
		C3.6,18.7,3.4,18.6,3.4,18.6L3.4,18.6z"/>
	<path class="st0" d="M3.9,18.9c0,0-0.1,0.1-0.1,0.1c0,0,0.2,0.1,0.2,0C4,18.9,3.9,18.8,3.9,18.9L3.9,18.9z"/>
	<path class="st0" d="M4.4,18.9c0,0-0.1,0-0.1,0.1c0.1,0.1,0.2,0.1,0.2,0.1C4.5,19.1,4.6,18.9,4.4,18.9L4.4,18.9z"/>
	<path class="st0" d="M4,18.4c0,0-0.1,0.1-0.1,0.1C4,18.6,4.1,18.5,4,18.4C4.1,18.5,4.1,18.4,4,18.4L4,18.4z"/>
	<path class="st0" d="M4.5,18.2c0.1,0,0.1,0,0.1,0S4.5,18,4.4,18.1C4.4,18.1,4.4,18.2,4.5,18.2L4.5,18.2z"/>
	<path class="st0" d="M5.1,18.9c0.1,0,0.2,0,0.2,0s0.1-0.1-0.2-0.2C5,18.7,5,18.8,5.1,18.9L5.1,18.9z"/>
	<path class="st0" d="M6.5,18.8c0-0.1-0.1-0.1-0.1-0.1s-0.1,0-0.1,0.1C6.3,18.9,6.4,18.9,6.5,18.8C6.4,18.9,6.5,18.9,6.5,18.8
		L6.5,18.8z"/>
	<path class="st0" d="M6.5,19.4c-0.1,0-0.1,0-0.1,0s0,0.1,0.1,0.1C6.6,19.6,6.6,19.5,6.5,19.4C6.6,19.5,6.6,19.4,6.5,19.4L6.5,19.4z
		"/>
	<path class="st0" d="M7.2,19.2c0-0.1-0.1-0.1-0.1-0.1c0,0-0.1,0-0.1,0.1c0,0.1,0.2,0.1,0.2,0.1S7.2,19.3,7.2,19.2L7.2,19.2z"/>
	<path class="st0" d="M7,19.6c0,0,0,0.1,0.1,0.1c0.1,0,0.1-0.1,0.1-0.1S7,19.5,7,19.6L7,19.6z"/>
	<path class="st0" d="M7.7,19.2C7.8,19.2,7.8,19.1,7.7,19.2c0.1-0.1,0.1-0.1,0-0.1c-0.1,0-0.1,0-0.1,0.1C7.5,19.1,7.5,19.2,7.7,19.2
		L7.7,19.2z"/>
	<path class="st0" d="M6.5,17.2c0.1,0,0-0.2,0-0.2s-0.1-0.1-0.1-0.1c0,0-0.1,0-0.1,0.2C6.4,17.1,6.4,17.2,6.5,17.2L6.5,17.2z"/>
	<path class="st0" d="M6.7,17.1c0,0.1,0.1,0.1,0.1,0c0.1,0-0.1-0.3-0.1-0.3s-0.2-0.1-0.1,0C6.6,16.8,6.7,17,6.7,17.1L6.7,17.1z"/>
	<path class="st0" d="M4.6,17c-0.1,0-0.2,0.1-0.2,0.2c0,0,0.1,0,0.2,0C4.7,17,4.6,17,4.6,17L4.6,17z"/>
	<path class="st0" d="M4.9,17.1c0,0-0.2,0.2-0.1,0.3C4.8,17.4,4.9,17.3,4.9,17.1C5,17.1,4.9,17.1,4.9,17.1L4.9,17.1z"/>
	<path class="st0" d="M5.1,17.5c0,0.1,0.1,0.2,0.1,0c0.1-0.2,0-0.2,0-0.1C5.2,17.3,5.1,17.4,5.1,17.5L5.1,17.5z"/>
	<path class="st0" d="M5.6,17.5c0-0.2,0-0.2,0-0.1c0,0-0.1,0.1-0.1,0.2C5.5,17.6,5.6,17.7,5.6,17.5L5.6,17.5z"/>
	<path class="st0" d="M6,17.8c0.1,0,0.1-0.2,0-0.3C6,17.4,6,17.4,6,17.4c0,0-0.1,0-0.1,0.1C5.9,17.7,5.9,17.8,6,17.8L6,17.8z"/>
	<path class="st0" d="M6.4,17.5c0,0-0.1,0.2,0,0.3c0.1,0.1,0.1-0.1,0.1-0.2C6.5,17.5,6.4,17.4,6.4,17.5L6.4,17.5z"/>
	<path class="st0" d="M6.8,17.4c0,0-0.1,0-0.1,0.1c0,0.1,0.1,0.2,0.2,0.2C7.1,17.7,6.9,17.5,6.8,17.4L6.8,17.4z"/>
	<path class="st0" d="M7.5,17.7c0.1-0.1-0.3-0.4-0.3-0.3c0,0-0.1,0,0,0.2C7.3,17.7,7.4,17.9,7.5,17.7L7.5,17.7z"/>
	<path class="st0" d="M7.9,17.7c0.1,0-0.1-0.2-0.1-0.2s-0.1-0.2-0.2-0.1c0,0-0.1,0.1,0,0.2C7.7,17.6,7.8,17.7,7.9,17.7L7.9,17.7z"/>
	<path class="st0" d="M5.7,18c0,0-0.2,0.3-0.1,0.3C5.7,18.4,5.8,18.2,5.7,18C5.8,17.9,5.7,18,5.7,18L5.7,18z"/>
	<path class="st0" d="M7.6,18c0,0,0.1,0.1,0.1,0.2c0,0.1,0.1,0.2,0.1,0.1c0.1-0.1,0-0.1,0-0.2C7.8,17.9,7.6,17.9,7.6,18L7.6,18z"/>
	<path class="st0" d="M3.3,6.2c0,0-0.2,0-0.3,0.2C3,6.7,3,6.7,3.1,6.7c0,0,0.1-0.2,0.1-0.2c0.1,0-0.1,0.2,0,0.2
		c0.1,0,0.1-0.2,0.2-0.2c0.1,0-0.1,0.2,0,0.2C3.5,6.8,3.6,6.3,3.3,6.2L3.3,6.2z"/>
	<path class="st0" d="M3.9,6.5c0,0-0.2,0-0.3,0.2c-0.1,0.2,0,0.3,0,0.3c0,0,0.1-0.2,0.1-0.2c0.1,0-0.1,0.2,0,0.2
		c0.1,0,0.1-0.2,0.1-0.2c0.1,0,0,0.2,0,0.2C4.1,7,4.2,6.5,3.9,6.5L3.9,6.5z"/>
	<path class="st0" d="M2.7,6.6c0.1,0,0.3-0.6-0.1-0.7c0,0-0.3-0.1-0.4,0.2c-0.1,0.3-0.1,0.4,0,0.4c0.1,0,0.1-0.3,0.2-0.2
		c0.1,0-0.1,0.3,0,0.3c0.1,0,0.2-0.3,0.2-0.2C2.8,6.3,2.6,6.5,2.7,6.6L2.7,6.6z"/>
	<path class="st0" d="M4.5,6.7c0,0-0.2,0-0.2,0.1C4.2,7,4.2,7.1,4.3,7c0,0,0.1-0.2,0.1-0.2c0,0-0.1,0.2,0,0.2c0.1,0,0.1-0.2,0.1-0.2
		c0,0,0,0.2,0,0.2C4.6,7.1,4.7,6.7,4.5,6.7L4.5,6.7z"/>
	<path class="st0" d="M5,7.2c0.1,0,0.1-0.3-0.1-0.4c0,0-0.1,0-0.2,0.1c-0.1,0.1,0,0.2,0,0.2c0,0,0-0.1,0.1-0.1c0,0,0,0.1,0,0.2
		C4.9,7.2,5,7,5,7C5,7.1,5,7.2,5,7.2L5,7.2z"/>
	<path class="st0" d="M5.5,7.3C5.6,7.3,5.6,7,5.4,7c0,0-0.1,0-0.2,0.1c0,0.2,0,0.2,0,0.2c0,0,0-0.2,0.1-0.1c0,0,0,0.1,0,0.2
		c0.1,0,0.1-0.2,0.1-0.1C5.5,7.2,5.4,7.3,5.5,7.3L5.5,7.3z"/>
	<path class="st0" d="M2.4,7c0,0.2-0.2,1.3-0.1,1.4c0.1,0,0.1-0.5,0.1-0.8c0-0.3,0.1-0.7,0.1-0.7S2.4,6.8,2.4,7L2.4,7z"/>
	<path class="st0" d="M3.1,7.2c0,0.2-0.1,1.1-0.1,1.1c0.1,0,0.1-0.4,0.1-0.6C3.2,7.5,3.2,7.2,3.1,7.2C3.2,7.2,3.1,7.1,3.1,7.2
		L3.1,7.2z"/>
	<path class="st0" d="M3.7,7.4c0,0.1-0.1,0.8,0,0.8c0.1,0,0-0.3,0.1-0.5C3.8,7.6,3.8,7.3,3.7,7.4C3.8,7.3,3.7,7.3,3.7,7.4L3.7,7.4z"
		/>
	<path class="st0" d="M4.3,7.5c0,0.1-0.1,0.6,0,0.6c0.1,0,0.1-0.2,0.1-0.4C4.4,7.6,4.4,7.4,4.3,7.5C4.4,7.4,4.3,7.4,4.3,7.5L4.3,7.5
		z"/>
	<path class="st0" d="M4.9,7.6C4.9,7.6,4.9,7.5,4.9,7.6C4.8,7.7,4.8,8.1,4.9,8.1c0.1,0,0-0.2,0-0.3C4.9,7.7,4.9,7.6,4.9,7.6L4.9,7.6
		z"/>
	<path class="st0" d="M5.4,7.6C5.4,7.6,5.3,7.6,5.4,7.6C5.3,7.7,5.3,8.1,5.3,8.1c0.1,0,0-0.2,0-0.2C5.4,7.8,5.4,7.6,5.4,7.6L5.4,7.6
		z"/>
	<path class="st0" d="M14.7,7.2v0.4c0,0,0.2,0,0.2-0.1c0,0,0.1,0,0.1,0S14.9,7.3,14.7,7.2L14.7,7.2z"/>
	<path class="st0" d="M14.9,8.2c-0.1,0-0.1,0-0.1-0.1c0-0.2,0-0.3-0.1-0.2v0.6c0,0,0.2,0.2,0.4,0c0,0,0.1-0.3,0-0.6c0,0,0,0-0.1,0
		C14.9,7.8,15,8.2,14.9,8.2L14.9,8.2z"/>
	<path class="st0" d="M14.7,8.6c0,0,0,0.4,0,0.4s0.2,0,0.1-0.3C14.8,8.5,14.7,8.5,14.7,8.6L14.7,8.6z"/>
	<path class="st0" d="M15,8.5c0,0-0.1,0-0.1,0.2c0,0.2,0,0.3,0,0.3C15,9,15,8.8,15.1,8.7C15.1,8.5,15,8.5,15,8.5L15,8.5z"/>
	<path class="st0" d="M14.7,9.4c0.1,0,0.2,0,0.3-0.2c0-0.2-0.2-0.1-0.3,0C14.7,9.2,14.6,9.4,14.7,9.4L14.7,9.4z"/>
	<path class="st0" d="M14.7,9.6c0,0,0,0.5,0,0.4c0,0,0.2-0.3,0.2-0.4C14.9,9.5,14.7,9.5,14.7,9.6L14.7,9.6z"/>
	<path class="st0" d="M14.6,12.6c0.1,0.3,0,0.3,0,0.3c-0.1,0-0.1-0.4-0.2-0.1c-0.1,0.1-0.1,0.4,0,0.4c0.2,0,0.6,0,0.5-0.3
		C14.7,12.4,14.5,12.3,14.6,12.6L14.6,12.6z"/>
	<path class="st0" d="M15,13.7c0,0,0.1-0.1,0-0.2c0-0.1-0.3,0-0.3,0l-0.7,0c0,0-0.1,0.1-0.1,0.2C14,13.8,14.9,13.8,15,13.7L15,13.7z
		"/>
	<path class="st0" d="M14.4,14.3c0-0.3-0.1-0.5-0.3-0.5c0,0-0.3,0-0.3,0.2c0,0.2,0,0.5,0.1,0.5c0.1,0,0-0.3,0.1-0.3
		c0.1,0,0.1,0.1,0.1,0.2c0,0.1,0.1,0.1,0.1,0c0-0.1-0.1-0.3,0-0.2c0.1,0,0.1,0,0.1,0.2C14.2,14.4,14.4,14.6,14.4,14.3L14.4,14.3z"/>
	<path class="st0" d="M14.7,14.1c0.1,0,0.1,0.1,0.1,0.2c0,0.1,0.1,0.1,0.1,0c0-0.1-0.1-0.2,0-0.2c0.1,0,0.1,0,0.1,0.2
		c0,0.1,0.1,0.3,0.1,0c0-0.2,0-0.4-0.2-0.4c0,0-0.3,0-0.3,0.2c0,0.2,0,0.4,0,0.4C14.7,14.4,14.6,14.1,14.7,14.1L14.7,14.1z"/>
	<path class="st0" d="M7.9,17.1c0.1,0,0.1-0.5-0.1-0.4c0,0-0.1,0-0.1,0.2C7.8,17,7.8,17.1,7.9,17.1L7.9,17.1z"/>
	<path class="st0" d="M8.3,17c0-0.2-0.1-0.3-0.1-0.2c0,0,0,0.1,0,0.2C8.2,17.2,8.4,17.2,8.3,17L8.3,17z"/>
	<path class="st0" d="M8.8,17.1c0,0-0.1-0.3-0.2-0.2c0,0-0.1,0,0,0.2C8.7,17.1,8.7,17.1,8.8,17.1L8.8,17.1z"/>
	<path class="st0" d="M9.2,17.7c0,0-0.1-0.1-0.1-0.1c0,0-0.1,0,0,0.1C9.1,17.8,9.2,17.7,9.2,17.7L9.2,17.7z"/>
	<path class="st0" d="M9.5,17.7c0.1,0-0.1-0.2-0.2-0.2c0,0-0.1,0,0,0.1C9.4,17.7,9.4,17.8,9.5,17.7L9.5,17.7z"/>
	<path class="st0" d="M10,18.3c0.1,0.1,0.2,0.1,0.1,0c-0.1-0.1-0.1-0.2-0.2-0.1C9.9,18.1,9.9,18.2,10,18.3L10,18.3z"/>
	<path class="st0" d="M10.5,18.2c0-0.1-0.2-0.3-0.2-0.3c0,0-0.1,0,0,0.2C10.3,18.2,10.5,18.3,10.5,18.2L10.5,18.2z"/>
	<path class="st0" d="M10.8,18.1c0-0.1-0.1-0.4-0.2-0.3c0,0-0.1,0.2,0,0.3C10.7,18.2,10.8,18.2,10.8,18.1L10.8,18.1z"/>
	<path class="st0" d="M11.2,18c0-0.1-0.1-0.3-0.2-0.2c0,0-0.1,0,0,0.2C11.1,18,11.2,18.1,11.2,18L11.2,18z"/>
	<path class="st0" d="M11.4,17.8c0.2,0,0-0.1-0.1-0.2c0,0-0.1,0-0.1,0C11.3,17.7,11.2,17.8,11.4,17.8L11.4,17.8z"/>
	<path class="st0" d="M11.4,18.4c0-0.1-0.1-0.1-0.1-0.1c0,0-0.1,0,0,0.1C11.4,18.5,11.4,18.5,11.4,18.4L11.4,18.4z"/>
	<path class="st0" d="M11.8,18.4c-0.1-0.2-0.1-0.3-0.2-0.2c0,0-0.1,0.1,0,0.2C11.7,18.5,11.8,18.6,11.8,18.4L11.8,18.4z"/>
	<path class="st0" d="M12,18.2c0-0.1-0.3-0.5-0.3-0.4c0,0,0,0.1,0.1,0.2C11.9,18.1,12,18.3,12,18.2L12,18.2z"/>
	<path class="st0" d="M11.2,18.9c0,0.1-0.1,0.2,0,0.2c0,0,0.2-0.1,0.1-0.2C11.4,18.9,11.3,18.9,11.2,18.9L11.2,18.9z"/>
	<path class="st0" d="M11.6,19.3c-0.1,0-0.2,0.1-0.1,0.2c0,0,0.1,0.1,0.2,0C11.7,19.3,11.7,19.2,11.6,19.3L11.6,19.3z"/>
	<path class="st0" d="M13,19.4c0,0-0.2,0.2,0,0.2c0.2,0,0.2,0,0.2-0.1C13.1,19.4,13.1,19.4,13,19.4L13,19.4z"/>
	<path class="st0" d="M14.2,19.6c0,0-0.2,0.1-0.1,0.2c0,0,0.1,0.1,0.2,0C14.3,19.6,14.2,19.6,14.2,19.6L14.2,19.6z"/>
	<path class="st0" d="M14.6,19.3c-0.1,0-0.1,0.1,0,0.2c0,0,0.1,0,0.1-0.1C14.8,19.3,14.7,19.2,14.6,19.3L14.6,19.3z"/>
	<path class="st0" d="M13.9,19.2c0,0-0.2,0.2,0,0.2C14.1,19.4,14,19.3,13.9,19.2C14,19.3,13.9,19.1,13.9,19.2L13.9,19.2z"/>
	<path class="st0" d="M13.9,18.8c-0.1-0.1-0.1,0-0.2,0c0,0-0.1,0.2,0,0.2C13.9,19,14,18.9,13.9,18.8L13.9,18.8z"/>
	<path class="st0" d="M14.6,18.8c0-0.1,0-0.1-0.1-0.1c0,0-0.1,0.1-0.1,0.1C14.5,18.9,14.6,18.8,14.6,18.8L14.6,18.8z"/>
	<path class="st0" d="M12.5,18.3c0,0,0,0.1,0.1,0.1c0.1,0,0.1-0.1,0.1-0.1C12.7,18.3,12.6,18.2,12.5,18.3L12.5,18.3z"/>
	<path class="st0" d="M12.7,17.6c0,0,0,0.1,0.1,0.2c0.1,0,0.1-0.1,0.1-0.1C12.8,17.6,12.7,17.5,12.7,17.6L12.7,17.6z"/>
	<path class="st0" d="M13.3,17.9c0,0-0.1,0.1,0,0.1C13.3,18,13.4,17.9,13.3,17.9L13.3,17.9z"/>
	<path class="st0" d="M13.7,17.6c0.1,0,0.2-0.1,0-0.1C13.7,17.5,13.6,17.6,13.7,17.6L13.7,17.6z"/>
	<path class="st0" d="M13.2,17.6C13.2,17.6,13,17.6,13.2,17.6C13.2,17.7,13.2,17.7,13.2,17.6C13.3,17.5,13.3,17.6,13.2,17.6
		L13.2,17.6z"/>
	<path class="st0" d="M13.4,17.1c0,0,0,0.1,0,0.1c0.1,0,0.1,0,0.1,0C13.5,17.2,13.4,17,13.4,17.1L13.4,17.1z"/>
	<path class="st0" d="M13.3,16.9c0,0,0.1,0,0.1,0C13.4,16.9,13.2,16.8,13.3,16.9L13.3,16.9z"/>
	<path class="st0" d="M14.3,16.4c0.1-0.1-0.1-0.1-0.1,0C14.2,16.4,14.2,16.4,14.3,16.4L14.3,16.4z"/>
	<path class="st0" d="M17.7,19.3c0.1,0,0.2-0.3,0-0.2c0,0-0.1,0.1-0.1,0.1C17.6,19.2,17.5,19.3,17.7,19.3L17.7,19.3z"/>
	<path class="st0" d="M16.8,18.9c0,0,0,0.1,0,0.1c0.1,0,0.2,0,0.1-0.1C16.9,18.9,16.8,18.9,16.8,18.9L16.8,18.9z"/>
	<path class="st0" d="M16.4,18.7c0,0-0.1,0-0.1,0.1c0,0,0,0.1,0.1,0.1C16.5,18.8,16.6,18.7,16.4,18.7L16.4,18.7z"/>
	<path class="st0" d="M15.9,18.6c0,0-0.1,0-0.1,0.1c0,0.1,0.2,0.2,0.2,0C16.1,18.6,16,18.5,15.9,18.6L15.9,18.6z"/>
	<path class="st0" d="M16.9,18.4C16.9,18.4,16.8,18.4,16.9,18.4c-0.1,0.1,0,0.2,0,0.1C17,18.4,17.1,18.3,16.9,18.4L16.9,18.4z"/>
	<path class="st0" d="M17.3,18.8c0.1,0,0.2-0.2,0-0.2c0,0-0.1,0-0.1,0.1C17.2,18.8,17.2,18.9,17.3,18.8L17.3,18.8z"/>
	<path class="st0" d="M15.2,17c0,0,0,0.1,0.1,0.1c0.1,0,0.1-0.1,0.1-0.1S15.2,16.9,15.2,17L15.2,17z"/>
	<path class="st0" d="M15.2,17.7c-0.1,0-0.1-0.1-0.1,0c0,0-0.1,0.1,0,0.1C15.2,17.8,15.3,17.7,15.2,17.7L15.2,17.7z"/>
	<path class="st0" d="M15.6,17.3c0-0.1-0.3,0.1-0.2,0.1c0,0,0.1,0.1,0.2,0C15.6,17.4,15.6,17.3,15.6,17.3L15.6,17.3z"/>
	<path class="st0" d="M15.9,16.7c0.1,0,0.1-0.1,0.1-0.1c0,0-0.2-0.1-0.2,0C15.8,16.6,15.8,16.7,15.9,16.7L15.9,16.7z"/>
	<path class="st0" d="M15.9,16.9c0.2,0.1,0.1-0.2,0-0.1C16,16.8,15.8,16.9,15.9,16.9L15.9,16.9z"/>
	<path class="st0" d="M16.2,16.7c0.2,0,0.1-0.2,0-0.2C16.2,16.5,16.1,16.6,16.2,16.7C16.1,16.6,16,16.7,16.2,16.7L16.2,16.7z"/>
	<path class="st0" d="M16,17.2c0,0,0,0.1,0.1,0c0.1,0,0.1-0.1,0-0.1C16.1,17.2,16,17.2,16,17.2L16,17.2z"/>
	<path class="st0" d="M16.4,17.1c0,0,0-0.1,0-0.2c0-0.1,0-0.1-0.1,0c0,0,0,0,0,0.1C16.3,17.1,16.4,17.1,16.4,17.1L16.4,17.1z"/>
	<path class="st0" d="M18,16.1c0.1-0.1,0.1-0.2,0-0.2C18,15.9,18,15.9,18,16.1C18,16.1,18,16.2,18,16.1L18,16.1z"/>
	<path class="st0" d="M18.2,16.2c0,0,0.1,0,0.1,0c0.1,0,0-0.1,0-0.1C18.3,16.1,18.2,16.2,18.2,16.2L18.2,16.2z"/>
	<path class="st0" d="M18.6,15.9c0.1,0,0.2-0.1,0.1-0.1C18.7,15.7,18.4,15.8,18.6,15.9L18.6,15.9z"/>
	<path class="st0" d="M18.3,15.8C18.4,15.8,18.4,15.8,18.3,15.8c0-0.1,0-0.2,0-0.1C18.2,15.7,18.2,15.8,18.3,15.8L18.3,15.8z"/>
	<path class="st0" d="M17.8,6.6c0-0.2,0-0.2-0.1-0.2c0,0,0,0.4,0,0.4C17.8,6.9,17.8,6.7,17.8,6.6L17.8,6.6z"/>
	<path class="st0" d="M15.7,7.5c-0.1,0-0.1-0.1-0.1-0.2c0-0.1-0.1-0.1-0.1,0c0,0,0,0.4,0.2,0.3c0.2,0,0.3-0.1,0.2-0.4
		c0,0,0-0.1-0.1,0C15.7,7.3,15.8,7.5,15.7,7.5L15.7,7.5z"/>
	<path class="st0" d="M16,7.1c0,0,0,0.4,0.1,0.4c0.2,0,0.3-0.1,0.2-0.4c0,0,0-0.1-0.1,0c-0.1,0.1,0,0.3-0.1,0.3
		c-0.1,0-0.1-0.1-0.1-0.2C16.1,7.1,16,7,16,7.1L16,7.1z"/>
	<path class="st0" d="M16.5,7c0,0,0,0.4,0.1,0.4c0.2,0,0.3-0.1,0.2-0.4c0,0,0-0.1-0.1,0c-0.1,0.1,0,0.3-0.1,0.3
		c-0.1,0-0.1-0.1-0.1-0.2C16.6,7,16.5,6.9,16.5,7L16.5,7z"/>
	<path class="st0" d="M17,6.8l0,0.3c0,0,0,0.2,0.2,0.2c0.2,0,0.2-0.3,0.2-0.4c0-0.1,0-0.3-0.1-0.3c-0.1,0-0.1,0.1-0.1,0.2
		c0,0.1,0,0.3,0,0.3c-0.1,0-0.1-0.1-0.1-0.3C17.1,6.7,17,6.6,17,6.8L17,6.8z"/>
	<path class="st0" d="M17.6,6.5c0,0-0.1-0.1-0.1,0.1c0,0.2-0.1,0.8,0.3,0.8c0.3,0,0.3-0.4,0.3-0.7c0-0.3,0.1-0.5-0.1-0.5
		c-0.1,0.1-0.1,0.2-0.1,0.3c0,0.2,0,0.5-0.1,0.5c-0.1,0-0.2,0-0.1-0.3C17.7,6.5,17.6,6.5,17.6,6.5L17.6,6.5z"/>
	<path class="st0" d="M18.4,6.7c0-0.3,0-0.5-0.1-0.5c0,0-0.1,0-0.1,0.1c0,0.2-0.1,0.8,0.1,0.9c0.2,0.1,0.5,0,0.5-0.2
		c0-0.2,0-0.7,0-0.9c0-0.1-0.1-0.2-0.2,0c0,0.2,0.1,0.9-0.1,0.9C18.4,7,18.4,7,18.4,6.7L18.4,6.7z"/>
	<path class="st0" d="M18.5,6.2c0,0-0.1,0.6,0,0.6C18.6,6.8,18.5,6.4,18.5,6.2C18.5,6.1,18.5,6.1,18.5,6.2L18.5,6.2z"/>
	<path class="st0" d="M17.7,14.9c0.1,0,0.6-0.9,0.7-1.6c0.1-0.6,0.1-0.8,0.3-1c0.1-0.3,0.3-1.4,0.3-2c0-0.6,0-1.1,0-1.2
		c0-0.1-0.1-0.1-0.2,0c-0.1,0.1-0.2,0-0.2,0.3c0,0.3,0,1.8-0.1,2.1c-0.1,0.3-0.2,0.6-0.2,0.9c-0.1,0.3-0.2,0.6-0.1,0
		c0.1-0.5,0.2-0.6,0.2-0.9c0-0.3,0.1-0.7,0.1-1.2c0-0.5,0-1.1,0-1.1s-0.2-0.3-0.2,0c0,0.3,0,1.8,0,2c0,0.2-0.1,0.5-0.1,0.7
		c0,0.2-0.1,0.3-0.1,0.6c0,0.3-0.1,1.6-0.3,1.9C17.6,14.7,17.5,14.8,17.7,14.9L17.7,14.9z"/>
	<path class="st0" d="M17.5,13.4c0.1-0.1,0.5-1,0.5-2.5c0-1.5,0.1-1.6,0-1.7C17.9,9,17.8,9,17.8,9.3c0,0.3-0.1,2.4-0.2,2.4
		c-0.1,0.1,0.1-1.8,0-2.5l0,0c0,0-0.1-0.3-0.1-0.1c0,0.3,0,1.4,0,1.5c0,0.1-0.2,0.6-0.1,0.9c0,0.4,0.1,1.2,0,1.5
		C17.4,13.2,17.4,13.4,17.5,13.4L17.5,13.4z"/>
	<path class="st0" d="M17.4,10.1c0-0.3,0.1-0.9,0.1-1.1c0,0-0.2-0.1-0.2,0.1c0,0.1,0,0.6,0,0.8c0,0.2,0,0.9-0.1,0.9
		c-0.1,0,0-0.4,0-0.7c0-0.3,0.1-0.6,0.1-1.1c0,0-0.1-0.2-0.2,0c0,0.1,0,0.5,0,0.6c0,0.1-0.1,0.3-0.1,0.5c0,0.2,0,0.6,0,0.7
		c-0.1,0.1-0.1,0.3-0.1,0.5c0,0.2-0.1,0.6-0.2,0.9c-0.2,0.3,0.2,0.3,0.5-0.7C17.4,10.6,17.3,10.4,17.4,10.1L17.4,10.1z"/>
	<path class="st0" d="M16.4,9c0,0.2,0,1.2-0.1,1.4c-0.1,0.2-0.1,0.5-0.2,0.6c0,0.1-0.2,0.5-0.3,0.7c-0.1,0.1-0.1,0.3,0.1,0.2
		c0.2-0.1,0.7-0.8,0.7-1.3c0.1-0.6,0.2-0.9,0.2-1.1c0-0.2,0.1-0.6,0-0.6c0,0-0.1-0.1-0.1,0.1c0,0.2,0,0.7-0.1,0.9
		c-0.1,0.3-0.1,0.4-0.1,0c0-0.3,0.1-0.9,0-1.1C16.5,8.9,16.4,8.9,16.4,9L16.4,9z"/>
	<path class="st0" d="M15.9,8.9c0,0,0,0.1,0,0.6c0,0.6-0.3,1.1-0.4,1.5c-0.2,0.4,0.1,0.3,0.2,0.1c0.1-0.1,0.4-0.5,0.5-0.8
		c0.1-0.2,0.2-1.4,0.2-1.4c0,0-0.1-0.1-0.2,0c0,0.1-0.1,0.1-0.1,0C16,8.8,15.9,8.9,15.9,8.9L15.9,8.9z"/>
	<path class="st0" d="M15.7,9.9c0.1-0.2,0.1-1,0.1-1c0-0.1-0.1-0.2-0.1,0c0,0.2-0.1,0.1-0.1-0.1c0-0.2-0.1,0.4-0.1,0.6
		c0,0.2-0.2,0.8-0.3,1.1C15.1,10.9,15.6,10.1,15.7,9.9L15.7,9.9z"/>
	<path class="st0" d="M15.8,7.9c0,0.3,0,0.4-0.1,0.3c-0.1,0,0-0.4-0.1-0.4c-0.1,0-0.1,0.2-0.1,0.3c0,0.1,0,0.4,0.1,0.4
		c0.3,0,0.2-0.5,0.2-0.6C15.9,7.8,15.8,7.6,15.8,7.9L15.8,7.9z"/>
	<path class="st0" d="M16.3,7.7c-0.1,0-0.1,0-0.1,0.2c0,0.2,0,0.3-0.1,0.3c-0.1,0-0.1-0.2,0-0.3c0-0.1-0.1-0.1-0.1-0.1
		S16,7.7,16,7.8c0,0.1,0,0.6,0.1,0.7c0.2,0,0.2-0.1,0.3-0.5C16.4,7.7,16.4,7.7,16.3,7.7L16.3,7.7z"/>
	<path class="st0" d="M16.7,8.6c0.3,0,0.2-0.4,0.2-0.6c0-0.1,0-0.4,0-0.4c-0.1,0-0.1,0.1-0.1,0.2c0,0.1,0,0.4-0.1,0.4
		c-0.1,0-0.1-0.1-0.1-0.4c0-0.2,0-0.3,0-0.3c0,0-0.1,0-0.1,0.2C16.5,8,16.4,8.6,16.7,8.6L16.7,8.6z"/>
	<path class="st0" d="M17.4,7.6c-0.1,0-0.1,0-0.1,0.2c0,0.2,0,0.6-0.1,0.6c-0.1,0-0.1-0.1-0.1-0.4c0-0.2,0.1-0.4,0-0.4
		c0,0-0.1-0.1-0.1,0.2c0,0.2,0,0.9,0.1,0.9c0.2,0,0.3-0.2,0.3-0.5C17.4,7.9,17.5,7.6,17.4,7.6L17.4,7.6z"/>
	<path class="st0" d="M17.7,7.6c0,0-0.1,0-0.1,0.2c0,0.2,0,0.6,0,0.7c0,0.2,0,0.3,0.2,0.3c0.2,0,0.3-0.3,0.3-0.5
		c0-0.3,0.1-0.7,0-0.8c-0.1,0-0.1,0.1-0.1,0.2c0,0.1,0,0.8-0.1,0.8c-0.1,0-0.1-0.3-0.1-0.6C17.7,7.5,17.7,7.6,17.7,7.6L17.7,7.6z"/>
	<path class="st0" d="M17.8,7.7c0,0,0,0,0,0.2c0,0.2,0,0.5,0,0.5c0.1,0,0-0.2,0-0.3C17.9,7.8,17.9,7.7,17.8,7.7L17.8,7.7z"/>
	<path class="st0" d="M18.9,7.4c-0.1,0-0.1,0-0.1,0.2c0,0.2,0,0.8,0,0.8s0,0.2-0.1,0.2c-0.2,0-0.2-0.1-0.2-0.3
		c0-0.2,0.1-0.8-0.1-0.8c0,0-0.1,0-0.1,0.2c0,0.2,0,0.8,0,0.9c0,0.1,0,0.3,0.3,0.4c0.3,0,0.4-0.4,0.4-0.8
		C18.9,7.8,18.9,7.4,18.9,7.4L18.9,7.4z"/>
	<path class="st0" d="M18.5,7.6c0,0-0.1,0-0.1,0.1c0,0.2,0,0.7,0,0.7c0.1,0,0.1,0,0.1-0.2C18.5,7.9,18.6,7.6,18.5,7.6L18.5,7.6z"/>
	<path class="st0" d="M15.4,2.6L15.5,2c0-0.1,0-0.2-0.1-0.2l-0.1,0l-0.1,0.9l0.1,0C15.4,2.8,15.4,2.7,15.4,2.6L15.4,2.6z M15.2,2.7
		l0-0.4l0.1,0l0-0.1l-0.1,0l0.1-0.4l0,0c0.1,0,0.1,0,0.1,0.1l-0.1,0.7C15.3,2.7,15.3,2.7,15.2,2.7L15.2,2.7L15.2,2.7z"/>
	<path class="st0" d="M7.8,7.4c0,0-0.1,0-0.1-0.1c0,0,0-0.1,0-0.1H8c0.1,0,0.2-0.1,0.2-0.2c0-0.1-0.1-0.2-0.2-0.2H7.7H7.6H7.5v0.1
		c0,0,0.1,0,0.1,0.1c0,0.1,0,0.4,0,0.4s0,0.1-0.1,0.1v0.1L7.8,7.4L7.8,7.4L7.8,7.4z M7.9,6.8C7.9,6.8,8,6.9,7.9,6.8C8,7,7.9,7,7.9,7
		H7.7c0-0.1,0-0.1,0-0.2H7.9L7.9,6.8z"/>
	<path class="st0" d="M6.9,11.4c0.1,0,0.4,0,0.4,0s0.1,0,0.1,0.1h0.1v-0.4l-0.1,0c0,0,0,0.1-0.1,0.1c0,0-0.1,0-0.1,0V11
		c0-0.1-0.1-0.2-0.2-0.2c-0.1,0-0.2,0.1-0.2,0.2v0.3v0.1v0.1L6.9,11.4C6.8,11.4,6.8,11.4,6.9,11.4L6.9,11.4z M6.8,11
		C6.8,11,6.8,11,6.8,11c0.1-0.1,0.2,0,0.2,0v0.2c-0.1,0-0.1,0-0.2,0V11L6.8,11z"/>
	<path class="st0" d="M13.1,14.2c0,0,0,0.1-0.1,0C13,14.2,12.7,14,12.7,14s0-0.1,0-0.1l-0.1,0l-0.2,0.3l0,0l-0.1,0.1
		c-0.1,0.1-0.1,0.2,0,0.3c0.1,0,0.1,0,0.2,0c0,0.1,0,0.1,0.1,0.1c0.1,0.1,0.2,0,0.3-0.1l0.1-0.2l0,0l0-0.1L13.1,14.2L13.1,14.2
		L13.1,14.2z M12.5,14.5c0,0-0.1-0.1,0-0.1l0.1-0.1c0,0,0,0,0.1,0c0,0,0.1,0,0.1,0.1l-0.1,0.2C12.6,14.5,12.6,14.5,12.5,14.5
		L12.5,14.5z M12.9,14.6c0,0-0.1,0-0.1,0c0,0,0-0.1,0-0.1l0.1-0.1c0.1,0,0.1,0.1,0.1,0.1L12.9,14.6L12.9,14.6z"/>
	<path class="st0" d="M8.7,6.8c-0.2,0-0.4,0.2-0.4,0.3c0,0.2,0.2,0.3,0.4,0.3c0.2,0,0.4-0.2,0.4-0.3C9.1,6.9,9,6.8,8.7,6.8L8.7,6.8z
		 M8.7,7.3c-0.1,0-0.2-0.1-0.2-0.2c0-0.1,0.1-0.2,0.2-0.2c0.1,0,0.2,0.1,0.2,0.2C8.9,7.2,8.8,7.3,8.7,7.3L8.7,7.3z"/>
	<path class="st0" d="M9.7,7.4c0,0-0.1,0-0.1-0.1c0,0,0-0.1,0-0.1h0.1l0.2,0.3c0,0,0.1,0,0.2-0.1l0,0c0,0-0.1,0.1-0.1,0
		c0-0.1-0.1-0.1-0.1-0.2c0.1,0,0.2-0.1,0.2-0.2c0-0.1-0.1-0.2-0.2-0.2H9.6H9.5H9.4v0.1c0,0,0.1,0,0.1,0.1c0,0.1,0,0.4,0,0.4
		s0,0.1-0.1,0.1v0.1L9.7,7.4L9.7,7.4L9.7,7.4z M9.8,6.8C9.8,6.8,9.9,6.9,9.8,6.8C9.9,7,9.8,7,9.8,7H9.6c0-0.1,0-0.1,0-0.2H9.8
		L9.8,6.8z"/>
	<path class="st0" d="M6.8,10.1c0.1,0,0.4,0,0.4,0s0.1,0,0.1,0.1h0.1V9.8l-0.1,0c0,0,0,0.1-0.1,0.1c0,0-0.1,0-0.1,0V9.8l0.3-0.2
		c0,0,0-0.1-0.1-0.2l0,0c0,0,0.1,0.1,0,0.1C7.2,9.6,7.1,9.6,7,9.7C7,9.6,7,9.5,6.9,9.5c-0.1,0-0.2,0.1-0.2,0.2v0.3V10v0.1L6.8,10.1
		C6.8,10.2,6.8,10.1,6.8,10.1L6.8,10.1z M6.8,9.8C6.8,9.7,6.8,9.7,6.8,9.8c0.1-0.1,0.2,0,0.2,0v0.2c-0.1,0-0.1,0-0.2,0V9.8L6.8,9.8z
		"/>
	<path class="st0" d="M10.3,15.8c0,0,0.1,0,0.1,0.2c0,0,0,0.1,0,0.1l-0.1,0l-0.1-0.3c0,0-0.1-0.1-0.2,0l0,0.1c0,0,0.1,0,0.1,0
		c0,0.1,0,0.1,0,0.2c-0.1,0-0.2,0-0.2,0.1c0,0.1,0,0.2,0.1,0.2l0.3,0.1l0.1,0l0-0.1c0,0-0.1,0,0-0.1c0-0.1,0.1-0.4,0.1-0.4
		s0-0.1,0.1,0l0-0.1L10.3,15.8L10.3,15.8L10.3,15.8z M10,16.1c0,0,0.1-0.1,0.1-0.1l0.2,0c0,0.1,0,0.1-0.1,0.2l-0.2,0
		C10,16.2,10,16.2,10,16.1L10,16.1z"/>
	<path class="st0" d="M14.2,7.6C14.2,7.6,14.2,7.6,14.2,7.6c-0.2,0.1-0.4,0.1-0.4,0.1s-0.1,0-0.1-0.1h-0.1v0.4l0.1,0
		c0,0,0-0.1,0.1-0.1c0,0,0.1,0,0.1,0v0.1l-0.3,0.2c0,0,0,0.1,0.1,0.2l0,0c0,0-0.1-0.1,0-0.1c0.1,0,0.1-0.1,0.2-0.1
		c0,0.1,0.1,0.2,0.2,0.2c0.1,0,0.2-0.1,0.2-0.2V7.8V7.7L14.2,7.6L14.2,7.6L14.2,7.6z M14.2,8C14.2,8,14.1,8.1,14.2,8
		C14,8.1,14,8,14,8V7.8c0.1,0,0.1,0,0.2,0V8L14.2,8z"/>
	<polygon class="st0" points="11.5,7.4 11.4,7.4 11.7,7 12,7.4 12.3,7.1 12.5,7.4 12.4,7.4 12.4,7.4 12.9,7.4 12.9,7.4 12.8,7.4 
		12.5,6.9 12.5,6.9 12.5,6.8 12.3,6.8 12.3,6.9 12.1,7.2 11.8,6.8 11.5,6.8 11.5,6.9 11.6,6.9 11.6,6.9 11.2,7.4 11.2,7.4 11.2,7.4 
		11.5,7.4 11.5,7.4 	"/>
	<polygon class="st0" points="13.4,7.3 13.4,7.3 13.4,6.9 13.4,6.9 13.4,6.8 13.1,6.8 13.1,6.9 13.2,6.9 13.2,7.3 13.1,7.3 
		13.1,7.4 13.4,7.4 13.4,7.3 	"/>
	<polygon class="st0" points="6.8,9.2 7.2,9.2 7.2,9.3 7.3,9.3 7.3,9 7.2,9 7.2,9 6.8,9 6.8,9 6.7,9 6.7,9.3 6.8,9.3 6.8,9.2 	"/>
	<polygon class="st0" points="6.8,8 7.4,7.6 6.8,7.2 6.8,7.1 6.7,7.1 6.7,7.4 6.8,7.4 6.8,7.3 7.1,7.6 6.8,7.8 6.8,7.7 6.7,7.7 
		6.7,8.1 6.8,8.1 6.8,8 	"/>
	<polygon class="st0" points="6.8,8.8 6.9,8.8 6.9,8.8 6.8,8.8 6.8,8.6 7.2,8.6 7.2,8.7 7.3,8.7 7.3,8.3 7.2,8.3 7.2,8.4 6.8,8.4 
		6.8,8.2 6.9,8.2 6.9,8.2 6.8,8.2 6.8,8.2 6.7,8.2 6.7,8.8 6.8,8.8 6.8,8.8 	"/>
	<polygon class="st0" points="6.8,10.6 7.2,10.6 7.2,10.7 7.3,10.7 7.3,10.4 7.2,10.4 7.2,10.4 6.8,10.4 6.8,10.4 6.7,10.4 
		6.7,10.7 6.8,10.7 6.8,10.6 	"/>
	<path class="st0" d="M12.5,15C12.5,15,12.4,15,12.5,15l-0.3-0.3c0,0,0,0,0,0c0,0,0,0,0.1-0.1l-0.1-0.1L11.7,15l0.1,0.2l0.1-0.1
		c0,0,0-0.1,0-0.1c0,0,0,0,0,0l0.2-0.2l0.3,0.3c0,0,0,0,0,0c0,0-0.1,0.1-0.1,0.1l0.1,0.1l0.3-0.3L12.5,15C12.5,15,12.5,15,12.5,15
		L12.5,15z"/>
	<path class="st0" d="M7.9,14.2L8.2,14c0,0,0,0,0,0c0,0,0,0,0,0.1l0.1,0L8,13.5l-0.2,0l0,0.1c0,0,0.1,0,0.1,0c0,0,0,0,0,0l0.1,0.2
		l-0.3,0.2c0,0,0,0,0,0c0,0-0.1-0.1-0.1-0.1l-0.1,0l0.2,0.4l0.1,0C7.9,14.3,7.9,14.3,7.9,14.2C7.9,14.3,7.9,14.3,7.9,14.2L7.9,14.2z
		"/>
	<path class="st0" d="M8.3,14.2L8.3,14.2c0.1,0.1,0.1,0.1,0.1,0.1c0,0,0,0,0,0c0,0,0,0,0.1,0l0.1,0.1l-0.2,0.1l-0.2-0.2l-0.1,0.1
		l0.2,0.2l-0.1,0.1l-0.1-0.2c0,0,0,0,0,0c0,0,0,0,0,0c0,0,0,0,0,0l0,0l-0.1-0.1l-0.1,0.1L8.3,15l0.1,0c0,0,0,0,0,0c0,0,0,0,0,0
		c0,0,0,0,0,0l0.3-0.3c0,0,0,0,0,0c0,0,0,0,0,0l0.1,0l-0.4-0.5L8.3,14.2L8.3,14.2z"/>
	<path class="st0" d="M7.2,12.9l0.4-0.1c0,0,0,0,0,0c0,0,0,0,0,0.1l0.1,0l-0.2-0.6l-0.2,0l0,0.1c0,0,0.1,0,0.1,0c0,0,0,0,0,0
		c0,0,0,0.1,0,0.1l0.1,0.2l-0.2,0.1l-0.1-0.2l-0.1,0l0.1,0.2l-0.2,0.1l-0.1-0.2c0,0,0,0,0,0c0,0,0,0,0,0c0,0,0,0,0,0l0,0l0-0.1
		L7,12.5L7.1,13L7.2,12.9C7.2,13,7.2,13,7.2,12.9C7.2,13,7.2,13,7.2,12.9C7.2,12.9,7.2,12.9,7.2,12.9L7.2,12.9z"/>
	<path class="st0" d="M7,12.2c0.1,0,0.1-0.1,0.2-0.2c0,0,0-0.1,0-0.1c0-0.1,0-0.1,0-0.1c0,0,0,0,0.1,0c0,0,0,0,0,0c0,0,0,0,0,0.1
		c0,0,0,0.1,0,0.1c0,0-0.1,0.1-0.1,0.1l0,0.1c0.1,0,0.1-0.1,0.2-0.1c0-0.1,0-0.2,0-0.3c0-0.1,0-0.2-0.1-0.3c0-0.1-0.1-0.1-0.2-0.1
		c0,0-0.1,0-0.1,0.1c0,0,0,0.1-0.1,0.2c0,0,0,0,0,0.1C7,12,7,12,7,12c0,0,0,0,0,0c0,0-0.1,0-0.1-0.1c0,0,0-0.2,0-0.2
		c0,0,0.1,0,0.1-0.1l0-0.1c-0.1,0-0.1,0.1-0.2,0.1c0,0.1,0,0.1,0,0.2c0,0.1,0,0.2,0.1,0.3C6.9,12.2,6.9,12.3,7,12.2L7,12.2z"/>
	<path class="st0" d="M14.1,9.6C14.1,9.6,14.1,9.6,14.1,9.6C14.1,9.6,14.1,9.6,14.1,9.6C14.1,9.6,14.1,9.6,14.1,9.6l0.1,0.3
		l-0.5-0.4c0,0-0.1-0.1-0.1,0.1c0,0.1,0,0.6,0,0.6l0.2,0.1v-0.1c-0.1,0,0,0,0,0c0,0,0,0,0-0.1V9.8l0.5,0.4c0,0,0.1,0,0.1-0.1
		s0-0.6,0-0.6l-0.2,0V9.6L14.1,9.6z"/>
	<path class="st0" d="M13.7,8.4C13.7,8.4,13.7,8.4,13.7,8.4l-0.1-0.1v0.3h0.1c0,0,0,0,0-0.1c0,0,0,0,0,0l0.1,0.1v0.3
		C13.7,9,13.7,9,13.7,9s0-0.1,0-0.1h-0.1v0.4h0.1c0,0,0-0.1,0-0.1c0,0,0,0,0,0l0.5-0.3V8.7L13.7,8.4C13.7,8.4,13.7,8.4,13.7,8.4
		L13.7,8.4z M13.9,8.7L14,8.8l-0.1,0.1V8.7L13.9,8.7z"/>
	<path class="st0" d="M13.7,10.4C13.7,10.4,13.7,10.3,13.7,10.4l-0.1-0.1v0.3h0.1c0,0,0,0,0-0.1c0,0,0,0,0,0l0.1,0.1v0.3
		c-0.1,0.1-0.1,0.1-0.1,0.1s0-0.1,0-0.1h-0.1v0.4h0.1c0,0,0-0.1,0-0.1c0,0,0,0,0,0l0.5-0.3v-0.2L13.7,10.4
		C13.7,10.4,13.7,10.4,13.7,10.4L13.7,10.4z M13.9,10.6l0.1,0.1l-0.1,0.1V10.6L13.9,10.6z"/>
	<path class="st0" d="M11.6,15.3L11.6,15.3l-0.3,0l0.1,0.1c0,0,0,0,0,0c0,0,0,0,0,0l0,0.1l-0.2,0.2c-0.1,0-0.1-0.1-0.1-0.1
		s0.1-0.1,0.1-0.1l-0.1-0.1l-0.4,0.2l0.1,0.1c0,0,0,0,0.1,0c0,0,0,0,0,0l0.5,0.3l0.2-0.1L11.6,15.3C11.5,15.3,11.5,15.3,11.6,15.3
		C11.6,15.3,11.6,15.3,11.6,15.3L11.6,15.3z M11.3,15.7l0.1-0.1l0,0.2L11.3,15.7L11.3,15.7z"/>
	<path class="st0" d="M9.7,15.4L9.7,15.4c0,0.1,0,0.1,0,0.1c0,0,0,0,0,0l-0.1,0.1l-0.2-0.2c0-0.1,0-0.1,0-0.1s0.1,0.1,0.1,0.1
		l0.1-0.1L9.1,15l-0.1,0.1c0,0,0,0,0,0c0,0,0,0,0,0l0,0.6l0.2,0.1l0.5-0.3c0,0,0,0,0,0c0,0,0,0,0,0l0.1-0.1L9.7,15.4L9.7,15.4z
		 M9.3,15.6l0-0.2l0.1,0.1L9.3,15.6L9.3,15.6z"/>
	<path class="st0" d="M13.2,13C13.2,13,13.3,13,13.2,13L13.2,13l-0.2,0.1l0.1,0c0,0,0,0,0,0c0,0,0,0,0,0l0.1,0.1l-0.1,0.3
		c-0.1,0-0.1,0-0.1,0s0-0.1,0-0.1l-0.1,0l-0.2,0.4l0.1,0c0,0,0,0,0-0.1c0,0,0,0,0,0l0.6-0.1l0.1-0.2L13.2,13
		C13.2,13,13.2,13,13.2,13L13.2,13z M13.4,13.5l-0.2,0l0.1-0.1L13.4,13.5L13.4,13.5z"/>
	<path class="st0" d="M14,12.1C14,12.1,14,12.1,14,12.1C14,12.1,13.9,12.1,14,12.1L13.6,12c0,0,0,0,0,0c0,0,0,0,0-0.1l-0.1,0
		l-0.1,0.3l0.1,0c0,0,0,0,0,0c0,0,0,0,0,0c0,0,0,0,0,0l0.2,0l-0.1,0.3l-0.2,0c0,0,0,0,0,0c0,0,0,0,0-0.1l-0.1,0l-0.1,0.3l0.1,0
		c0,0,0,0,0,0c0,0,0,0,0,0c0,0,0,0,0,0l0.4,0.1c0,0,0,0,0,0c0,0,0,0,0,0.1l0.1,0l0.1-0.3l-0.1,0c0,0,0,0,0,0c0,0,0,0,0,0
		c0,0,0,0,0,0l-0.1,0l0.1-0.3l0.1,0c0,0,0,0,0,0c0,0,0,0,0,0.1l0.1,0L14,12.1L14,12.1C14,12.1,14,12.1,14,12.1L14,12.1z"/>
	<path class="st0" d="M13.3,25.9c-0.3,0-0.5,0.2-0.5,0.5c0,0.3,0.2,0.5,0.5,0.5c0.3,0,0.5-0.2,0.5-0.5
		C13.8,26.1,13.6,25.9,13.3,25.9L13.3,25.9z M13.3,26.9c-0.2,0-0.4-0.2-0.4-0.4c0-0.2,0.2-0.4,0.4-0.4c0.2,0,0.4,0.2,0.4,0.4
		C13.7,26.7,13.5,26.9,13.3,26.9L13.3,26.9z"/>
	<path class="st0" d="M15.9,21.6c-0.3,0-0.5,0.2-0.5,0.5c0,0.3,0.2,0.5,0.5,0.5c0.3,0,0.5-0.2,0.5-0.5
		C16.4,21.9,16.2,21.6,15.9,21.6L15.9,21.6z M15.9,22.6c-0.2,0-0.4-0.2-0.4-0.4c0-0.2,0.2-0.4,0.4-0.4c0.2,0,0.4,0.2,0.4,0.4
		C16.3,22.4,16.1,22.6,15.9,22.6L15.9,22.6z"/>
	<path class="st0" d="M10.5,24c0-0.1-0.1-0.2-0.2-0.2c-0.1,0-0.2,0.1-0.2,0.2c0,0.1,0.1,0.2,0.2,0.2C10.4,24.3,10.5,24.2,10.5,24
		L10.5,24z M10.3,24.2c-0.1,0-0.2-0.1-0.2-0.2c0-0.1,0.1-0.2,0.2-0.2c0.1,0,0.2,0.1,0.2,0.2C10.5,24.1,10.4,24.2,10.3,24.2
		L10.3,24.2z"/>
	<path class="st0" d="M8.8,23.8c-0.1,0-0.2,0.1-0.2,0.2c0,0.1,0.1,0.2,0.2,0.2s0.2-0.1,0.2-0.2C9.1,23.9,8.9,23.8,8.8,23.8L8.8,23.8
		z M8.8,24.2c-0.1,0-0.2-0.1-0.2-0.2c0-0.1,0.1-0.2,0.2-0.2S9,24,9,24C9,24.1,8.9,24.2,8.8,24.2L8.8,24.2z"/>
	<path class="st0" d="M12.6,26.9c-0.4-0.1-0.7-0.2-0.7-0.5c0-0.3,0.2-0.4,0.4-0.4c0.2,0,0.1,0.2,0.2,0.2c0.1,0,0.2-0.3-0.2-0.3
		c-0.1,0-0.5,0.1-0.5,0.5C11.8,26.9,12.4,26.9,12.6,26.9c0.2,0.1,0.3,0.2,0.2,0.4c0,0-0.1,0.2,0,0.2c0.1,0,0.1-0.1,0.1-0.2
		C12.9,27.2,13,27,12.6,26.9L12.6,26.9z"/>
	<path class="st0" d="M14.6,22.7c0.2,0.1,0.3,0.1,0.3,0.3c0,0-0.1,0.2,0,0.2c0.1,0,0.1-0.1,0.1-0.2C15,23,15.1,22.7,14.6,22.7
		c-0.4-0.2-0.6-0.3-0.6-0.6c0-0.3,0.2-0.4,0.4-0.4c0.2,0,0.1,0.2,0.2,0.2c0.1,0,0.2-0.3-0.2-0.3c-0.1,0-0.5,0.1-0.5,0.5
		C13.9,22.6,14.5,22.7,14.6,22.7L14.6,22.7z"/>
	<path class="st0" d="M9.2,26.8c0-0.1-0.3-0.9-0.3-0.9s0-0.1,0.1-0.1v-0.1H8.6v0.1c0,0,0,0,0.1,0.1l-0.3,0.5
		c-0.1-0.1-0.2-0.5-0.2-0.5c0-0.1,0.1-0.1,0.1-0.1l0-0.1H7.9H7.8H7.6v0.1c0,0,0.1,0,0.2,0.1c0,0,0,0,0,0.1c0,0.1-0.2,0.8-0.3,0.9
		c0,0.1-0.2,0.1-0.2,0.1l0,0.1h0.4l0-0.1c-0.2,0-0.1-0.1-0.1-0.1l0.2-0.8c0.1,0.3,0.3,0.7,0.3,0.7L8.7,26C8.8,26.3,9,26.9,9,26.9
		S9,27,8.9,27V27h0.5l0-0.1C9.3,26.9,9.2,26.9,9.2,26.8L9.2,26.8z M7.9,25.8C8,25.8,8,25.9,8,25.9l0.3,0.6l0,0.1L7.9,25.8L7.9,25.8z
		 M9.1,26.9l-0.3-1c0.1,0,0.1,0,0.1,0s0.2,0.7,0.2,0.8C9.1,26.9,9.1,26.9,9.1,26.9L9.1,26.9z"/>
	<path class="st0" d="M10.1,26.8c0,0,0,0.1-0.2,0.1c-0.1,0-0.1,0-0.1-0.1c0,0,0-0.1,0-0.2c0,0,0.1-0.1,0.1-0.1h0.1v-0.1H9.9
		c-0.1,0-0.1,0-0.1-0.1c0-0.2,0-0.4,0-0.4s0.2-0.1,0.3,0.1h0c0,0,0-0.1,0-0.1c0-0.1-0.1-0.1-0.1-0.1H9.5V26c0,0,0.1,0,0.1,0.1
		c0,0.1,0,0.7,0,0.7s0,0.1-0.1,0.1V27h0.6C10.1,27,10.2,26.9,10.1,26.8L10.1,26.8L10.1,26.8z M9.7,26.9c0,0-0.1,0-0.1-0.2
		c0-0.3,0-0.6,0-0.6s0-0.1,0.1-0.1V26.9L9.7,26.9z"/>
	<path class="st0" d="M5.6,22.7L5.6,22.7l0.6,0.1c0,0,0.1-0.1,0.1-0.2H6.2c0,0,0,0.1-0.2,0.1c-0.1,0-0.2,0-0.2-0.1c0,0,0-0.1,0-0.2
		c0,0,0.1-0.1,0.1-0.1h0.1v-0.1H6c-0.1,0-0.1,0-0.1,0c0-0.2,0-0.3,0-0.3s0.2-0.1,0.3,0.1h0c0,0,0-0.1,0-0.1c0-0.1-0.1-0.1-0.1-0.1
		H5.6v0.1c0,0,0.1,0,0.1,0.1C5.7,22,5.7,22.6,5.6,22.7C5.7,22.6,5.7,22.7,5.6,22.7L5.6,22.7z M5.7,21.9C5.7,21.9,5.8,21.8,5.7,21.9
		l0.1,0.8c0,0-0.1,0-0.1-0.2C5.7,22.2,5.7,21.9,5.7,21.9L5.7,21.9z"/>
	<path class="st0" d="M15.5,24.6c0,0,0,0.1-0.2,0.1c-0.1,0-0.2,0-0.2-0.1c0,0,0-0.1,0-0.2c0,0,0.1-0.1,0.1-0.1h0.1v-0.1h-0.1
		c-0.1,0-0.1,0-0.1,0c0-0.2,0-0.3,0-0.3s0.2-0.1,0.3,0.1h0c0,0,0-0.1,0-0.1c0-0.1-0.1-0.1-0.1-0.1h-0.5v0.1c0,0,0.1,0,0.1,0.1
		c0,0.1,0,0.7,0,0.7s0,0.1-0.1,0.1v0.1h0.6C15.4,24.9,15.5,24.8,15.5,24.6L15.5,24.6L15.5,24.6z M15.1,24.8c0,0-0.1,0-0.1-0.2
		c0-0.2,0-0.6,0-0.6s0-0.1,0.1-0.1V24.8L15.1,24.8z"/>
	<path class="st0" d="M11.2,26c0,0,0.1,0,0.1,0.1c0,0.1,0,0.8,0,0.8s0,0.1-0.1,0.1V27h0.5v-0.1c0,0-0.1,0-0.1-0.1c0-0.1,0-0.8,0-0.8
		s0-0.1,0.1-0.1v-0.1L11.2,26L11.2,26L11.2,26z M11.4,26.1C11.4,26.1,11.4,26,11.4,26.1l0.1,0.8c0,0-0.1,0-0.1-0.1
		C11.4,26.7,11.4,26.1,11.4,26.1L11.4,26.1z"/>
	<path class="st0" d="M14.9,21.8c0,0.1,0,0.7,0,0.7s0,0.1-0.1,0.1v0.1h0.4v-0.1c0,0-0.1,0-0.1-0.1c0-0.1,0-0.7,0-0.7s0-0.1,0.1-0.1
		v-0.1h-0.4v0.1C14.8,21.7,14.9,21.7,14.9,21.8L14.9,21.8z M15,21.8C15,21.8,15,21.7,15,21.8l0.1,0.7c0,0-0.1,0-0.1-0.1
		C15,22.4,15,21.8,15,21.8L15,21.8z"/>
	<path class="st0" d="M2.9,21.5L2.9,21.5l-0.5-0.1v0.1c0,0,0.1,0,0.1,0.1c0,0.1-0.3,0.7-0.3,0.7l-0.3-0.7c0,0,0-0.1,0.1-0.1v-0.1
		H1.6v0.1c0,0,0.1,0,0.2,0.1c0,0.1,0.4,1.1,0.4,1.1l0.1,0l0.5-1.1C2.8,21.6,2.8,21.5,2.9,21.5L2.9,21.5z M2.7,21.7l-0.4,0.8
		c0-0.1,0-0.2,0-0.2l0.4-0.8C2.7,21.5,2.7,21.7,2.7,21.7L2.7,21.7z"/>
	<path class="st0" d="M6.9,24.7l-0.5-1.1l-0.1,0c0,0-0.4,1-0.4,1.1c0,0.1-0.2,0.1-0.2,0.1v0.1h0.3v-0.1C6,24.8,6,24.7,6,24.7
		l0.1-0.2l0.2,0.3c0,0,0.1-0.2,0.3-0.2c0,0.1,0.1,0.2,0.1,0.2c0,0.1-0.1,0.1-0.1,0.1v0.1H7v-0.1C7,24.8,6.9,24.7,6.9,24.7L6.9,24.7z
		 M6.3,24.6l-0.2-0.2l0.2-0.4c0,0,0.1,0.2,0.2,0.5C6.5,24.4,6.4,24.5,6.3,24.6L6.3,24.6z M6.8,24.7L6.4,24c0,0,0-0.1,0-0.2l0.4,0.8
		C6.8,24.6,6.9,24.7,6.8,24.7L6.8,24.7z"/>
	<path class="st0" d="M5,21.8C5,21.8,5.1,21.7,5,21.8c0,0.2-0.2,0.6-0.2,0.6l-0.2-0.5c0,0,0-0.1,0-0.1v-0.1H4.4v0.1c0,0,0.1,0,0.1,0
		c0,0.1,0.4,0.9,0.4,0.9l0,0l0.4-0.9c0,0,0-0.1,0.1-0.1v-0.1L5,21.8L5,21.8L5,21.8z M5.3,21.9l-0.3,0.7c0-0.1,0-0.1,0-0.1L5.3,21.9
		C5.3,21.8,5.3,21.9,5.3,21.9L5.3,21.9z"/>
	<path class="st0" d="M7.5,24.8L8,24c0,0,0-0.1,0.1-0.1v-0.1H7.6v0.1c0,0,0.1,0,0.1,0.1c0,0.1-0.2,0.5-0.2,0.5L7.2,24
		c0,0,0-0.1,0-0.1v-0.1H7v0.1c0,0,0.1,0,0.1,0C7.1,24,7.5,24.9,7.5,24.8L7.5,24.8L7.5,24.8z M7.5,24.6l0.3-0.6c0.1,0,0,0.1,0,0.1
		l-0.3,0.7C7.5,24.6,7.5,24.6,7.5,24.6L7.5,24.6z"/>
	<path class="st0" d="M8,23.6c0,0,0.1,0,0.3,0v1.1c0,0,0,0.1-0.1,0.1v0.1h0.4v-0.1c-0.1,0-0.1-0.1-0.1-0.1v-1.1c0.1,0,0.3,0,0.3,0
		c0.1,0,0.1,0.1,0.1,0.1h0.1l-0.1-0.1L8,23.6l-0.1,0.1L8,23.6C8,23.7,8,23.6,8,23.6L8,23.6z M8.4,24.7C8.4,24.7,8.4,24.7,8.4,24.7
		C8.4,24.7,8.3,24.7,8.4,24.7l-0.1-1c0,0,0,0,0,0c0,0,0,0,0,0V24.7L8.4,24.7z"/>
	<path class="st0" d="M4.1,22.6v-0.7v-0.1c0,0,0-0.1,0.1-0.1v-0.1H3.8v0.1c0.1,0,0.1,0.1,0.1,0.1v0.7v0.1c0,0,0,0.1-0.1,0.1v0.1h0.4
		v-0.1C4.2,22.7,4.1,22.6,4.1,22.6L4.1,22.6z M4.1,22.6C4.1,22.6,4.1,22.6,4.1,22.6C4,22.6,4,22.6,4.1,22.6L4,21.8c0,0,0,0,0,0
		c0,0,0,0,0,0V22.6L4.1,22.6z"/>
	<path class="st0" d="M7.5,22.1c0.2-0.3,0.2-0.3,0.3-0.3c0,0-0.3-0.2-0.5,0.2c-0.2,0.4-0.2,0.3-0.3,0.3C7,22.2,7.3,22.4,7.5,22.1
		L7.5,22.1z M7.4,21.9c0.1-0.1,0.1-0.2,0.2-0.2c0,0,0,0,0,0C7.5,21.8,7.5,21.9,7.4,21.9c0,0.2-0.1,0.2-0.2,0.2
		C7.3,22.1,7.3,22.1,7.4,21.9L7.4,21.9z"/>
	<path class="st0" d="M7.8,22.3C7.8,22.2,7.9,22.2,7.8,22.3l0.1-0.1H7.5v0.1c0,0,0.1,0,0.1,0.1c0,0.1,0,0.2,0,0.2s0,0.1-0.1,0.1v0.1
		h0.4v-0.1c-0.1,0-0.1-0.1-0.1-0.1S7.8,22.4,7.8,22.3L7.8,22.3z M7.7,22.6C7.7,22.6,7.7,22.6,7.7,22.6C7.7,22.6,7.7,22.6,7.7,22.6
		l-0.1-0.3c0,0,0,0,0,0c0,0,0,0,0,0V22.6L7.7,22.6z"/>
	<path class="st0" d="M8.4,22.7c0.2,0,0.6,0,0.6-0.5c0-0.5-0.4-0.6-0.7-0.6H8.1v0.1c0,0,0.1,0,0.1,0.1c0,0.1,0,0.7,0,0.7
		s0,0.1-0.1,0.1v0.1C8.1,22.7,8.2,22.7,8.4,22.7L8.4,22.7z M8.4,22.5v-0.7c0,0,0.5,0,0.5,0.4c0,0.3-0.2,0.4-0.4,0.4
		C8.4,22.6,8.4,22.5,8.4,22.5L8.4,22.5z M8.2,21.8C8.3,21.8,8.3,21.8,8.2,21.8l0.1,0.8c0,0,0,0.1-0.1,0.1V21.8L8.2,21.8z"/>
	<path class="st0" d="M14.1,23.8h-0.2v0.1c0,0,0.1,0,0.1,0.1c0,0.1,0,0.7,0,0.7s0,0.1-0.1,0.1v0.1c0,0,0.1,0,0.3,0
		c0.2,0,0.6,0,0.6-0.5C14.8,23.9,14.4,23.8,14.1,23.8L14.1,23.8z M14.1,24.7C14.1,24.7,14.1,24.7,14.1,24.7l-0.1-0.8
		c0,0,0.1,0,0.1,0.1V24.7L14.1,24.7z M14.3,24.7c-0.1,0-0.1-0.1-0.1-0.1v-0.7c0,0,0.5,0,0.5,0.4C14.7,24.7,14.5,24.7,14.3,24.7
		L14.3,24.7z"/>
	<path class="st0" d="M10.3,22.7c0.2,0,0.6,0,0.6-0.5c0-0.5-0.4-0.6-0.7-0.6H10v0.1c0,0,0.1,0,0.1,0.1c0,0.1,0,0.7,0,0.7
		s0,0.1-0.1,0.1v0.1C10,22.7,10.1,22.7,10.3,22.7L10.3,22.7z M10.3,22.5v-0.7c0,0,0.5,0,0.5,0.4c0,0.3-0.2,0.4-0.4,0.4
		C10.3,22.6,10.3,22.5,10.3,22.5L10.3,22.5z M10.2,21.8C10.2,21.8,10.2,21.8,10.2,21.8l0.1,0.8c0,0,0,0.1-0.1,0.1V21.8L10.2,21.8z"
		/>
	<path class="st0" d="M3.4,21.8C3.4,21.8,3.5,21.7,3.4,21.8c0.1,0.1,0.1,0.5,0.1,0.6c0,0,0-0.1,0-0.1c-0.1-0.4-0.5-0.6-0.6-0.5
		c0,0,0.1,0.1,0.2,0.2l-0.2,0.7c0,0,0,0.1-0.1,0.1v0H3v0c0,0-0.1,0-0.1-0.1c0-0.1,0.1-0.5,0.2-0.5c0,0.1,0.1,0.1,0.1,0.2
		c0,0.2,0.2,0.5,0.5,0.5l0-0.1c0,0,0,0,0-0.1v-0.7c0,0,0-0.1,0.1-0.1v-0.1L3.4,21.8L3.4,21.8L3.4,21.8z M3.3,22.2
		c0-0.1-0.1-0.3-0.2-0.3c0,0,0,0,0,0c0.1,0,0.3,0.2,0.3,0.4c0,0.1,0.1,0.2,0.2,0.3C3.4,22.5,3.3,22.4,3.3,22.2L3.3,22.2z"/>
	<path class="st0" d="M17.1,21.8C17.1,21.8,17.2,21.7,17.1,21.8c0.1,0.1,0.1,0.5,0.1,0.6c0,0,0-0.1,0-0.1c-0.1-0.4-0.5-0.6-0.6-0.5
		c0,0,0.1,0.1,0.2,0.2l-0.2,0.7c0,0,0,0.1-0.1,0.1v0h0.3v0c0,0-0.1,0-0.1-0.1c0-0.1,0.1-0.5,0.2-0.5c0,0.1,0.1,0.1,0.1,0.2
		c0,0.2,0.2,0.5,0.5,0.5l0-0.1c0,0,0,0,0-0.1v-0.7c0,0,0-0.1,0.1-0.1v-0.1L17.1,21.8L17.1,21.8L17.1,21.8z M16.9,22.2
		c0-0.1-0.1-0.3-0.2-0.3c0,0,0,0,0,0c0.1,0,0.3,0.2,0.3,0.4c0,0.1,0.1,0.2,0.2,0.3C17.1,22.5,17,22.4,16.9,22.2L16.9,22.2z"/>
	<path class="st0" d="M10,23.8L10,23.8l-0.3-0.1l0,0.1c0,0,0.1,0,0.1,0.1c0,0.1,0,0.4,0,0.6c0,0,0-0.1,0-0.1
		c-0.1-0.4-0.5-0.6-0.6-0.5c0,0,0.1,0.1,0.2,0.2l-0.2,0.7c0,0,0,0.1-0.1,0.1v0h0.3v0c0,0-0.1,0-0.1-0.1c0-0.1,0.1-0.5,0.2-0.5
		c0,0.1,0.1,0.1,0.1,0.2c0,0.2,0.2,0.5,0.5,0.5l0-0.1c0,0,0,0,0-0.1L10,23.8C9.9,23.9,9.9,23.8,10,23.8L10,23.8z M9.6,24.3
		c0-0.1-0.1-0.3-0.2-0.3c0,0,0,0,0,0c0.1,0,0.3,0.2,0.3,0.4c0,0.1,0.1,0.2,0.2,0.3C9.7,24.6,9.6,24.5,9.6,24.3L9.6,24.3z"/>
	<path class="st0" d="M11.9,22.7c0,0-0.1,0-0.1-0.1c0-0.1,0.2-0.6,0.2-0.7c0.1,0.1,0.1,0.2,0.2,0.3c0.1,0.4,0.4,0.6,0.5,0.6l0-0.1
		c0,0,0,0,0,0v-0.9c0,0,0-0.1,0.1-0.1v-0.1h-0.3l0,0.1c0,0,0.1,0,0.1,0.1c0,0.1,0,0.7,0,0.8c-0.1-0.1-0.1-0.2-0.2-0.3
		c-0.2-0.6-0.5-0.8-0.7-0.7c0,0,0.1,0.1,0.2,0.2l-0.2,0.9c0,0,0,0.1-0.2,0.1v0.1L11.9,22.7L11.9,22.7L11.9,22.7z M12.3,22.2
		c0,0.1,0.2,0.3,0.3,0.4l0,0c-0.2,0-0.3-0.2-0.4-0.5c-0.1-0.2-0.2-0.4-0.3-0.5C12,21.6,12.2,21.8,12.3,22.2L12.3,22.2z"/>
	<path class="st0" d="M6.7,22.6c0,0-0.1,0-0.1-0.1c0,0,0,0,0-0.1c0,0,0-0.1,0.1-0.1c0,0,0,0,0.1,0L7.1,23h0.1l-0.3-0.7
		c0.1,0,0.2-0.1,0.2-0.3c0-0.2-0.1-0.4-0.5-0.4v0H6.4v0.1c0,0,0.1,0,0.1,0c0,0.1,0,0.7,0,0.7s0,0.1-0.1,0.1v0.1L6.7,22.6L6.7,22.6
		L6.7,22.6z M6.7,21.8c0.1,0,0.2,0,0.2,0.3c0,0.2-0.2,0.3-0.3,0.2C6.6,22.1,6.6,21.9,6.7,21.8C6.7,21.8,6.7,21.8,6.7,21.8L6.7,21.8z
		 M6.6,22.6C6.6,22.6,6.5,22.6,6.6,22.6C6.5,22.6,6.5,22.6,6.6,22.6l-0.1-0.7c0,0,0,0,0,0c0,0,0,0,0,0V22.6L6.6,22.6z"/>
	<path class="st0" d="M8.9,22.7h0.3v-0.1c-0.1,0,0-0.1,0-0.1l0.1-0.1l0.2,0.1c0,0,0.1-0.1,0.2-0.2c0,0.1,0.1,0.2,0.1,0.2
		c0,0.1-0.1,0.1-0.1,0.1v0.1H10v-0.1c-0.1,0-0.1-0.1-0.1-0.1l-0.4-0.9l-0.1,0c0,0-0.3,0.8-0.4,0.9C9,22.7,8.9,22.6,8.9,22.7
		L8.9,22.7L8.9,22.7z M9.4,21.9l0.3,0.7c0,0,0.1,0.1,0,0.1L9.4,22C9.4,22,9.4,21.9,9.4,21.9L9.4,21.9z M9.5,22.3
		c-0.1,0.1-0.1,0.1-0.2,0.2l-0.1-0.1L9.4,22C9.4,22,9.4,22.1,9.5,22.3L9.5,22.3z"/>
	<path class="st0" d="M13.8,22.6l-0.4-0.9l-0.1,0c0,0-0.3,0.8-0.4,0.9c0,0.1-0.1,0-0.1,0v0.1h0.3v-0.1c-0.1,0,0-0.1,0-0.1l0.1-0.1
		l0.2,0.1c0,0,0.1-0.1,0.2-0.2c0,0.1,0.1,0.2,0.1,0.2c0,0.1-0.1,0.1-0.1,0.1v0.1h0.4L13.8,22.6C13.8,22.6,13.8,22.6,13.8,22.6
		L13.8,22.6z M13.2,22.4l-0.1-0.1l0.1-0.3c0,0,0.1,0.1,0.1,0.3C13.3,22.3,13.3,22.3,13.2,22.4L13.2,22.4z M13.6,22.6L13.3,22
		c0,0,0-0.1,0-0.1L13.6,22.6C13.6,22.5,13.7,22.6,13.6,22.6L13.6,22.6z"/>
	<path class="st0" d="M12.7,24.8L12.7,24.8l0.4,0.1v-0.1c-0.1,0-0.1-0.1-0.1-0.1l-0.4-0.9l-0.1,0c0,0-0.3,0.8-0.4,0.9
		c0,0.1-0.1,0-0.1,0v0.1h0.3v-0.1c-0.1,0,0-0.1,0-0.1l0.1-0.1l0.2,0.1c0,0,0.1-0.1,0.2-0.2C12.7,24.6,12.7,24.7,12.7,24.8
		C12.8,24.8,12.7,24.8,12.7,24.8L12.7,24.8z M12.4,24.6l-0.1-0.1l0.1-0.3c0,0,0.1,0.1,0.1,0.3C12.5,24.5,12.5,24.5,12.4,24.6
		L12.4,24.6z M12.5,24.2c0,0,0-0.1,0-0.1l0.3,0.7c0,0,0.1,0.1,0,0.1L12.5,24.2L12.5,24.2z"/>
	<path class="st0" d="M18.4,22.6L18,21.7l-0.1,0c0,0-0.3,0.8-0.4,0.9c0,0.1-0.1,0-0.1,0v0.1h0.3v-0.1c-0.1,0,0-0.1,0-0.1l0.1-0.1
		l0.2,0.1c0,0,0.1-0.1,0.2-0.2c0,0.1,0.1,0.2,0.1,0.2c0,0.1-0.1,0.1-0.1,0.1v0.1h0.4L18.4,22.6C18.4,22.6,18.4,22.6,18.4,22.6
		L18.4,22.6z M17.9,22.4l-0.1-0.1l0.1-0.3c0,0,0.1,0.1,0.1,0.3C17.9,22.3,17.9,22.3,17.9,22.4L17.9,22.4z M18.2,22.6L18,22
		c0,0,0-0.1,0-0.1L18.2,22.6C18.3,22.5,18.3,22.6,18.2,22.6L18.2,22.6z"/>
	<path class="st0" d="M11,23.8L11,23.8l-0.4-0.1v0.1c0,0,0.1,0,0.1,0.1l0.1,0.1c0,0.1-0.2,0.6-0.2,0.7c0,0.1-0.1,0.1-0.1,0.1l0,0.1
		h0.3l0,0c-0.1,0-0.1-0.1-0.1-0.1l0.2-0.6l0.3,0.4l0.4-0.5l0,0.7c0,0,0,0.1-0.1,0.1v0.1h0.4v-0.1c0,0-0.1,0-0.1-0.1
		c0-0.1,0-0.7,0-0.8c0,0,0,0,0.1,0v-0.1h-0.3l-0.4,0.5L11,23.8C11,23.9,10.9,23.8,11,23.8L11,23.8z M11.7,24.7
		C11.7,24.7,11.7,24.7,11.7,24.7C11.7,24.7,11.6,24.7,11.7,24.7l-0.1-0.8c0,0,0,0,0,0c0,0,0,0,0,0V24.7L11.7,24.7z M11.1,24.3
		c0,0.1,0,0.1,0,0.1l-0.3-0.5c0.1,0,0.1,0,0.1,0S11,24.2,11.1,24.3L11.1,24.3z"/>
	<path class="st0" d="M19.4,22.3c0,0-0.1,0.3-0.5,0.3c0,0,0,0,0,0v-1.1c0,0,0-0.1,0.1-0.1v-0.1h-0.4v0.1c0.1,0,0.1,0.1,0.1,0.1v1.1
		c0,0,0,0.1-0.1,0.1v0.1h0.3h0.1h0.4L19.4,22.3L19.4,22.3L19.4,22.3z M18.9,22.6C18.9,22.6,18.9,22.6,18.9,22.6
		C18.8,22.6,18.8,22.6,18.9,22.6l-0.1-1.1c0,0,0,0,0,0c0,0,0,0,0,0V22.6L18.9,22.6z"/>
	<path class="st0" d="M11,26.9c0,0-0.1-0.2-0.3-0.4c0.1-0.2,0.2-0.4,0.2-0.4s0-0.1,0.1-0.1v-0.1h-0.5V26c0,0,0.1,0,0.1,0.1
		c0,0-0.1,0.1-0.1,0.2c-0.1-0.1-0.1-0.2-0.1-0.2s-0.1-0.1,0-0.1v-0.1h-0.3V26c0,0,0.1,0,0.1,0c0,0,0.1,0.2,0.2,0.3
		c-0.1,0.2-0.2,0.5-0.2,0.5s0,0.1-0.1,0.1V27h0.4V27c0,0-0.1,0,0-0.1c0,0,0.1-0.1,0.1-0.2c0.1,0.2,0.2,0.3,0.2,0.3s0.1,0.1-0.1,0.1
		V27h0.3v-0.1C11.2,26.9,11.1,27,11,26.9L11,26.9z M10.4,26.9c0,0-0.1,0,0-0.1c0.1-0.1,0.4-0.7,0.4-0.7s0-0.1,0.1-0.1L10.4,26.9
		L10.4,26.9z"/>
</g>
</svg>
